#N canvas 6 138 200 200 10;
#N canvas 527 211 420 300 META 0;
#X text 10 10 VERSION 0.6;
#X text 10 25 AUTHOR Georg Holzmann \, Gerda Strobl \, Hans-Christoph
Steiner \, Olsen Wolf \, Roman Haefeli;
#X text 10 52 NAME arduino;
#X restore 10 10 pd META;
