#N canvas 81 0 548 475 10;
#X obj 388 -14 import cyclone zexy;
#X text 331 417 released under the GNU GPL;
#X text 117 402 (C) Copyright 2006 Hans-Christoph Steiner <hans@at.or.at>
;
#N canvas 630 546 462 312 alternate 0;
#X obj 87 8 inlet;
#X obj 151 244 outlet;
#X obj 319 247 outlet;
#X obj 159 197 spigot;
#X obj 319 191 spigot;
#X obj 158 57 trigger anything bang;
#X obj 196 152 abs;
#X floatatom 212 198 5 0 0 0 - - -;
#X obj 356 147 abs;
#X msg 295 77 1;
#X obj 196 173 float;
#X obj 355 168 float;
#X obj 86 34 route reset;
#X obj 356 128 -;
#X obj 196 133 -;
#X obj 15 35 loadbang;
#X obj 86 54 bang;
#X msg 73 82 1;
#X msg 103 82 0;
#X connect 0 0 12 0;
#X connect 3 0 1 0;
#X connect 4 0 2 0;
#X connect 5 0 3 0;
#X connect 5 0 4 0;
#X connect 5 1 9 0;
#X connect 6 0 10 0;
#X connect 8 0 11 0;
#X connect 9 0 13 0;
#X connect 9 0 14 0;
#X connect 10 0 3 1;
#X connect 10 0 7 0;
#X connect 10 0 14 1;
#X connect 11 0 4 1;
#X connect 11 0 13 1;
#X connect 12 0 16 0;
#X connect 12 1 5 0;
#X connect 13 0 8 0;
#X connect 14 0 6 0;
#X connect 15 0 18 0;
#X connect 15 0 17 0;
#X connect 16 0 18 0;
#X connect 16 0 17 0;
#X connect 17 0 14 1;
#X connect 18 0 13 1;
#X restore 144 130 pd alternate;
#X msg 89 99 reset;
#X obj 207 171 +;
#X obj 207 192 trigger bang float;
#X obj 215 324 pack symbol float;
#X obj 197 248 +;
#X obj 225 248 float;
#X msg 226 227 0;
#X msg 197 227 1;
#X obj 197 278 + 64;
#X obj 349 135 gate 4;
#X obj 340 159 bng 15 250 50 0 empty empty empty 0 -6 0 8 -262144 -1
-1;
#X obj 358 159 bng 15 250 50 0 empty empty empty 0 -6 0 8 -262144 -1
-1;
#X obj 377 159 bng 15 250 50 0 empty empty empty 0 -6 0 8 -262144 -1
-1;
#X obj 396 159 bng 15 250 50 0 empty empty empty 0 -6 0 8 -262144 -1
-1;
#X obj 387 114 metro 400;
#X obj 388 94 tgl 15 0 empty empty empty 0 -6 0 8 -262144 -1 -1 0 1
;
#X obj 316 61 float;
#X obj 359 61 + 1;
#X obj 316 27 bng 15 250 50 0 empty empty empty 0 -6 0 8 -262144 -1
-1;
#X obj 402 59 bang;
#X msg 335 27 1;
#X obj 316 83 moses 5;
#X obj 89 73 select 255;
#X obj 223 150 * 128;
#X obj 89 -1 inlet;
#X obj 10 373 outlet;
#X obj 235 380 outlet;
#X obj 197 301 makefilename arduino%c;
#X obj 89 45 comport \$1 9600;
#X connect 3 0 5 0;
#X connect 3 1 27 0;
#X connect 4 0 3 0;
#X connect 4 0 10 0;
#X connect 5 0 6 0;
#X connect 6 0 11 0;
#X connect 6 1 7 1;
#X connect 7 0 29 0;
#X connect 8 0 9 0;
#X connect 8 0 12 0;
#X connect 9 0 8 1;
#X connect 10 0 9 0;
#X connect 11 0 8 0;
#X connect 12 0 31 0;
#X connect 13 0 14 0;
#X connect 13 1 15 0;
#X connect 13 2 16 0;
#X connect 13 3 17 0;
#X connect 18 0 13 1;
#X connect 19 0 18 0;
#X connect 20 0 25 0;
#X connect 21 0 20 1;
#X connect 22 0 20 0;
#X connect 23 0 24 0;
#X connect 24 0 20 0;
#X connect 25 0 21 0;
#X connect 25 0 13 0;
#X connect 25 1 23 0;
#X connect 26 0 4 0;
#X connect 26 1 3 0;
#X connect 27 0 5 1;
#X connect 28 0 32 0;
#X connect 31 0 7 0;
#X connect 32 0 29 0;
