#N canvas 81 0 600 527 10;
#X obj 388 -14 import cyclone zexy;
#X text 390 446 released under the GNU GPL;
#X text 17 448 (C) Copyright 2006 Hans-Christoph Steiner <hans@at.or.at>
;
#N canvas 630 546 462 312 alternate 0;
#X obj 87 8 inlet;
#X obj 151 244 outlet;
#X obj 319 247 outlet;
#X obj 159 197 spigot;
#X obj 319 191 spigot;
#X obj 158 57 trigger anything bang;
#X obj 196 152 abs;
#X floatatom 212 198 5 0 0 0 - - -;
#X obj 356 147 abs;
#X msg 295 77 1;
#X obj 196 173 float;
#X obj 355 168 float;
#X obj 86 34 route reset;
#X obj 356 128 -;
#X obj 196 133 -;
#X obj 15 35 loadbang;
#X obj 86 54 bang;
#X msg 73 82 1;
#X msg 103 82 0;
#X connect 0 0 12 0;
#X connect 3 0 1 0;
#X connect 4 0 2 0;
#X connect 5 0 3 0;
#X connect 5 0 4 0;
#X connect 5 1 9 0;
#X connect 6 0 10 0;
#X connect 8 0 11 0;
#X connect 9 0 13 0;
#X connect 9 0 14 0;
#X connect 10 0 3 1;
#X connect 10 0 7 0;
#X connect 10 0 14 1;
#X connect 11 0 4 1;
#X connect 11 0 13 1;
#X connect 12 0 16 0;
#X connect 12 1 5 0;
#X connect 13 0 8 0;
#X connect 14 0 6 0;
#X connect 15 0 18 0;
#X connect 15 0 17 0;
#X connect 16 0 18 0;
#X connect 16 0 17 0;
#X connect 17 0 14 1;
#X connect 18 0 13 1;
#X restore 67 131 pd alternate;
#X msg 11 100 reset;
#X obj 121 173 +;
#X obj 121 194 trigger bang float;
#X obj 127 345 pack symbol float;
#X msg 125 228 0;
#X obj 349 135 gate 4;
#X obj 340 159 bng 15 250 50 0 empty empty empty 0 -6 0 8 -262144 -1
-1;
#X obj 358 159 bng 15 250 50 0 empty empty empty 0 -6 0 8 -262144 -1
-1;
#X obj 377 159 bng 15 250 50 0 empty empty empty 0 -6 0 8 -262144 -1
-1;
#X obj 396 159 bng 15 250 50 0 empty empty empty 0 -6 0 8 -262144 -1
-1;
#X obj 387 114 metro 400;
#X obj 388 94 tgl 15 0 empty empty empty 0 -6 0 8 -262144 -1 -1 0 1
;
#X obj 316 61 float;
#X obj 359 61 + 1;
#X obj 316 27 bng 15 250 50 0 empty empty empty 0 -6 0 8 -262144 -1
-1;
#X obj 402 59 bang;
#X msg 335 27 1;
#X obj 316 83 moses 5;
#X obj 11 58 select 255;
#X obj 134 152 * 128;
#X obj 11 -9 inlet;
#X obj 127 395 outlet;
#X obj 492 396 outlet;
#X obj 11 36 comport \$1 9600;
#N canvas 0 0 466 316 command 0;
#X obj 79 8 inlet;
#X obj 313 267 outlet;
#X obj 79 53 route PWM0 PWM1 PWM2;
#X obj 155 114 * 255;
#X obj 100 114 * 255;
#X obj 45 114 * 255;
#X obj 155 93 clip 0 1;
#X obj 100 93 clip 0 1;
#X obj 45 93 clip 0 1;
#X msg 155 135 232 \, \$1;
#X msg 100 135 231 \, \$1;
#X msg 45 135 230 \, \$1;
#X connect 0 0 2 0;
#X connect 2 0 8 0;
#X connect 2 1 7 0;
#X connect 2 2 6 0;
#X connect 2 3 1 0;
#X connect 3 0 9 0;
#X connect 4 0 10 0;
#X connect 5 0 11 0;
#X connect 6 0 3 0;
#X connect 7 0 4 0;
#X connect 8 0 5 0;
#X connect 9 0 1 0;
#X connect 10 0 1 0;
#X connect 11 0 1 0;
#X restore 11 12 pd command processing;
#X obj 67 94 moses 128;
#X msg 48 316 symbol digital;
#X obj 143 315 makefilename analog%c;
#X obj 100 249 float;
#X obj 139 249 + 1;
#X obj 127 370 list trim;
#X obj 100 271 select 0;
#X text 373 418 DEBUG/RAW data (this will change);
#X obj 143 293 + 47;
#X connect 3 0 5 0;
#X connect 3 1 23 0;
#X connect 4 0 3 0;
#X connect 4 0 8 0;
#X connect 5 0 6 0;
#X connect 6 0 32 0;
#X connect 6 1 7 1;
#X connect 7 0 34 0;
#X connect 8 0 32 1;
#X connect 9 0 10 0;
#X connect 9 1 11 0;
#X connect 9 2 12 0;
#X connect 9 3 13 0;
#X connect 14 0 9 1;
#X connect 15 0 14 0;
#X connect 16 0 21 0;
#X connect 17 0 16 1;
#X connect 18 0 16 0;
#X connect 19 0 20 0;
#X connect 20 0 16 0;
#X connect 21 0 17 0;
#X connect 21 0 9 0;
#X connect 21 1 19 0;
#X connect 22 0 4 0;
#X connect 22 1 29 0;
#X connect 23 0 5 1;
#X connect 24 0 28 0;
#X connect 27 0 22 0;
#X connect 27 0 26 0;
#X connect 28 0 27 0;
#X connect 29 0 3 0;
#X connect 30 0 7 0;
#X connect 31 0 7 0;
#X connect 32 0 33 0;
#X connect 32 0 35 0;
#X connect 33 0 32 1;
#X connect 34 0 25 0;
#X connect 35 0 30 0;
#X connect 35 1 37 0;
#X connect 37 0 31 0;
