#N canvas 372 44 847 546 10;
#X declare -path includes;
#X declare -stdpath extra/moocow -lib pdstring;
#X obj 20 65 cnv 15 275 325 empty empty empty 20 12 0 14 -22189 -66577
0;
#X obj 340 21 declare -path includes;
#X obj 340 61 inlet;
#X obj 27 454 outlet;
#X obj 237 463 outlet;
#X obj 341 318 s \$0.ARDUINO.OUT;
#X obj 454 319 s \$0.ARDUINO.INFO;
#X obj 341 295 arduino;
#X obj 341 272 r \$0.ARDUINO.TO;
#X obj 27 431 r \$0.ARDUINO.OUT;
#X obj 237 439 r \$0.ARDUINO.INFO;
#X obj 340 83 s \$0.ARDUINO.IN;
#N canvas 925 331 412 218 pin.capabilities 0;
#X obj 30 93 tgl 15 0 empty empty O 3 7 0 10 -262144 -1 -1 0 1;
#X obj 49 93 tgl 15 0 empty empty I 3 7 0 10 -262144 -1 -1 0 1;
#X obj 68 93 tgl 15 0 empty empty P 3 7 0 10 -262144 -1 -1 0 1;
#X obj 87 93 tgl 15 0 empty empty S 3 7 0 10 -262144 -1 -1 0 1;
#N canvas 1106 233 363 312 bitmask 0;
#X obj 55 58 << 1;
#X obj 145 59 << 3;
#X obj 40 117 +;
#X obj 40 148 +;
#X obj 40 177 +;
#X obj 55 80 t b a;
#X obj 98 106 t b a;
#X obj 145 136 t b a;
#X obj 13 23 inlet;
#X obj 55 24 inlet;
#X obj 98 24 inlet;
#X obj 145 24 inlet;
#X obj 40 239 outlet;
#X obj 98 60 << 2;
#X obj 193 169 t b a;
#X obj 193 24 inlet;
#X obj 193 59 << 4;
#X obj 40 209 +;
#X connect 0 0 5 0;
#X connect 1 0 7 0;
#X connect 2 0 3 0;
#X connect 3 0 4 0;
#X connect 4 0 17 0;
#X connect 5 0 2 0;
#X connect 5 1 2 1;
#X connect 6 0 3 0;
#X connect 6 1 3 1;
#X connect 7 0 4 0;
#X connect 7 1 4 1;
#X connect 8 0 2 0;
#X connect 9 0 0 0;
#X connect 10 0 13 0;
#X connect 11 0 1 0;
#X connect 13 0 6 0;
#X connect 14 0 17 0;
#X connect 14 1 17 1;
#X connect 15 0 16 0;
#X connect 16 0 14 0;
#X connect 17 0 12 0;
#X restore 30 113 pd bitmask;
#N canvas 0 0 450 300 (subpatch) 0;
#X array \$0.ARDUINO.PIN.MODES 128 float 3;
#A 0 0 0 3 15 3 15 15 3 3 15 15 15 3 3 0 0 23 23 23 23 23 23 0 0 0
0 0 0 0 0 0 0 0 0 0 0 0 0 0 0 0 0 0 0 0 0 0 0 0 0 0 0 0 0 0 0 0 0 0
0 0 0 0 0 0 0 0 0 0 0 0 0 0 0 0 0 0 0 0 0 0 0 0 0 0 0 0 0 0 0 0 0 0
0 0 0 0 0 0 0 0 0 0 0 0 0 0 0 0 0 0 0 0 0 0 0 0 0 0 0 0 0 0 0 0 0 0
0;
#X coords 0 32 128 0 256 32 1 0 0;
#X restore 18 26 graph;
#X obj 30 166 tabwrite \$0.ARDUINO.PIN.MODES;
#X floatatom 192 97 5 0 0 0 - - -;
#X text 229 98 Pin no.;
#X floatatom 30 138 5 0 0 0 - - -;
#X obj 106 93 tgl 15 0 empty empty A 3 7 0 10 -262144 -1 -1 0 1;
#X connect 0 0 4 0;
#X connect 1 0 4 1;
#X connect 2 0 4 2;
#X connect 3 0 4 3;
#X connect 4 0 9 0;
#X connect 7 0 6 1;
#X connect 9 0 6 0;
#X connect 10 0 4 4;
#X restore 485 273 pd pin.capabilities;
#X obj 272 346 agop.digital.pin \$0 2;
#X obj 272 332 agop.digital.pin \$0 3;
#X obj 272 318 agop.digital.pin \$0 4;
#X obj 272 304 agop.digital.pin \$0 5;
#X obj 272 290 agop.digital.pin \$0 6;
#X obj 272 276 agop.digital.pin \$0 7;
#X obj 272 255 agop.digital.pin \$0 8;
#X obj 272 241 agop.digital.pin \$0 9;
#X obj 272 227 agop.digital.pin \$0 10;
#X obj 272 213 agop.digital.pin \$0 11;
#X obj 272 199 agop.digital.pin \$0 12;
#X obj 272 185 agop.digital.pin \$0 13;
#X text 243 156 AREF;
#X text 249 170 GND;
#X text 255 359 TX;
#X text 255 373 RX;
#X obj 280 158 agop.dummy.pin;
#X obj 280 171 agop.dummy.pin;
#X obj 280 360 agop.dummy.pin;
#X obj 280 373 agop.dummy.pin;
#X obj 23 277 agop.dummy.pin;
#X obj 23 263 agop.dummy.pin;
#X obj 23 249 agop.dummy.pin;
#X obj 23 235 agop.dummy.pin;
#X obj 23 221 agop.dummy.pin;
#X obj 23 207 agop.dummy.pin;
#X obj 210 183 agop.tx.led \$0;
#X obj 197 183 agop.rx.led \$0;
#X text 340 175 \$0.ARDUINO.OUT;
#X text 340 202 \$0.ARDUINO.INFO;
#X text 340 229 \$0.ARDUINO.INTERN;
#X text 340 148 \$0.ARDUINO.TO;
#X text 340 121 \$0.ARDUINO.IN;
#X text 458 230 <- GOP-internal Communication;
#X text 458 203 <- Arduino Status Messages (sent to outlet1);
#X text 458 175 <- Arduino Pin Messages (sent to outlet0);
#X text 458 120 <- external commands (modules are listening here);
#X text 458 148 <- Commands sent from modules -> [arduino];
#X obj 20 20 agop.firmware.check \$0;
#X obj 86 206 cnv 15 28 175 empty empty empty 20 12 0 14 -66577 -66577
0;
#X text 36 206 RESET;
#X text 36 220 3v3;
#X text 36 234 5V;
#X text 36 248 GND;
#X text 36 262 GND;
#X text 36 276 Vin;
#X obj 115 213 cnv 1 1 5 empty empty empty 20 12 0 14 -233017 -66577
0;
#X obj 115 225 cnv 1 1 5 empty empty empty 20 12 0 14 -233017 -66577
0;
#X obj 115 237 cnv 1 1 5 empty empty empty 20 12 0 14 -233017 -66577
0;
#X obj 115 249 cnv 1 1 5 empty empty empty 20 12 0 14 -233017 -66577
0;
#X obj 115 261 cnv 1 1 5 empty empty empty 20 12 0 14 -233017 -66577
0;
#X obj 115 273 cnv 1 1 5 empty empty empty 20 12 0 14 -233017 -66577
0;
#X obj 115 285 cnv 1 1 5 empty empty empty 20 12 0 14 -233017 -66577
0;
#X obj 115 297 cnv 1 1 5 empty empty empty 20 12 0 14 -233017 -66577
0;
#X obj 115 309 cnv 1 1 5 empty empty empty 20 12 0 14 -233017 -66577
0;
#X obj 115 321 cnv 1 1 5 empty empty empty 20 12 0 14 -233017 -66577
0;
#X obj 115 333 cnv 1 1 5 empty empty empty 20 12 0 14 -233017 -66577
0;
#X obj 115 345 cnv 1 1 5 empty empty empty 20 12 0 14 -233017 -66577
0;
#X obj 115 357 cnv 1 1 5 empty empty empty 20 12 0 14 -233017 -66577
0;
#X obj 115 369 cnv 1 1 5 empty empty empty 20 12 0 14 -233017 -66577
0;
#X obj 84 213 cnv 1 1 5 empty empty empty 20 12 0 14 -233017 -66577
0;
#X obj 84 225 cnv 1 1 5 empty empty empty 20 12 0 14 -233017 -66577
0;
#X obj 84 237 cnv 1 1 5 empty empty empty 20 12 0 14 -233017 -66577
0;
#X obj 84 249 cnv 1 1 5 empty empty empty 20 12 0 14 -233017 -66577
0;
#X obj 84 261 cnv 1 1 5 empty empty empty 20 12 0 14 -233017 -66577
0;
#X obj 84 273 cnv 1 1 5 empty empty empty 20 12 0 14 -233017 -66577
0;
#X obj 84 285 cnv 1 1 5 empty empty empty 20 12 0 14 -233017 -66577
0;
#X obj 84 297 cnv 1 1 5 empty empty empty 20 12 0 14 -233017 -66577
0;
#X obj 84 309 cnv 1 1 5 empty empty empty 20 12 0 14 -233017 -66577
0;
#X obj 84 321 cnv 1 1 5 empty empty empty 20 12 0 14 -233017 -66577
0;
#X obj 84 333 cnv 1 1 5 empty empty empty 20 12 0 14 -233017 -66577
0;
#X obj 84 345 cnv 1 1 5 empty empty empty 20 12 0 14 -233017 -66577
0;
#X obj 84 357 cnv 1 1 5 empty empty empty 20 12 0 14 -233017 -66577
0;
#X obj 84 369 cnv 1 1 5 empty empty empty 20 12 0 14 -233017 -66577
0;
#X obj 194 35 cnv 15 55 70 empty empty empty 20 12 0 14 -191407 -66577
0;
#X obj 73 65 agop.device.selector \$0;
#X obj 195 65 agop.refresh.rate \$0;
#X obj 35 59 cnv 15 37 60 empty empty empty 20 12 0 14 -33289 -66577
0;
#X text 194 187 R;
#X text 194 196 X;
#X text 208 196 X;
#X text 208 187 T;
#X obj 236 183 agop.13.led \$0;
#X text 233 187 L;
#X obj 204 358 agop.power.led \$0;
#X text 201 362 PWR;
#X obj 23 303 agop.analog.pin \$0 16;
#X obj 23 317 agop.analog.pin \$0 17;
#X obj 23 331 agop.analog.pin \$0 18;
#X obj 23 345 agop.analog.pin \$0 19;
#X obj 23 359 agop.analog.pin \$0 20;
#X obj 23 373 agop.analog.pin \$0 21;
#X text 44 302 A0;
#X text 44 316 A1;
#X text 44 330 A2;
#X text 44 344 A3;
#X text 44 358 A4;
#X text 44 372 A5;
#X connect 2 0 11 0;
#X connect 7 0 5 0;
#X connect 7 1 6 0;
#X connect 8 0 7 0;
#X connect 9 0 3 0;
#X connect 10 0 4 0;
#X coords 0 -1 1 1 275 370 2 20 20;
