#N canvas 115 50 932 590 10;
#X obj 80 65 cnv 15 275 325 empty empty empty 20 12 0 14 -22189 -66577
0;
#X obj 400 61 inlet;
#X obj 79 533 outlet;
#X obj 209 543 outlet;
#X obj 402 474 s \$0.ARDUINO.OUT;
#X obj 509 474 s \$0.ARDUINO.INFO;
#X obj 402 314 r \$0.ARDUINO.TO;
#X obj 209 495 r \$0.ARDUINO.INFO;
#X obj 400 83 s \$0.ARDUINO.IN;
#X obj 332 346 includes/agop.digital.pin \$0 2;
#X obj 332 332 includes/agop.digital.pin \$0 3;
#X obj 332 318 includes/agop.digital.pin \$0 4;
#X obj 332 304 includes/agop.digital.pin \$0 5;
#X obj 332 290 includes/agop.digital.pin \$0 6;
#X obj 332 276 includes/agop.digital.pin \$0 7;
#X obj 332 255 includes/agop.digital.pin \$0 8;
#X obj 332 241 includes/agop.digital.pin \$0 9;
#X obj 332 227 includes/agop.digital.pin \$0 10;
#X obj 332 213 includes/agop.digital.pin \$0 11;
#X obj 332 199 includes/agop.digital.pin \$0 12;
#X obj 332 185 includes/agop.digital.pin \$0 13;
#X text 303 156 AREF;
#X text 309 170 GND;
#X text 315 359 TX;
#X text 315 373 RX;
#X obj 340 158 includes/agop.dummy.pin;
#X obj 340 171 includes/agop.dummy.pin;
#X obj 340 360 includes/agop.dummy.pin;
#X obj 83 277 includes/agop.dummy.pin;
#X obj 83 263 includes/agop.dummy.pin;
#X obj 83 249 includes/agop.dummy.pin;
#X obj 83 235 includes/agop.dummy.pin;
#X obj 83 221 includes/agop.dummy.pin;
#X obj 83 207 includes/agop.dummy.pin;
#X obj 270 183 includes/agop.tx.led \$0;
#X obj 257 183 includes/agop.rx.led \$0;
#X text 400 175 \$0.ARDUINO.OUT;
#X text 400 202 \$0.ARDUINO.INFO;
#X text 400 229 \$0.ARDUINO.INTERN;
#X text 400 148 \$0.ARDUINO.TO;
#X text 400 121 \$0.ARDUINO.IN;
#X text 518 230 <- GOP-internal Communication;
#X text 518 203 <- Arduino Status Messages (sent to outlet1);
#X text 518 175 <- Arduino Pin Messages (sent to outlet0);
#X text 518 120 <- external commands (modules are listening here);
#X text 518 148 <- Commands sent from modules -> [arduino];
#X obj 80 20 includes/agop.firmware.check \$0;
#X obj 146 206 cnv 15 28 175 empty empty empty 20 12 0 14 -66577 -66577
0;
#X text 96 206 RESET;
#X text 96 220 3v3;
#X text 96 234 5V;
#X text 96 248 GND;
#X text 96 262 GND;
#X text 96 276 Vin;
#X obj 175 213 cnv 1 1 5 empty empty empty 20 12 0 14 -233017 -66577
0;
#X obj 175 225 cnv 1 1 5 empty empty empty 20 12 0 14 -233017 -66577
0;
#X obj 175 237 cnv 1 1 5 empty empty empty 20 12 0 14 -233017 -66577
0;
#X obj 175 249 cnv 1 1 5 empty empty empty 20 12 0 14 -233017 -66577
0;
#X obj 175 261 cnv 1 1 5 empty empty empty 20 12 0 14 -233017 -66577
0;
#X obj 175 273 cnv 1 1 5 empty empty empty 20 12 0 14 -233017 -66577
0;
#X obj 175 285 cnv 1 1 5 empty empty empty 20 12 0 14 -233017 -66577
0;
#X obj 175 297 cnv 1 1 5 empty empty empty 20 12 0 14 -233017 -66577
0;
#X obj 175 309 cnv 1 1 5 empty empty empty 20 12 0 14 -233017 -66577
0;
#X obj 175 321 cnv 1 1 5 empty empty empty 20 12 0 14 -233017 -66577
0;
#X obj 175 333 cnv 1 1 5 empty empty empty 20 12 0 14 -233017 -66577
0;
#X obj 175 345 cnv 1 1 5 empty empty empty 20 12 0 14 -233017 -66577
0;
#X obj 175 357 cnv 1 1 5 empty empty empty 20 12 0 14 -233017 -66577
0;
#X obj 175 369 cnv 1 1 5 empty empty empty 20 12 0 14 -233017 -66577
0;
#X obj 144 213 cnv 1 1 5 empty empty empty 20 12 0 14 -233017 -66577
0;
#X obj 144 225 cnv 1 1 5 empty empty empty 20 12 0 14 -233017 -66577
0;
#X obj 144 237 cnv 1 1 5 empty empty empty 20 12 0 14 -233017 -66577
0;
#X obj 144 249 cnv 1 1 5 empty empty empty 20 12 0 14 -233017 -66577
0;
#X obj 144 261 cnv 1 1 5 empty empty empty 20 12 0 14 -233017 -66577
0;
#X obj 144 273 cnv 1 1 5 empty empty empty 20 12 0 14 -233017 -66577
0;
#X obj 144 285 cnv 1 1 5 empty empty empty 20 12 0 14 -233017 -66577
0;
#X obj 144 297 cnv 1 1 5 empty empty empty 20 12 0 14 -233017 -66577
0;
#X obj 144 309 cnv 1 1 5 empty empty empty 20 12 0 14 -233017 -66577
0;
#X obj 144 321 cnv 1 1 5 empty empty empty 20 12 0 14 -233017 -66577
0;
#X obj 144 333 cnv 1 1 5 empty empty empty 20 12 0 14 -233017 -66577
0;
#X obj 144 345 cnv 1 1 5 empty empty empty 20 12 0 14 -233017 -66577
0;
#X obj 144 357 cnv 1 1 5 empty empty empty 20 12 0 14 -233017 -66577
0;
#X obj 144 369 cnv 1 1 5 empty empty empty 20 12 0 14 -233017 -66577
0;
#X obj 254 35 cnv 15 55 70 empty empty empty 20 12 0 14 -191407 -66577
0;
#X obj 133 65 includes/agop.device.selector \$0;
#X obj 255 65 includes/agop.refresh.rate \$0;
#X obj 95 59 cnv 15 37 60 empty empty empty 20 12 0 14 -33289 -66577
0;
#X text 254 187 R;
#X text 254 196 X;
#X text 268 196 X;
#X text 268 187 T;
#X obj 296 183 includes/agop.13.led \$0;
#X text 293 187 L;
#X obj 264 358 includes/agop.power.led \$0;
#X text 261 362 PWR;
#X obj 83 303 includes/agop.analog.pin \$0 0;
#X obj 83 317 includes/agop.analog.pin \$0 1;
#X obj 83 331 includes/agop.analog.pin \$0 2;
#X obj 83 345 includes/agop.analog.pin \$0 3;
#X obj 83 359 includes/agop.analog.pin \$0 4;
#X obj 83 373 includes/agop.analog.pin \$0 5;
#X text 104 302 A0;
#X text 104 316 A1;
#X text 104 330 A2;
#X text 104 344 A3;
#X text 104 358 A4;
#X text 104 372 A5;
#X text 309 240 PWM;
#X text 309 212 PWM;
#X text 309 289 PWM;
#X text 309 226 PWM;
#X text 309 303 PWM;
#X text 309 331 PWM;
#X obj 80 20 cnv 1 7 1 empty empty empty 20 12 0 14 -1 -66577 0;
#X obj 80 389 cnv 1 7 1 empty empty empty 20 12 0 14 -1 -66577 0;
#X obj 348 389 cnv 1 7 1 empty empty empty 20 12 0 14 -1 -66577 0;
#X obj 348 455 outlet;
#X obj 214 389 cnv 1 7 1 empty empty empty 20 12 0 14 -1 -66577 0;
#X obj 79 490 r \$0.ARDUINO.OUT;
#N canvas 919 311 412 218 supported.pin.modes.matrix 0;
#X obj 30 93 tgl 15 0 empty empty O 3 7 0 10 -262144 -1 -1 0 1;
#X obj 49 93 tgl 15 0 empty empty I 3 7 0 10 -262144 -1 -1 0 1;
#X obj 68 93 tgl 15 0 empty empty P 3 7 0 10 -262144 -1 -1 0 1;
#X obj 87 93 tgl 15 0 empty empty S 3 7 0 10 -262144 -1 -1 0 1;
#N canvas 1106 233 363 312 bitmask 0;
#X obj 55 58 << 1;
#X obj 145 59 << 3;
#X obj 40 117 +;
#X obj 40 148 +;
#X obj 40 177 +;
#X obj 55 80 t b a;
#X obj 98 106 t b a;
#X obj 145 136 t b a;
#X obj 13 23 inlet;
#X obj 55 24 inlet;
#X obj 98 24 inlet;
#X obj 145 24 inlet;
#X obj 40 239 outlet;
#X obj 98 60 << 2;
#X obj 193 169 t b a;
#X obj 193 24 inlet;
#X obj 193 59 << 4;
#X obj 40 209 +;
#X connect 0 0 5 0;
#X connect 1 0 7 0;
#X connect 2 0 3 0;
#X connect 3 0 4 0;
#X connect 4 0 17 0;
#X connect 5 0 2 0;
#X connect 5 1 2 1;
#X connect 6 0 3 0;
#X connect 6 1 3 1;
#X connect 7 0 4 0;
#X connect 7 1 4 1;
#X connect 8 0 2 0;
#X connect 9 0 0 0;
#X connect 10 0 13 0;
#X connect 11 0 1 0;
#X connect 13 0 6 0;
#X connect 14 0 17 0;
#X connect 14 1 17 1;
#X connect 15 0 16 0;
#X connect 16 0 14 0;
#X connect 17 0 12 0;
#X restore 30 113 pd bitmask;
#N canvas 0 50 450 300 (subpatch) 0;
#X array \$0.ARDUINO.PIN.MODES 128 float 3;
#A 0 0 0 11 15 11 15 15 11 11 15 15 15 11 11 19 19 19 19 19 19 0 0
0 0 0 0 0 0 0 0 0 0 0 0 0 0 0 0 0 0 0 0 0 0 0 0 0 0 0 0 0 0 0 0 0 0
0 0 0 0 0 0 0 0 0 0 0 0 0 0 0 0 0 0 0 0 0 0 0 0 0 0 0 0 0 0 0 0 0 0
0 0 0 0 0 0 0 0 0 0 0 0 0 0 0 0 0 0 0 0 0 0 0 0 0 0 0 0 0 0 0 0 0 0
0 0 0 0;
#X coords 0 32 128 0 256 32 1 0 0;
#X restore 18 26 graph;
#X obj 30 166 tabwrite \$0.ARDUINO.PIN.MODES;
#X floatatom 192 97 5 0 0 0 - - -, f 5;
#X text 229 98 Pin no.;
#X floatatom 30 138 5 0 0 0 - - -, f 5;
#X obj 106 93 tgl 15 0 empty empty A 3 7 0 10 -262144 -1 -1 0 1;
#X connect 0 0 4 0;
#X connect 1 0 4 1;
#X connect 2 0 4 2;
#X connect 3 0 4 3;
#X connect 4 0 9 0;
#X connect 7 0 6 1;
#X connect 9 0 6 0;
#X connect 10 0 4 4;
#X restore 638 382 pd supported.pin.modes.matrix;
#X obj 340 374 includes/agop.message.recorder \$0;
#X obj 507 314 r \$0.ARDUINO.IN;
#X obj 507 343 r \$0.ARDUINO.INTERN;
#X obj 402 376 spigot 1;
#X obj 397 407 cnv 25 75 25 empty empty empty 20 12 0 14 -203904 -66577
0;
#X obj 272 113 cnv 15 18 48 empty empty empty 20 12 0 14 -66577 -66577
0;
#X obj 292 116 cnv 1 6 1 empty empty empty 20 12 0 14 -233017 -66577
0;
#X obj 292 119 cnv 1 6 1 empty empty empty 20 12 0 14 -233017 -66577
0;
#X obj 292 122 cnv 1 6 1 empty empty empty 20 12 0 14 -233017 -66577
0;
#X obj 292 125 cnv 1 6 1 empty empty empty 20 12 0 14 -233017 -66577
0;
#X obj 292 128 cnv 1 6 1 empty empty empty 20 12 0 14 -233017 -66577
0;
#X obj 292 131 cnv 1 6 1 empty empty empty 20 12 0 14 -233017 -66577
0;
#X obj 292 134 cnv 1 6 1 empty empty empty 20 12 0 14 -233017 -66577
0;
#X obj 292 137 cnv 1 6 1 empty empty empty 20 12 0 14 -233017 -66577
0;
#X obj 292 140 cnv 1 6 1 empty empty empty 20 12 0 14 -233017 -66577
0;
#X obj 292 143 cnv 1 6 1 empty empty empty 20 12 0 14 -233017 -66577
0;
#X obj 292 146 cnv 1 6 1 empty empty empty 20 12 0 14 -233017 -66577
0;
#X obj 292 149 cnv 1 6 1 empty empty empty 20 12 0 14 -233017 -66577
0;
#X obj 265 116 cnv 1 6 1 empty empty empty 20 12 0 14 -233017 -66577
0;
#X obj 265 119 cnv 1 6 1 empty empty empty 20 12 0 14 -233017 -66577
0;
#X obj 265 122 cnv 1 6 1 empty empty empty 20 12 0 14 -233017 -66577
0;
#X obj 265 125 cnv 1 6 1 empty empty empty 20 12 0 14 -233017 -66577
0;
#X obj 265 128 cnv 1 6 1 empty empty empty 20 12 0 14 -233017 -66577
0;
#X obj 265 131 cnv 1 6 1 empty empty empty 20 12 0 14 -233017 -66577
0;
#X obj 265 134 cnv 1 6 1 empty empty empty 20 12 0 14 -233017 -66577
0;
#X obj 265 137 cnv 1 6 1 empty empty empty 20 12 0 14 -233017 -66577
0;
#X obj 265 140 cnv 1 6 1 empty empty empty 20 12 0 14 -233017 -66577
0;
#X obj 265 143 cnv 1 6 1 empty empty empty 20 12 0 14 -233017 -66577
0;
#X obj 265 146 cnv 1 6 1 empty empty empty 20 12 0 14 -233017 -66577
0;
#X obj 265 149 cnv 1 6 1 empty empty empty 20 12 0 14 -233017 -66577
0;
#X obj 292 152 cnv 1 6 1 empty empty empty 20 12 0 14 -233017 -66577
0;
#X obj 292 155 cnv 1 6 1 empty empty empty 20 12 0 14 -233017 -66577
0;
#X obj 265 152 cnv 1 6 1 empty empty empty 20 12 0 14 -233017 -66577
0;
#X obj 265 155 cnv 1 6 1 empty empty empty 20 12 0 14 -233017 -66577
0;
#X obj 292 158 cnv 1 6 1 empty empty empty 20 12 0 14 -233017 -66577
0;
#X obj 265 158 cnv 1 6 1 empty empty empty 20 12 0 14 -233017 -66577
0;
#X obj 255 92 includes/agop.sample.rate \$0;
#X obj 402 411 arduino \$1;
#N canvas 1004 185 333 283 DEBUG 0;
#X obj 13 76 r \$0.ARDUINO.IN;
#X obj 13 96 spigot;
#X obj 13 116 print IN;
#X obj 12 18 inlet;
#X obj 12 38 s \$0.debug;
#X obj 58 96 r \$0.debug;
#X obj 13 159 spigot;
#X obj 58 159 r \$0.debug;
#X obj 13 139 r \$0.ARDUINO.TO;
#X obj 13 179 print TO;
#X obj 13 223 spigot;
#X obj 58 223 r \$0.debug;
#X obj 13 203 r \$0.ARDUINO.OUT;
#X obj 13 243 print OUT;
#X obj 173 96 spigot;
#X obj 218 96 r \$0.debug;
#X obj 173 76 r \$0.ARDUINO.INFO;
#X obj 173 116 print INFO;
#X obj 175 191 spigot;
#X obj 220 191 r \$0.debug;
#X obj 173 140 r \$0.ARDUINO.INTERN;
#X obj 175 211 print INTERN;
#X obj 173 160 route refresh;
#X connect 0 0 1 0;
#X connect 1 0 2 0;
#X connect 3 0 4 0;
#X connect 5 0 1 1;
#X connect 6 0 9 0;
#X connect 7 0 6 1;
#X connect 8 0 6 0;
#X connect 10 0 13 0;
#X connect 11 0 10 1;
#X connect 12 0 10 0;
#X connect 14 0 17 0;
#X connect 15 0 14 1;
#X connect 16 0 14 0;
#X connect 18 0 21 0;
#X connect 19 0 18 1;
#X connect 20 0 22 0;
#X connect 22 1 18 0;
#X restore 678 464 pd DEBUG;
#X obj 678 441 tgl 15 0 empty empty empty 17 7 0 10 -262144 -1 -1 0
1;
#X text 700 440 enable debug prints;
#N canvas 80 50 344 496 CAPABILITY 0;
#X obj 15 14 r \$0.ARDUINO.INTERN;
#X obj 15 34 route ready emulate;
#X obj 70 59 == 0;
#X obj 15 77 spigot 1;
#X obj 15 97 sel 1;
#X msg 15 179 capability;
#X obj 15 199 s \$0.ARDUINO.TO;
#X obj 14 219 r \$0.ARDUINO.INFO;
#X obj 14 239 route capability;
#X obj 14 380 s \$0.ARDUINO.INTERN;
#X obj 14 260 route end begin;
#X msg 14 359 internal_request 0;
#X obj 15 117 t b b;
#X obj 42 158 s \$0.ARDUINO.INTERN;
#X msg 42 137 internal_request 1;
#X obj 15 455 table \$0.PINMODE.MATRIX 256;
#N canvas 0 87 288 315 write.to.matrix 0;
#X obj 16 24 inlet;
#X obj 16 254 s \$0.PINMODE.MATRIX;
#X obj 43 180 tabread \$0.PINMODE.MATRIX;
#X obj 16 48 unpack f s f;
#N canvas 436 229 732 217 convert_symbolic_to_numeric 0;
#X obj 10 12 inlet;
#X msg 10 112 0;
#X msg 79 112 1;
#X msg 148 112 2;
#X msg 217 112 3;
#X msg 286 112 4;
#X msg 355 112 5;
#X msg 406 112 6;
#X msg 457 112 7;
#X msg 508 112 8;
#X msg 559 112 9;
#X obj 355 79 select SHIFT I2C ONEWIRE STEPPER ENCODER SERIAL INPUT_PULLUP
;
#X obj 10 55 select DIGITAL_INPUT DIGITAL_OUTPUT ANALOG_INPUT PWM SERVO
;
#X msg 610 112 10;
#X msg 661 112 11;
#X obj 10 186 outlet;
#X connect 0 0 12 0;
#X connect 1 0 15 0;
#X connect 2 0 15 0;
#X connect 3 0 15 0;
#X connect 4 0 15 0;
#X connect 5 0 15 0;
#X connect 6 0 15 0;
#X connect 7 0 15 0;
#X connect 8 0 15 0;
#X connect 9 0 15 0;
#X connect 10 0 15 0;
#X connect 11 0 6 0;
#X connect 11 1 7 0;
#X connect 11 2 8 0;
#X connect 11 3 9 0;
#X connect 11 4 10 0;
#X connect 11 5 13 0;
#X connect 11 6 14 0;
#X connect 12 0 1 0;
#X connect 12 1 2 0;
#X connect 12 2 3 0;
#X connect 12 3 4 0;
#X connect 12 4 5 0;
#X connect 12 5 11 0;
#X connect 13 0 15 0;
#X connect 14 0 15 0;
#X restore 50 79 pd convert_symbolic_to_numeric;
#X obj 16 161 t a a;
#X obj 50 138 <<;
#X msg 50 119 1;
#X obj 50 99 t b a;
#X text 91 124 << bitshift;
#X obj 16 231 pack f f;
#X obj 43 201 |;
#X connect 0 0 3 0;
#X connect 2 0 11 0;
#X connect 3 0 5 0;
#X connect 3 1 4 0;
#X connect 4 0 8 0;
#X connect 5 0 10 0;
#X connect 5 1 2 0;
#X connect 6 0 11 1;
#X connect 7 0 6 0;
#X connect 8 0 7 0;
#X connect 8 1 6 1;
#X connect 10 0 1 0;
#X connect 11 0 10 1;
#X restore 101 289 pd write.to.matrix;
#X msg 57 315 const 0;
#X obj 57 335 s \$0.PINMODE.MATRIX;
#X connect 0 0 1 0;
#X connect 1 0 3 0;
#X connect 1 1 2 0;
#X connect 2 0 3 1;
#X connect 3 0 4 0;
#X connect 4 0 12 0;
#X connect 5 0 6 0;
#X connect 7 0 8 0;
#X connect 8 0 10 0;
#X connect 10 0 11 0;
#X connect 10 1 17 0;
#X connect 10 2 16 0;
#X connect 11 0 9 0;
#X connect 12 0 5 0;
#X connect 12 1 14 0;
#X connect 14 0 13 0;
#X connect 17 0 18 0;
#X restore 693 284 pd CAPABILITY query;
#X obj 507 386 == 0;
#X obj 507 366 route emulate;
#X obj 174 419 r \$0.ARDUINO.INTERN;
#X obj 174 462 ==;
#X obj 174 441 route internal_request;
#X obj 79 510 spigot 1;
#X obj 209 518 spigot 1;
#N canvas 0 50 352 467 ANALOG_MAPPING 0;
#X obj 15 14 r \$0.ARDUINO.INTERN;
#X obj 15 34 route ready emulate;
#X obj 70 59 == 0;
#X obj 15 77 spigot 1;
#X obj 15 97 sel 1;
#X obj 15 199 s \$0.ARDUINO.TO;
#X obj 14 219 r \$0.ARDUINO.INFO;
#X obj 15 117 t b b;
#X obj 42 158 s \$0.ARDUINO.INTERN;
#X msg 42 137 internal_request 1;
#X msg 15 179 analogMapping;
#X obj 14 238 route analogMapping;
#X obj 14 258 route end begin;
#X obj 14 398 s \$0.ARDUINO.INTERN;
#X msg 14 377 internal_request 0;
#X msg 57 317 const 0;
#X obj 13 429 table \$0.DIGITAL.ANALOG.MAPPING 256;
#X obj 13 448 table \$0.ANALOG.DIGITAL.MAPPING 256;
#X obj 77 338 s \$0.DIGITAL.ANALOG.MAPPING;
#X obj 57 358 s \$0.ANALOG.DIGITAL.MAPPING;
#X obj 119 318 s \$0.DIGITAL.ANALOG.MAPPING;
#X obj 168 299 s \$0.ANALOG.DIGITAL.MAPPING;
#X msg 119 299 \$2 \$1;
#X obj 119 278 t a a;
#X connect 0 0 1 0;
#X connect 1 0 3 0;
#X connect 1 1 2 0;
#X connect 2 0 3 1;
#X connect 3 0 4 0;
#X connect 4 0 7 0;
#X connect 6 0 11 0;
#X connect 7 0 10 0;
#X connect 7 1 9 0;
#X connect 9 0 8 0;
#X connect 10 0 5 0;
#X connect 11 0 12 0;
#X connect 12 0 14 0;
#X connect 12 1 15 0;
#X connect 12 2 23 0;
#X connect 14 0 13 0;
#X connect 15 0 18 0;
#X connect 15 0 19 0;
#X connect 22 0 20 0;
#X connect 23 0 22 0;
#X connect 23 1 21 0;
#X restore 693 306 pd ANALOG_MAPPING query;
#X text 636 545 Authors: Roman Haefeli & Olsen Wolf;
#N canvas 755 50 484 419 PIN_ALIAS_MAPPING 0;
#X text 18 21 Some boards like the Arduino Leonard report more pin
than they physically have. This is a hand-crafted (a.k.a hard-coded)
table that maps aliases to physical pins.;
#X obj 19 82 loadbang;
#X msg 19 105 4 24 \, 6 25 \, 8 26 \, 9 27 \, 10 28 \, 12 29;
#X floatatom 22 279 5 0 0 0 - - -, f 5;
#X floatatom 22 318 5 0 0 0 - - -, f 5;
#X obj 22 340 tabread \$0.DIGITAL.ANALOG.MAPPING;
#X floatatom 22 360 5 0 0 0 - - -, f 5;
#X obj 19 125 t a a;
#X obj 46 147 s \$0.PIN.ALIAS.MAPPING;
#X msg 19 165 \$2 \$1;
#X obj 19 186 s \$0.ALIAS.PIN.MAPPING;
#X obj 12 225 table \$0.PIN.ALIAS.MAPPING 256;
#X obj 12 243 table \$0.ALIAS.PIN.MAPPING 256;
#X text 61 277 physical pin;
#X text 64 318 alias;
#X text 64 359 analog #;
#X obj 22 296 tabread \$0.PIN.ALIAS.MAPPING;
#X floatatom 242 279 5 0 0 0 - - -, f 5;
#X floatatom 242 318 5 0 0 0 - - -, f 5;
#X floatatom 242 360 5 0 0 0 - - -, f 5;
#X text 284 318 alias;
#X obj 242 296 tabread \$0.ANALOG.DIGITAL.MAPPING;
#X obj 242 340 tabread \$0.ALIAS.PIN.MAPPING;
#X text 282 277 analog;
#X text 284 359 physical;
#X connect 1 0 2 0;
#X connect 2 0 7 0;
#X connect 3 0 16 0;
#X connect 4 0 5 0;
#X connect 5 0 6 0;
#X connect 7 0 9 0;
#X connect 7 1 8 0;
#X connect 9 0 10 0;
#X connect 16 0 4 0;
#X connect 17 0 21 0;
#X connect 18 0 22 0;
#X connect 21 0 18 0;
#X connect 22 0 19 0;
#X restore 693 327 pd PIN_ALIAS_MAPPING;
#X text 628 363 <old hard-coded capability matrix>;
#X text 629 400 <we don't need to support this anymore>;
#X connect 1 0 8 0;
#X connect 6 0 122 0;
#X connect 7 0 167 0;
#X connect 117 0 166 0;
#X connect 119 0 115 0;
#X connect 120 0 122 0;
#X connect 121 0 162 0;
#X connect 122 0 156 0;
#X connect 156 0 4 0;
#X connect 156 1 5 0;
#X connect 158 0 157 0;
#X connect 161 0 122 1;
#X connect 162 0 161 0;
#X connect 163 0 165 0;
#X connect 164 0 166 1;
#X connect 164 0 167 1;
#X connect 165 0 164 0;
#X connect 166 0 2 0;
#X connect 167 0 3 0;
#X coords 0 -1 1 1 275 370 2 80 20;
