#N canvas 216 76 703 544 10;
#X obj 512 7 import hardware mapping;
#X obj 323 136 cnv 15 100 22 empty empty empty 20 12 0 14 -253938 -66577
0;
#X obj 73 165 cnv 15 70 22 empty empty empty 20 12 0 14 -253938 -66577
0;
#X obj 155 190 cnv 15 60 22 empty empty empty 20 12 0 14 -253938 -66577
0;
#X msg 161 192 open 1;
#N canvas 627 365 360 384 serin 0;
#X obj 180 61 cnv 15 15 15 empty \$0-number-canvas 1 4 8 0 14 -233017
-1 0;
#X obj 200 225 s \$0-number-canvas;
#X obj 60 61 hradio 15 1 1 8 empty empty empty 0 -6 0 8 -225271 -1
-1 1;
#X obj 60 13 inlet;
#X msg 200 202 label \$1;
#X obj 200 180 makefilename %d;
#X obj 59 108 int;
#X msg 59 206 open \$1;
#X obj 59 337 outlet;
#X msg 201 306 set \$1 \$2;
#X obj 59 266 trigger bang anything;
#X obj 201 286 list;
#X connect 2 0 6 0;
#X connect 3 0 2 0;
#X connect 4 0 1 0;
#X connect 5 0 4 0;
#X connect 6 0 5 0;
#X connect 6 0 7 0;
#X connect 7 0 10 0;
#X connect 9 0 8 0;
#X connect 10 0 8 0;
#X connect 10 1 11 0;
#X connect 11 0 9 0;
#X coords 0 -1 1 1 136 17 1 60 60;
#X restore 161 169 pd serin;
#X text 158 151 serial port #;
#X text 418 514 released under the GNU GPL;
#X text 2 514 (C) Copyright 2006 Hans-Christoph Steiner <hans@at.or.at>
;
#X msg 221 192 close;
#X obj 581 328 tgl 15 0 empty empty changes 0 -6 0 8 -262144 -1 -1
0 1;
#X obj 520 328 tgl 15 0 empty empty all 0 -6 0 8 -262144 -1 -1 0 1
;
#X obj 138 119 hsl 150 17 0 1 0 0 empty empty PWM_control_(0-1) -2
-6 1 10 -225271 -1 -1 8800 0;
#X obj 277 332 tgl 15 1 empty empty empty 0 -6 0 8 -225271 -1 -1 0
1;
#X text 454 156 how many analogIns to enable:;
#X obj 455 217 tgl 15 1 empty empty empty 0 -6 0 8 -257472 -1 -1 0
1;
#X text 478 216 enable/disable digitalIns;
#X msg 455 235 digitalIns \$1;
#X msg 455 193 analogIns 0;
#N canvas 162 133 570 420 serin 0;
#X obj 165 61 cnv 15 15 15 empty \$0-analog-number-canvas 0 4 8 0 14
-233017 -1 0;
#X obj 60 61 hradio 15 1 1 7 empty empty empty 0 -6 0 8 -225280 -1
-1 0;
#X obj 60 13 inlet;
#X msg 200 202 label \$1;
#X obj 200 180 makefilename %d;
#X obj 59 108 int;
#X obj 200 225 send \$0-analog-number-canvas;
#X obj 59 337 outlet;
#X msg 60 210 analogIns \$1;
#X msg 201 306 set \$1 \$2;
#X obj 59 266 trigger bang anything;
#X obj 201 286 list;
#X connect 1 0 5 0;
#X connect 2 0 1 0;
#X connect 3 0 6 0;
#X connect 4 0 3 0;
#X connect 5 0 4 0;
#X connect 5 0 8 0;
#X connect 8 0 10 0;
#X connect 9 0 7 0;
#X connect 10 0 7 0;
#X connect 10 1 11 0;
#X connect 11 0 9 0;
#X coords 0 -1 1 1 121 17 1 60 60;
#X restore 455 173 pd serin;
#N canvas 77 268 478 328 debugging 0;
#X obj 136 31 inlet;
#X obj 324 29 inlet;
#X obj 27 31 inlet;
#X obj 162 81 spigot;
#X obj 159 106 select 255;
#X obj 184 246 print;
#X obj 184 227 list;
#X obj 43 115 spigot;
#X obj 210 201 bang;
#X obj 181 138 mapping/tolist;
#X obj 208 181 change;
#X obj 208 159 list-abs/list-len;
#X obj 43 136 print DEBUG;
#N canvas 146 22 466 316 DEBUG 0;
#X msg 142 19 open 1;
#X msg 200 20 close;
#X msg 52 82 pinMode 13 1;
#X msg 15 137 digital 13 \$1;
#X obj 15 119 tgl 15 0 empty empty empty 0 -6 0 8 -262144 -1 -1 0 1
;
#X msg 271 93 213;
#X obj 289 123 tgl 15 0 empty empty empty 0 -6 0 8 -262144 -1 -1 0
127;
#X floatatom 309 123 5 0 0 0 - - -;
#X msg 250 63 150 \, 160;
#X text 311 62 turn off input;
#X msg 284 145 229 \, \$1 \, \$1;
#X msg 318 249 64;
#X msg 304 180 229 \, 127 \, 127;
#X msg 304 210 229 \, 0 \, 0;
#X obj 193 267 arduino 1;
#X connect 0 0 14 0;
#X connect 1 0 14 0;
#X connect 2 0 14 0;
#X connect 3 0 14 0;
#X connect 4 0 3 0;
#X connect 5 0 14 1;
#X connect 6 0 10 0;
#X connect 6 0 7 0;
#X connect 8 0 14 1;
#X connect 10 0 14 1;
#X connect 11 0 14 1;
#X connect 12 0 14 1;
#X connect 13 0 14 1;
#X restore 363 269 pd DEBUG;
#X connect 0 0 7 1;
#X connect 1 0 3 1;
#X connect 2 0 7 0;
#X connect 2 0 3 0;
#X connect 3 0 4 0;
#X connect 4 0 9 1;
#X connect 4 1 9 0;
#X connect 6 0 5 0;
#X connect 7 0 12 0;
#X connect 8 0 6 0;
#X connect 9 0 6 1;
#X connect 9 0 11 0;
#X connect 10 0 8 0;
#X connect 11 0 10 0;
#X restore 460 346 pd debugging stuff;
#X floatatom 22 446 5 0 0 3 a0 - -;
#X floatatom 68 446 5 0 0 3 a1 - -;
#X floatatom 114 446 5 0 0 3 a2 - -;
#X floatatom 160 446 5 0 0 3 a3 - -;
#X floatatom 206 446 5 0 0 3 a4 - -;
#X floatatom 252 446 5 0 0 3 a5 - -;
#X text 300 311 <- argument sets port #;
#X msg 102 119 off;
#X obj 80 91 hradio 15 1 0 14 empty empty empty 0 -6 0 8 -176124 -1
-1 11;
#X text 188 77 7;
#X text 82 77 0;
#X text 229 77 10;
#X text 275 77 13;
#X text 142 77 4;
#X text 111 77 2;
#X text 156 77 5;
#X text 171 77 6;
#X text 127 77 3;
#X text 202 77 8;
#X text 219 77 9;
#X text 245 77 11;
#X text 260 77 12;
#X text 97 77 1;
#N canvas 66 58 419 499 pwm 0;
#X obj 38 10 inlet;
#X obj 131 10 inlet;
#X msg 37 308 pwm \$1 \$2;
#X obj 38 259 pack float float;
#X obj 192 113 route float symbol;
#X obj 188 259 pack float symbol;
#X text 78 11 pin#;
#X text 179 10 PWM value or "off";
#X obj 39 217 cyclone/gate 2;
#X msg 191 153 1;
#X msg 252 153 2;
#X obj 131 34 list;
#X obj 131 113 float;
#X obj 131 67 trigger bang anything;
#X obj 37 427 outlet;
#X obj 37 356 trigger bang anything;
#X obj 179 376 list;
#X msg 179 396 set \$1 \$2 \$3;
#X connect 0 0 12 0;
#X connect 1 0 11 0;
#X connect 2 0 15 0;
#X connect 3 0 2 0;
#X connect 4 0 9 0;
#X connect 4 0 3 1;
#X connect 4 1 10 0;
#X connect 4 1 5 1;
#X connect 5 0 2 0;
#X connect 8 0 3 0;
#X connect 8 1 5 0;
#X connect 9 0 8 0;
#X connect 10 0 8 0;
#X connect 11 0 13 0;
#X connect 12 0 8 1;
#X connect 13 0 12 0;
#X connect 13 1 4 0;
#X connect 15 0 14 0;
#X connect 15 1 16 0;
#X connect 16 0 17 0;
#X connect 17 0 14 0;
#X restore 81 145 pd pwm;
#X msg 81 167 pwm 11 0.590604;
#X msg 328 195 info;
#X msg 367 195 version;
#X obj 468 422 print [arduino]_VERSION;
#X obj 230 332 spigot;
#X text 13 6 The [arduino] object works with the Firmata firmware for
Arduino (previously known as Pduino firmware).;
#X obj 347 97 tgl 15 0 empty empty 1 3 -6 1 12 -260818 -1 -1 0 1;
#X obj 365 97 tgl 15 0 empty empty 2 3 -6 1 12 -260818 -1 -1 0 1;
#X obj 383 97 tgl 15 0 empty empty 3 3 -6 1 12 -260818 -1 -1 0 1;
#X obj 401 97 tgl 15 0 empty empty 4 3 -6 1 12 -260818 -1 -1 0 1;
#X obj 419 97 tgl 15 0 empty empty 5 3 -6 1 12 -260818 -1 -1 0 1;
#X obj 437 97 tgl 15 0 empty empty 6 3 -6 1 12 -260818 -1 -1 0 1;
#X obj 455 97 tgl 15 0 empty empty 7 3 -6 1 12 -260818 -1 -1 0 1;
#X obj 473 97 tgl 15 0 empty empty 8 3 -6 1 12 -260818 -1 -1 0 1;
#X obj 491 97 tgl 15 0 empty empty 9 3 -6 1 12 -260818 -1 -1 0 1;
#X obj 509 97 tgl 15 0 empty empty 10 0 -6 1 12 -260818 -1 -1 0 1;
#X obj 527 97 tgl 15 0 empty empty 11 0 -6 1 12 -260818 -1 -1 0 1;
#X obj 545 97 tgl 15 0 empty empty 12 0 -6 1 12 -260818 -1 -1 0 1;
#X obj 563 97 tgl 15 0 empty empty 13 0 -6 1 12 -260818 -1 -1 0 1;
#X obj 329 97 tgl 15 0 empty empty 0 3 -6 1 12 -260818 -1 -1 0 1;
#N canvas 518 328 766 316 send-to-arduino---------------- 0;
#X obj 49 24 inlet;
#X obj 89 24 inlet;
#X obj 128 24 inlet;
#X obj 168 24 inlet;
#X obj 208 24 inlet;
#X obj 248 24 inlet;
#X obj 287 24 inlet;
#X obj 327 24 inlet;
#X obj 368 23 inlet;
#X obj 408 23 inlet;
#X obj 447 23 inlet;
#X obj 487 23 inlet;
#X obj 527 23 inlet;
#X msg 49 66 pinMode 0 \$1;
#X msg 89 88 pinMode 1 \$1;
#X msg 128 110 pinMode 2 \$1;
#X msg 168 130 pinMode 3 \$1;
#X msg 208 62 pinMode 4 \$1;
#X msg 248 84 pinMode 5 \$1;
#X msg 287 106 pinMode 6 \$1;
#X msg 327 126 pinMode 7 \$1;
#X msg 368 58 pinMode 8 \$1;
#X msg 408 80 pinMode 9 \$1;
#X msg 447 102 pinMode 10 \$1;
#X msg 487 122 pinMode 11 \$1;
#X msg 527 50 pinMode 12 \$1;
#X obj 566 23 inlet;
#X msg 566 70 pinMode 13 \$1;
#X obj 305 196 prepend set;
#X obj 305 254 outlet;
#X obj 305 215 trigger bang anything;
#X connect 0 0 13 0;
#X connect 1 0 14 0;
#X connect 2 0 15 0;
#X connect 3 0 16 0;
#X connect 4 0 17 0;
#X connect 5 0 18 0;
#X connect 6 0 19 0;
#X connect 7 0 20 0;
#X connect 8 0 21 0;
#X connect 9 0 22 0;
#X connect 10 0 23 0;
#X connect 11 0 24 0;
#X connect 12 0 25 0;
#X connect 13 0 28 0;
#X connect 14 0 28 0;
#X connect 15 0 28 0;
#X connect 16 0 28 0;
#X connect 17 0 28 0;
#X connect 18 0 28 0;
#X connect 19 0 28 0;
#X connect 20 0 28 0;
#X connect 21 0 28 0;
#X connect 22 0 28 0;
#X connect 23 0 28 0;
#X connect 24 0 28 0;
#X connect 25 0 28 0;
#X connect 26 0 27 0;
#X connect 27 0 28 0;
#X connect 28 0 30 0;
#X connect 30 0 29 0;
#X connect 30 1 29 0;
#X restore 329 116 pd send-to-arduino----------------;
#X text 328 64 turn on output mode for each pin (off=input);
#X msg 329 138 pinMode 13 0;
#N canvas 101 54 455 332 sending 0;
#X obj 69 158 cnv 15 100 22 empty empty empty 20 12 0 14 -253938 -66577
0;
#X obj 78 244 outlet;
#X msg 78 161 digital 0 0;
#X obj 197 98 tgl 15 0 empty empty 7 4 -6 1 12 -233017 -1 -1 0 1;
#X obj 214 98 tgl 15 0 empty empty 8 4 -6 1 12 -233017 -1 -1 0 1;
#X obj 231 98 tgl 15 0 empty empty 9 4 -6 1 12 -233017 -1 -1 0 1;
#X obj 248 98 tgl 15 0 empty empty 10 0 -6 1 12 -233017 -1 -1 0 1;
#X obj 265 98 tgl 15 0 empty empty 11 0 -6 1 12 -233017 -1 -1 0 1;
#X obj 282 98 tgl 15 0 empty empty 12 0 -6 1 12 -233017 -1 -1 0 1;
#X obj 299 98 tgl 15 0 empty empty 13 0 -6 1 12 -233017 -1 -1 0 1;
#X obj 78 98 tgl 15 0 empty empty 0 4 -6 1 12 -233017 -1 -1 0 1;
#X obj 95 98 tgl 15 0 empty empty 1 4 -6 1 12 -233017 -1 -1 0 1;
#X obj 112 98 tgl 15 0 empty empty 2 4 -6 1 12 -233017 -1 -1 0 1;
#X obj 129 98 tgl 15 0 empty empty 3 4 -6 1 12 -233017 -1 -1 0 1;
#X obj 146 98 tgl 15 0 empty empty 5 4 -6 1 12 -233017 -1 -1 0 1;
#X obj 163 98 tgl 15 0 empty empty 6 4 -6 1 12 -233017 -1 -1 0 1;
#X obj 180 98 tgl 15 0 empty empty 7 4 -6 1 12 -233017 -1 -1 0 1;
#N canvas 486 328 798 348 generate 0;
#X obj 49 24 inlet;
#X obj 89 24 inlet;
#X obj 128 24 inlet;
#X obj 168 24 inlet;
#X obj 208 24 inlet;
#X obj 248 24 inlet;
#X obj 287 24 inlet;
#X obj 327 24 inlet;
#X obj 368 23 inlet;
#X obj 408 23 inlet;
#X obj 447 23 inlet;
#X obj 487 23 inlet;
#X obj 527 23 inlet;
#X msg 49 66 digital 0 \$1;
#X msg 89 88 digital 1 \$1;
#X msg 128 110 digital 2 \$1;
#X msg 168 130 digital 3 \$1;
#X msg 208 62 digital 4 \$1;
#X msg 248 84 digital 5 \$1;
#X msg 287 106 digital 6 \$1;
#X msg 327 126 digital 7 \$1;
#X msg 368 58 digital 8 \$1;
#X msg 408 80 digital 9 \$1;
#X msg 447 102 digital 10 \$1;
#X msg 487 122 digital 11 \$1;
#X msg 527 50 digital 12 \$1;
#X obj 566 23 inlet;
#X msg 566 70 digital 13 \$1;
#X obj 305 196 prepend set;
#X obj 305 254 outlet;
#X obj 305 215 trigger bang anything;
#X connect 0 0 13 0;
#X connect 1 0 14 0;
#X connect 2 0 15 0;
#X connect 3 0 16 0;
#X connect 4 0 17 0;
#X connect 5 0 18 0;
#X connect 6 0 19 0;
#X connect 7 0 20 0;
#X connect 8 0 21 0;
#X connect 9 0 22 0;
#X connect 10 0 23 0;
#X connect 11 0 24 0;
#X connect 12 0 25 0;
#X connect 13 0 28 0;
#X connect 14 0 28 0;
#X connect 15 0 28 0;
#X connect 16 0 28 0;
#X connect 17 0 28 0;
#X connect 18 0 28 0;
#X connect 19 0 28 0;
#X connect 20 0 28 0;
#X connect 21 0 28 0;
#X connect 22 0 28 0;
#X connect 23 0 28 0;
#X connect 24 0 28 0;
#X connect 25 0 28 0;
#X connect 26 0 27 0;
#X connect 27 0 28 0;
#X connect 28 0 30 0;
#X connect 30 0 29 0;
#X connect 30 1 29 0;
#X restore 78 122 pd generate digital out messages;
#X obj 348 73 tgl 25 0 empty empty ALL 2 12 0 12 -262144 -1 -1 0 1
;
#X obj 349 34 tgl 15 0 empty empty empty 0 -6 0 8 -262144 -1 -1 0 16383
;
#X obj 348 52 metro 100;
#X obj 349 13 inlet;
#X connect 2 0 1 0;
#X connect 3 0 17 7;
#X connect 4 0 17 8;
#X connect 5 0 17 9;
#X connect 6 0 17 10;
#X connect 7 0 17 11;
#X connect 8 0 17 12;
#X connect 9 0 17 13;
#X connect 10 0 17 0;
#X connect 11 0 17 1;
#X connect 12 0 17 2;
#X connect 13 0 17 3;
#X connect 14 0 17 4;
#X connect 15 0 17 5;
#X connect 16 0 17 6;
#X connect 17 0 2 0;
#X connect 18 0 9 0;
#X connect 18 0 8 0;
#X connect 18 0 7 0;
#X connect 18 0 6 0;
#X connect 18 0 5 0;
#X connect 18 0 4 0;
#X connect 18 0 3 0;
#X connect 18 0 16 0;
#X connect 18 0 15 0;
#X connect 18 0 14 0;
#X connect 18 0 13 0;
#X connect 18 0 12 0;
#X connect 18 0 11 0;
#X connect 18 0 10 0;
#X connect 19 0 20 0;
#X connect 20 0 18 0;
#X connect 21 0 19 0;
#X restore 14 264 pd sending digital outs;
#X obj 14 245 tgl 15 0 empty empty empty 0 -6 0 8 -225271 -1 -1 0 16383
;
#X text 32 244 pulse all outputs;
#X obj 230 312 arduino 1;
#X floatatom 298 446 5 0 0 3 a6 - -;
#X floatatom 344 446 5 0 0 3 a7 - -;
#X obj 230 351 route analog;
#X obj 121 389 route 0 1 2 3 4 5 6 7;
#N canvas 0 22 499 396 display 0;
#X obj 6 7 inlet;
#X obj 6 28 mapping/resample 100;
#X obj 6 50 outlet;
#X obj 54 50 inlet;
#X obj 54 71 mapping/resample 100;
#X obj 54 93 outlet;
#X obj 103 93 inlet;
#X obj 103 114 mapping/resample 100;
#X obj 103 136 outlet;
#X obj 151 136 inlet;
#X obj 151 157 mapping/resample 100;
#X obj 151 179 outlet;
#X obj 200 179 inlet;
#X obj 200 200 mapping/resample 100;
#X obj 200 222 outlet;
#X obj 247 222 inlet;
#X obj 247 243 mapping/resample 100;
#X obj 247 265 outlet;
#X obj 295 265 inlet;
#X obj 295 286 mapping/resample 100;
#X obj 295 308 outlet;
#X obj 345 308 inlet;
#X obj 345 329 mapping/resample 100;
#X obj 345 351 outlet;
#X connect 0 0 1 0;
#X connect 1 0 2 0;
#X connect 3 0 4 0;
#X connect 4 0 5 0;
#X connect 6 0 7 0;
#X connect 7 0 8 0;
#X connect 9 0 10 0;
#X connect 10 0 11 0;
#X connect 12 0 13 0;
#X connect 13 0 14 0;
#X connect 15 0 16 0;
#X connect 16 0 17 0;
#X connect 18 0 19 0;
#X connect 19 0 20 0;
#X connect 21 0 22 0;
#X connect 22 0 23 0;
#X restore 45 420 pd display values without pegging the CPU;
#X obj 397 402 route digital version;
#X obj 397 446 route 0 1 2 3 4 5 6 7 8 9 10 11 12 13;
#X obj 415 468 tgl 15 0 empty empty 1 4 23 1 12 -232448 -1 -1 0 1;
#X obj 433 468 tgl 15 0 empty empty 2 4 23 1 12 -232448 -1 -1 0 1;
#X obj 451 468 tgl 15 0 empty empty 3 4 23 1 12 -232448 -1 -1 0 1;
#X obj 469 468 tgl 15 0 empty empty 4 4 23 1 12 -232448 -1 -1 0 1;
#X obj 487 468 tgl 15 0 empty empty 5 4 23 1 12 -232448 -1 -1 0 1;
#X obj 505 468 tgl 15 0 empty empty 6 4 23 1 12 -232448 -1 -1 0 1;
#X obj 523 468 tgl 15 0 empty empty 7 4 23 1 12 -232448 -1 -1 0 1;
#X obj 541 468 tgl 15 0 empty empty 8 4 23 1 12 -232448 -1 -1 0 1;
#X obj 559 468 tgl 15 0 empty empty 9 4 23 1 12 -232448 -1 -1 0 1;
#X obj 577 468 tgl 15 0 empty empty 10 0 23 1 12 -232448 -1 -1 0 1
;
#X obj 595 468 tgl 15 0 empty empty 11 0 23 1 12 -232448 -1 -1 0 1
;
#X obj 613 468 tgl 15 0 empty empty 12 0 23 1 12 -232448 -1 -1 0 1
;
#X obj 631 468 tgl 15 0 empty empty 13 0 23 1 12 -232448 -1 -1 0 1
;
#X obj 397 468 tgl 15 0 empty empty 0 4 23 1 12 -232448 -1 -1 0 1;
#N canvas 0 22 454 304 raw 0;
#X obj 96 231 outlet;
#X obj 96 63 hsl 128 15 0 127 0 0 empty empty empty -2 -6 0 10 -262144
-1 -1 2500 1;
#X msg 90 139 171 \, \$1 \, 0;
#X connect 1 0 2 0;
#X connect 2 0 0 0;
#X restore 374 292 pd raw PWM;
#X connect 4 0 71 0;
#X connect 5 0 4 0;
#X connect 9 0 71 0;
#X connect 10 0 20 2;
#X connect 11 0 20 1;
#X connect 12 0 44 1;
#X connect 13 0 49 1;
#X connect 15 0 17 0;
#X connect 17 0 71 0;
#X connect 18 0 71 0;
#X connect 19 0 18 0;
#X connect 28 0 44 1;
#X connect 29 0 44 0;
#X connect 44 0 45 0;
#X connect 45 0 71 0;
#X connect 46 0 71 0;
#X connect 47 0 71 0;
#X connect 49 0 74 0;
#X connect 51 0 65 1;
#X connect 52 0 65 2;
#X connect 53 0 65 3;
#X connect 54 0 65 4;
#X connect 55 0 65 5;
#X connect 56 0 65 6;
#X connect 57 0 65 7;
#X connect 58 0 65 8;
#X connect 59 0 65 9;
#X connect 60 0 65 10;
#X connect 61 0 65 11;
#X connect 62 0 65 12;
#X connect 63 0 65 13;
#X connect 64 0 65 0;
#X connect 65 0 67 0;
#X connect 67 0 71 0;
#X connect 68 0 71 0;
#X connect 69 0 68 0;
#X connect 71 0 49 0;
#X connect 71 1 20 0;
#X connect 74 0 75 0;
#X connect 74 1 77 0;
#X connect 75 0 76 0;
#X connect 75 1 76 1;
#X connect 75 2 76 2;
#X connect 75 3 76 3;
#X connect 75 4 76 4;
#X connect 75 5 76 5;
#X connect 75 6 76 6;
#X connect 75 7 76 7;
#X connect 76 0 21 0;
#X connect 76 1 22 0;
#X connect 76 2 23 0;
#X connect 76 3 24 0;
#X connect 76 4 25 0;
#X connect 76 5 26 0;
#X connect 76 6 72 0;
#X connect 76 7 73 0;
#X connect 77 0 78 0;
#X connect 77 1 48 0;
#X connect 78 0 92 0;
#X connect 78 1 79 0;
#X connect 78 2 80 0;
#X connect 78 3 81 0;
#X connect 78 4 82 0;
#X connect 78 5 83 0;
#X connect 78 6 84 0;
#X connect 78 7 85 0;
#X connect 78 8 86 0;
#X connect 78 9 87 0;
#X connect 78 10 88 0;
#X connect 78 11 89 0;
#X connect 78 12 90 0;
#X connect 78 13 91 0;
#X connect 93 0 71 1;
