#N canvas 372 44 867 508 10;
#X declare -path includes;
#X obj 499 163 cnv 15 350 250 empty empty empty 20 12 0 14 -67964 -66577
0;
#X obj 577 165 tgl 15 0 \$0-s-by-Pin_15 \$0-r-by-Pin_15 15 0 23 1 9
-162280 -1 -191407 0 1;
#X obj 798 165 tgl 15 0 \$0-s-by-Pin_2 \$0-r-by-Pin_2 N 4 8 1 9 -262144
-262144 -166441 0 1;
#X obj 815 165 tgl 15 0 \$0-s-by-Pin_1 \$0-r-by-Pin_1 1 5 23 1 9 -162280
-262144 -191407 0 1;
#X obj 832 165 tgl 15 0 \$0-s-by-Pin_0 \$0-r-by-Pin_0 0 5 23 1 9 -162280
-262144 -191407 0 1;
#X text 834 192 R;
#X text 834 203 X;
#X text 818 192 T;
#X text 818 203 X;
#X obj 594 165 tgl 15 0 \$0-s-by-Pin_14 \$0-r-by-Pin_14 14 0 23 1 9
-162280 -1 -191407 0 1;
#X text 596 203 N;
#X text 596 214 D;
#X text 579 193 A;
#X text 579 204 R;
#X text 579 214 E;
#X text 579 224 F;
#X text 691 226 Digital;
#X text 646 192 P;
#X text 647 203 W;
#X text 646 214 M;
#X text 664 192 P;
#X text 665 203 W;
#X text 664 214 M;
#X text 683 192 P;
#X text 684 203 W;
#X text 683 214 M;
#X text 733 192 P;
#X text 734 203 W;
#X text 733 214 M;
#X text 750 192 P;
#X text 751 203 W;
#X text 750 214 M;
#X text 784 191 P;
#X text 785 203 W;
#X text 784 214 M;
#X text 762 341 Analog in;
#X obj 707 396 tgl 15 0 empty empty empty 0 -6 1 9 -261234 -262144
-262144 0 1;
#X text 708 362 V;
#X text 709 372 i;
#X text 709 380 n;
#X obj 690 396 tgl 15 0 empty empty empty 0 23 1 9 -162280 -1 -191407
0 1;
#X text 691 358 G;
#X text 691 369 N;
#X text 691 380 D;
#X obj 673 396 tgl 15 0 empty empty empty 0 23 1 9 -162280 -1 -191407
0 1;
#X text 674 358 G;
#X text 674 369 N;
#X text 674 380 D;
#X obj 656 396 tgl 15 0 empty empty empty 0 -6 1 9 -261234 -262144
-262144 0 1;
#X text 657 369 5;
#X text 657 379 V;
#X obj 639 396 tgl 15 0 empty empty empty 0 -6 1 9 -261234 -1 -1 0
1;
#X text 640 379 V;
#X text 640 369 3;
#X text 640 359 3;
#X obj 622 396 tgl 15 0 empty empty empty 0 23 1 9 -162280 -1 -191407
0 1;
#X text 623 380 T;
#X text 623 358 R;
#X text 623 369 S;
#X text 526 275 White letters are showing the Pin Numbering Map for
;
#X text 525 290 Arduino UNO \, Duemilanove \, Nano \, Diecimila...
;
#N canvas 276 274 451 224 ver 0;
#X obj 23 7 inlet;
#X obj 250 100 cnv 15 145 17 empty \$0-version_cnv empty 4 10 0 12
-203904 -1 0;
#X obj 23 157 send \$0-version_cnv;
#X msg 23 132 label \$1;
#X obj 48 103 symbol;
#X obj 38 77 loadbang;
#X msg 96 78 bang;
#X obj 309 163 outlet;
#X obj 23 29 route version bang;
#X msg 23 53 symbol Firmata-\$1.\$2;
#X connect 0 0 8 0;
#X connect 3 0 2 0;
#X connect 4 0 3 0;
#X connect 5 0 4 0;
#X connect 6 0 4 0;
#X connect 8 0 9 0;
#X connect 8 1 7 0;
#X connect 8 1 6 0;
#X connect 8 2 7 0;
#X connect 9 0 3 0;
#X coords 0 -1 1 1 145 17 1 250 100;
#X restore 506 316 pd ver;
#N canvas 643 518 411 212 firmware 0;
#X obj 123 2 inlet;
#X obj 250 100 cnv 15 145 17 empty \$0-firmware_cnv empty 4 10 0 12
-232576 -66577 0;
#X msg 123 156 label \$1;
#X obj 148 127 symbol;
#X obj 138 101 loadbang;
#X msg 196 102 bang;
#X obj 123 181 send \$0-firmware_cnv;
#X obj 123 24 route firmware;
#X obj 18 181 print Firmware;
#X obj 123 49 list;
#X obj 18 151 list trim;
#X obj 204 45 route bang;
#X msg 123 72 symbol \$1-\$2.\$3;
#X connect 0 0 7 0;
#X connect 2 0 6 0;
#X connect 3 0 2 0;
#X connect 4 0 3 0;
#X connect 5 0 3 0;
#X connect 7 0 9 0;
#X connect 7 1 11 0;
#X connect 9 0 12 0;
#X connect 10 0 8 0;
#X connect 11 0 5 0;
#X connect 12 0 2 0;
#X connect 12 0 10 0;
#X coords 0 -1 1 1 145 17 1 250 100;
#X restore 506 336 pd firmware;
#N canvas 51 306 404 287 device 0;
#X obj 35 60 inlet;
#X obj 35 118 route open port ports;
#X obj 35 169 tgl 15 0 empty empty open -3 20 0 10 -262144 -1 -1 0
1;
#X floatatom 76 170 5 0 0 3 port - -;
#X obj 117 170 print comport_ports;
#X obj 252 170 outlet;
#X obj 235 74 receive ARDUINO_TEST_RESET;
#X obj 235 97 bang;
#X connect 0 0 1 0;
#X connect 1 0 2 0;
#X connect 1 1 3 0;
#X connect 1 2 4 0;
#X connect 1 3 5 0;
#X connect 6 0 7 0;
#X connect 7 0 5 0;
#X restore 506 143 pd device info;
#X obj 781 165 tgl 15 0 \$0-s-by-Pin_3 \$0-r-by-Pin_3 N 4 8 1 9 -262144
-262144 -166441 0 1;
#X obj 764 165 tgl 15 0 \$0-s-by-Pin_4 \$0-r-by-Pin_4 N 4 8 1 9 -262144
-262144 -166441 0 1;
#X obj 747 165 tgl 15 0 \$0-s-by-Pin_5 \$0-r-by-Pin_5 N 4 8 1 9 -262144
-262144 -166441 0 1;
#X obj 730 165 tgl 15 0 \$0-s-by-Pin_6 \$0-r-by-Pin_6 N 4 8 1 9 -262144
-262144 -166441 0 1;
#X obj 713 165 tgl 15 0 \$0-s-by-Pin_7 \$0-r-by-Pin_7 N 4 8 1 9 -262144
-262144 -166441 0 1;
#X obj 696 165 tgl 15 0 \$0-s-by-Pin_8 \$0-r-by-Pin_8 N 4 8 1 9 -262144
-262144 -166441 0 1;
#X obj 679 165 tgl 15 0 \$0-s-by-Pin_9 \$0-r-by-Pin_9 N 4 8 1 9 -262144
-262144 -166441 0 1;
#X obj 662 165 tgl 15 0 \$0-s-by-Pin_10 \$0-r-by-Pin_10 N 4 8 1 9 -262144
-262144 -166441 0 1;
#X obj 645 165 tgl 15 0 \$0-s-by-Pin_11 \$0-r-by-Pin_11 N 4 8 1 9 -262144
-262144 -166441 0 1;
#X obj 628 165 tgl 15 0 \$0-s-by-Pin_12 \$0-r-by-Pin_12 N 4 8 1 9 -262144
-262144 -166441 0 1;
#X obj 611 165 tgl 15 0 \$0-s-by-Pin_13 \$0-r-by-Pin_13 N 4 8 1 9 -262144
-262144 -166441 0 1;
#X text 801 178 2;
#X text 783 177 3;
#X text 766 177 4;
#X text 750 177 5;
#X text 733 177 6;
#X text 715 177 7;
#X text 698 177 8;
#X text 681 177 9;
#X text 661 177 10;
#X text 644 177 11;
#X text 627 177 12;
#X text 611 177 13;
#X text 596 192 G;
#X obj 747 396 tgl 15 0 \$0-s-by-Pin_16 \$0-r-by-Pin_16 N 4 8 1 9 -262144
-262144 -166441 0 1;
#X obj 764 396 tgl 15 0 \$0-s-by-Pin_17 \$0-r-by-Pin_17 N 4 8 1 9 -262144
-262144 -166441 0 1;
#X obj 781 396 tgl 15 0 \$0-s-by-Pin_18 \$0-r-by-Pin_18 N 4 8 1 9 -262144
-262144 -166441 0 1;
#X obj 798 396 tgl 15 0 \$0-s-by-Pin_19 \$0-r-by-Pin_19 N 4 8 1 9 -262144
-262144 -166441 0 1;
#X obj 815 396 tgl 15 0 \$0-s-by-Pin_20 \$0-r-by-Pin_20 N 4 8 1 9 -262144
-262144 -166441 0 1;
#X obj 832 396 tgl 15 0 \$0-s-by-Pin_21 \$0-r-by-Pin_21 N 4 8 1 9 -262144
-262144 -166441 0 1;
#X text 749 379 A0;
#X text 767 379 A1;
#X text 783 379 A2;
#X text 799 379 A3;
#X text 815 379 A4;
#X text 830 379 A5;
#X msg 623 79 digital 13 \$1;
#X obj 623 61 tgl 15 0 empty empty empty 0 -6 0 8 -262144 -1 -1 0 1
;
#X msg 603 22 pinMode 13 output;
#X text 639 58 <- toggle pin 13 on and off;
#X text 728 27 output mode;
#X text 727 15 set pin 13 to;
#X text 711 22 <-;
#X obj 599 102 cnv 15 100 26 empty empty empty 20 12 0 14 -257985 -66577
0;
#X obj 607 242 cnv 15 205 25 empty empty empty 5 10 1 14 -4034 -66577
0;
#N canvas 572 164 575 492 open 0;
#N canvas 82 138 474 528 pinMode 0;
#X obj 277 100 vradio 15 1 0 6 THIS_HIDES_THE_OUTLET ARDUINO_TEST_RESET
empty 2 68 1 10 -257985 -1 -1 0;
#X obj 98 498 cnv 15 100 26 empty empty empty 20 12 0 14 -257985 -66577
0;
#X obj 100 502 s \$0-to-arduino;
#X obj 261 100 vradio 15 1 0 6 THIS_HIDES_THE_OUTLET ARDUINO_TEST_RESET
empty 2 68 1 10 -257985 -1 -1 0;
#X obj 245 100 vradio 15 1 0 6 THIS_HIDES_THE_OUTLET ARDUINO_TEST_RESET
empty 2 68 1 10 -257985 -1 -1 0;
#X obj 229 100 vradio 15 1 0 6 THIS_HIDES_THE_OUTLET ARDUINO_TEST_RESET
empty 2 68 1 10 -257985 -1 -1 0;
#X obj 213 100 vradio 15 1 0 6 THIS_HIDES_THE_OUTLET ARDUINO_TEST_RESET
empty 2 68 1 10 -257985 -1 -1 0;
#X obj 197 100 vradio 15 1 0 6 THIS_HIDES_THE_OUTLET ARDUINO_TEST_RESET
empty 2 68 1 10 -257985 -1 -1 0;
#X obj 181 100 vradio 15 1 0 6 THIS_HIDES_THE_OUTLET ARDUINO_TEST_RESET
empty 2 68 1 10 -257985 -1 -1 0;
#X obj 165 100 vradio 15 1 0 6 THIS_HIDES_THE_OUTLET ARDUINO_TEST_RESET
empty 2 68 1 10 -257985 -1 -1 0;
#X obj 149 100 vradio 15 1 0 6 THIS_HIDES_THE_OUTLET ARDUINO_TEST_RESET
empty 2 68 1 10 -257985 -1 -1 0;
#X obj 133 100 vradio 15 1 0 6 THIS_HIDES_THE_OUTLET ARDUINO_TEST_RESET
empty 2 68 1 10 -257985 -1 -1 0;
#X obj 117 100 vradio 15 1 0 6 THIS_HIDES_THE_OUTLET ARDUINO_TEST_RESET
empty 2 68 1 10 -257985 -1 -1 0;
#X obj 101 100 vradio 15 1 0 6 THIS_HIDES_THE_OUTLET ARDUINO_TEST_RESET
empty 2 68 1 10 -257985 -1 -1 0;
#X obj 100 146 cnv 8 194 13 empty empty empty 20 12 0 14 -191407 -66577
0;
#N canvas 78 187 916 571 send-to-arduino--------------- 0;
#X obj 518 16 inlet;
#X obj 480 16 inlet;
#X obj 442 16 inlet;
#X obj 405 16 inlet;
#X obj 367 16 inlet;
#X obj 330 16 inlet;
#X obj 292 16 inlet;
#X obj 253 16 inlet;
#X obj 214 16 inlet;
#X obj 176 16 inlet;
#X obj 136 15 inlet;
#X obj 98 15 inlet;
#X obj 59 15 inlet;
#X msg 518 58 pinMode 0 \$1;
#X msg 480 80 pinMode 1 \$1;
#X msg 442 102 pinMode 2 \$1;
#X msg 405 122 pinMode 3 \$1;
#X msg 367 54 pinMode 4 \$1;
#X msg 330 76 pinMode 5 \$1;
#X msg 292 98 pinMode 6 \$1;
#X msg 253 118 pinMode 7 \$1;
#X msg 214 51 pinMode 8 \$1;
#X msg 176 73 pinMode 9 \$1;
#X msg 136 94 pinMode 10 \$1;
#X msg 98 114 pinMode 11 \$1;
#X msg 59 42 pinMode 12 \$1;
#X obj 19 15 inlet;
#X msg 19 62 pinMode 13 \$1;
#X obj -12 551 outlet;
#X obj 235 501 trigger bang anything;
#X obj 235 456 list prepend set;
#X obj 235 478 list trim;
#X obj 235 297 list;
#X obj 236 319 unpack symbol float float;
#X obj 235 429 pack symbol float symbol;
#X obj 376 409 symbol;
#X msg 413 382 analog;
#X msg 461 382 pwm;
#X msg 491 382 servo;
#X obj 493 462 list trim;
#X obj 493 439 list prepend WARNING Unsupported pin mode:;
#X obj 493 484 print [arduino];
#X msg 322 382 input;
#X msg 363 382 output;
#X obj 382 338 - 1;
#X obj 382 357 select 0 1 2 3 4 -1;
#X text 511 356 (-1 == NONE);
#N canvas 0 0 410 411 label 0;
#X obj 188 377 outlet;
#X obj 132 17 inlet;
#X msg 119 84 I;
#X msg 148 84 O;
#X msg 210 84 P;
#X obj 302 279 list;
#X msg 302 308 label \$1;
#X msg 179 84 A;
#X msg 240 85 S;
#X obj 132 43 sel 0 1 2 3 4 5;
#X msg 86 84 N;
#X msg 106 321 color \$1 \$2 \$3;
#X msg 37 281 0 0 1;
#X msg 193 280 9 12 19;
#X msg 106 281 5 12 12;
#X text 37 242 NONE;
#X text 196 239 output;
#X text 87 257 digital/analog;
#X text 106 240 input;
#X text 183 258 digital/pwm/servo;
#X text 36 221 ____define toggle colors for____;
#X connect 1 0 9 0;
#X connect 2 0 5 0;
#X connect 2 0 14 0;
#X connect 3 0 5 0;
#X connect 3 0 13 0;
#X connect 4 0 5 0;
#X connect 4 0 13 0;
#X connect 5 0 6 0;
#X connect 6 0 0 0;
#X connect 7 0 5 0;
#X connect 7 0 14 0;
#X connect 8 0 5 0;
#X connect 8 0 13 0;
#X connect 9 0 10 0;
#X connect 9 1 2 0;
#X connect 9 2 3 0;
#X connect 9 3 7 0;
#X connect 9 4 4 0;
#X connect 9 5 8 0;
#X connect 10 0 5 0;
#X connect 10 0 12 0;
#X connect 11 0 0 0;
#X connect 12 0 11 0;
#X connect 13 0 11 0;
#X connect 14 0 11 0;
#X restore 523 164 pd label;
#N canvas 0 0 458 458 label 0;
#X msg 119 84 I;
#X msg 148 84 O;
#X msg 210 84 P;
#X obj 302 279 list;
#X msg 302 308 label \$1;
#X obj 194 370 outlet;
#X msg 179 84 A;
#X obj 132 14 inlet;
#X msg 240 85 S;
#X obj 132 43 sel 0 1 2 3 4 5;
#X msg 86 84 N;
#X msg 106 321 color \$1 \$2 \$3;
#X msg 37 281 0 0 1;
#X msg 193 280 9 12 19;
#X msg 106 281 5 12 12;
#X text 37 242 NONE;
#X text 196 239 output;
#X text 87 257 digital/analog;
#X text 106 240 input;
#X text 183 258 digital/pwm/servo;
#X text 36 221 ____define toggle colors for____;
#X connect 0 0 3 0;
#X connect 0 0 14 0;
#X connect 1 0 3 0;
#X connect 1 0 13 0;
#X connect 2 0 3 0;
#X connect 2 0 13 0;
#X connect 3 0 4 0;
#X connect 4 0 5 0;
#X connect 6 0 3 0;
#X connect 6 0 14 0;
#X connect 7 0 9 0;
#X connect 8 0 3 0;
#X connect 8 0 13 0;
#X connect 9 0 10 0;
#X connect 9 1 0 0;
#X connect 9 2 1 0;
#X connect 9 3 6 0;
#X connect 9 4 2 0;
#X connect 9 5 8 0;
#X connect 10 0 3 0;
#X connect 10 0 12 0;
#X connect 11 0 5 0;
#X connect 12 0 11 0;
#X connect 13 0 11 0;
#X connect 14 0 11 0;
#X restore 480 184 pd label;
#N canvas 0 0 462 485 label 0;
#X msg 129 94 I;
#X msg 158 94 O;
#X msg 220 94 P;
#X obj 312 289 list;
#X msg 312 318 label \$1;
#X obj 204 380 outlet;
#X msg 189 94 A;
#X obj 142 24 inlet;
#X msg 250 95 S;
#X obj 142 53 sel 0 1 2 3 4 5;
#X msg 96 94 N;
#X msg 116 331 color \$1 \$2 \$3;
#X msg 47 291 0 0 1;
#X msg 203 290 9 12 19;
#X msg 116 291 5 12 12;
#X text 47 252 NONE;
#X text 206 249 output;
#X text 97 267 digital/analog;
#X text 116 250 input;
#X text 193 268 digital/pwm/servo;
#X text 46 231 ____define toggle colors for____;
#X connect 0 0 3 0;
#X connect 0 0 14 0;
#X connect 1 0 3 0;
#X connect 1 0 13 0;
#X connect 2 0 3 0;
#X connect 2 0 13 0;
#X connect 3 0 4 0;
#X connect 4 0 5 0;
#X connect 6 0 3 0;
#X connect 6 0 14 0;
#X connect 7 0 9 0;
#X connect 8 0 3 0;
#X connect 8 0 13 0;
#X connect 9 0 10 0;
#X connect 9 1 0 0;
#X connect 9 2 1 0;
#X connect 9 3 6 0;
#X connect 9 4 2 0;
#X connect 9 5 8 0;
#X connect 10 0 3 0;
#X connect 10 0 12 0;
#X connect 11 0 5 0;
#X connect 12 0 11 0;
#X connect 13 0 11 0;
#X connect 14 0 11 0;
#X restore 439 204 pd label;
#X obj 523 236 outlet;
#X obj 481 236 outlet;
#X obj 439 236 outlet;
#N canvas 0 0 410 411 label 0;
#X obj 188 377 outlet;
#X obj 132 17 inlet;
#X msg 119 84 I;
#X msg 148 84 O;
#X msg 210 84 P;
#X obj 302 279 list;
#X msg 302 308 label \$1;
#X msg 179 84 A;
#X msg 240 85 S;
#X obj 132 43 sel 0 1 2 3 4 5;
#X msg 86 84 N;
#X msg 106 321 color \$1 \$2 \$3;
#X msg 37 281 0 0 1;
#X msg 193 280 9 12 19;
#X msg 106 281 5 12 12;
#X text 37 242 NONE;
#X text 196 239 output;
#X text 87 257 digital/analog;
#X text 106 240 input;
#X text 183 258 digital/pwm/servo;
#X text 36 221 ____define toggle colors for____;
#X connect 1 0 9 0;
#X connect 2 0 5 0;
#X connect 2 0 14 0;
#X connect 3 0 5 0;
#X connect 3 0 13 0;
#X connect 4 0 5 0;
#X connect 4 0 13 0;
#X connect 5 0 6 0;
#X connect 6 0 0 0;
#X connect 7 0 5 0;
#X connect 7 0 14 0;
#X connect 8 0 5 0;
#X connect 8 0 13 0;
#X connect 9 0 10 0;
#X connect 9 1 2 0;
#X connect 9 2 3 0;
#X connect 9 3 7 0;
#X connect 9 4 4 0;
#X connect 9 5 8 0;
#X connect 10 0 5 0;
#X connect 10 0 12 0;
#X connect 11 0 0 0;
#X connect 12 0 11 0;
#X connect 13 0 11 0;
#X connect 14 0 11 0;
#X restore 397 164 pd label;
#N canvas 0 0 458 458 label 0;
#X msg 119 84 I;
#X msg 148 84 O;
#X msg 210 84 P;
#X obj 302 279 list;
#X msg 302 308 label \$1;
#X obj 194 370 outlet;
#X msg 179 84 A;
#X obj 132 14 inlet;
#X msg 240 85 S;
#X obj 132 43 sel 0 1 2 3 4 5;
#X msg 86 84 N;
#X msg 106 321 color \$1 \$2 \$3;
#X msg 37 281 0 0 1;
#X msg 193 280 9 12 19;
#X msg 106 281 5 12 12;
#X text 37 242 NONE;
#X text 196 239 output;
#X text 87 257 digital/analog;
#X text 106 240 input;
#X text 183 258 digital/pwm/servo;
#X text 36 221 ____define toggle colors for____;
#X connect 0 0 3 0;
#X connect 0 0 14 0;
#X connect 1 0 3 0;
#X connect 1 0 13 0;
#X connect 2 0 3 0;
#X connect 2 0 13 0;
#X connect 3 0 4 0;
#X connect 4 0 5 0;
#X connect 6 0 3 0;
#X connect 6 0 14 0;
#X connect 7 0 9 0;
#X connect 8 0 3 0;
#X connect 8 0 13 0;
#X connect 9 0 10 0;
#X connect 9 1 0 0;
#X connect 9 2 1 0;
#X connect 9 3 6 0;
#X connect 9 4 2 0;
#X connect 9 5 8 0;
#X connect 10 0 3 0;
#X connect 10 0 12 0;
#X connect 11 0 5 0;
#X connect 12 0 11 0;
#X connect 13 0 11 0;
#X connect 14 0 11 0;
#X restore 354 184 pd label;
#N canvas 0 0 462 485 label 0;
#X msg 129 94 I;
#X msg 158 94 O;
#X msg 220 94 P;
#X obj 312 289 list;
#X msg 312 318 label \$1;
#X obj 204 380 outlet;
#X msg 189 94 A;
#X obj 142 24 inlet;
#X msg 250 95 S;
#X obj 142 53 sel 0 1 2 3 4 5;
#X msg 96 94 N;
#X msg 116 331 color \$1 \$2 \$3;
#X msg 47 291 0 0 1;
#X msg 203 290 9 12 19;
#X msg 116 291 5 12 12;
#X text 47 252 NONE;
#X text 206 249 output;
#X text 97 267 digital/analog;
#X text 116 250 input;
#X text 193 268 digital/pwm/servo;
#X text 46 231 ____define toggle colors for____;
#X connect 0 0 3 0;
#X connect 0 0 14 0;
#X connect 1 0 3 0;
#X connect 1 0 13 0;
#X connect 2 0 3 0;
#X connect 2 0 13 0;
#X connect 3 0 4 0;
#X connect 4 0 5 0;
#X connect 6 0 3 0;
#X connect 6 0 14 0;
#X connect 7 0 9 0;
#X connect 8 0 3 0;
#X connect 8 0 13 0;
#X connect 9 0 10 0;
#X connect 9 1 0 0;
#X connect 9 2 1 0;
#X connect 9 3 6 0;
#X connect 9 4 2 0;
#X connect 9 5 8 0;
#X connect 10 0 3 0;
#X connect 10 0 12 0;
#X connect 11 0 5 0;
#X connect 12 0 11 0;
#X connect 13 0 11 0;
#X connect 14 0 11 0;
#X restore 313 204 pd label;
#X obj 397 236 outlet;
#X obj 355 236 outlet;
#X obj 313 236 outlet;
#N canvas 0 0 410 411 label 0;
#X obj 188 377 outlet;
#X obj 132 17 inlet;
#X msg 119 84 I;
#X msg 148 84 O;
#X msg 210 84 P;
#X obj 302 279 list;
#X msg 302 308 label \$1;
#X msg 179 84 A;
#X msg 240 85 S;
#X obj 132 43 sel 0 1 2 3 4 5;
#X msg 86 84 N;
#X msg 106 321 color \$1 \$2 \$3;
#X msg 37 281 0 0 1;
#X msg 193 280 9 12 19;
#X msg 106 281 5 12 12;
#X text 37 242 NONE;
#X text 196 239 output;
#X text 87 257 digital/analog;
#X text 106 240 input;
#X text 183 258 digital/pwm/servo;
#X text 36 221 ____define toggle colors for____;
#X connect 1 0 9 0;
#X connect 2 0 5 0;
#X connect 2 0 14 0;
#X connect 3 0 5 0;
#X connect 3 0 13 0;
#X connect 4 0 5 0;
#X connect 4 0 13 0;
#X connect 5 0 6 0;
#X connect 6 0 0 0;
#X connect 7 0 5 0;
#X connect 7 0 14 0;
#X connect 8 0 5 0;
#X connect 8 0 13 0;
#X connect 9 0 10 0;
#X connect 9 1 2 0;
#X connect 9 2 3 0;
#X connect 9 3 7 0;
#X connect 9 4 4 0;
#X connect 9 5 8 0;
#X connect 10 0 5 0;
#X connect 10 0 12 0;
#X connect 11 0 0 0;
#X connect 12 0 11 0;
#X connect 13 0 11 0;
#X connect 14 0 11 0;
#X restore 271 164 pd label;
#N canvas 0 0 458 458 label 0;
#X msg 119 84 I;
#X msg 148 84 O;
#X msg 210 84 P;
#X obj 302 279 list;
#X msg 302 308 label \$1;
#X obj 194 370 outlet;
#X msg 179 84 A;
#X obj 132 14 inlet;
#X msg 240 85 S;
#X obj 132 43 sel 0 1 2 3 4 5;
#X msg 86 84 N;
#X msg 106 321 color \$1 \$2 \$3;
#X msg 37 281 0 0 1;
#X msg 193 280 9 12 19;
#X msg 106 281 5 12 12;
#X text 37 242 NONE;
#X text 196 239 output;
#X text 87 257 digital/analog;
#X text 106 240 input;
#X text 183 258 digital/pwm/servo;
#X text 36 221 ____define toggle colors for____;
#X connect 0 0 3 0;
#X connect 0 0 14 0;
#X connect 1 0 3 0;
#X connect 1 0 13 0;
#X connect 2 0 3 0;
#X connect 2 0 13 0;
#X connect 3 0 4 0;
#X connect 4 0 5 0;
#X connect 6 0 3 0;
#X connect 6 0 14 0;
#X connect 7 0 9 0;
#X connect 8 0 3 0;
#X connect 8 0 13 0;
#X connect 9 0 10 0;
#X connect 9 1 0 0;
#X connect 9 2 1 0;
#X connect 9 3 6 0;
#X connect 9 4 2 0;
#X connect 9 5 8 0;
#X connect 10 0 3 0;
#X connect 10 0 12 0;
#X connect 11 0 5 0;
#X connect 12 0 11 0;
#X connect 13 0 11 0;
#X connect 14 0 11 0;
#X restore 228 184 pd label;
#N canvas 0 0 462 485 label 0;
#X msg 129 94 I;
#X msg 158 94 O;
#X msg 220 94 P;
#X obj 312 289 list;
#X msg 312 318 label \$1;
#X obj 204 380 outlet;
#X msg 189 94 A;
#X obj 142 24 inlet;
#X msg 250 95 S;
#X obj 142 53 sel 0 1 2 3 4 5;
#X msg 96 94 N;
#X msg 116 331 color \$1 \$2 \$3;
#X msg 47 291 0 0 1;
#X msg 203 290 9 12 19;
#X msg 116 291 5 12 12;
#X text 47 252 NONE;
#X text 206 249 output;
#X text 97 267 digital/analog;
#X text 116 250 input;
#X text 193 268 digital/pwm/servo;
#X text 46 231 ____define toggle colors for____;
#X connect 0 0 3 0;
#X connect 0 0 14 0;
#X connect 1 0 3 0;
#X connect 1 0 13 0;
#X connect 2 0 3 0;
#X connect 2 0 13 0;
#X connect 3 0 4 0;
#X connect 4 0 5 0;
#X connect 6 0 3 0;
#X connect 6 0 14 0;
#X connect 7 0 9 0;
#X connect 8 0 3 0;
#X connect 8 0 13 0;
#X connect 9 0 10 0;
#X connect 9 1 0 0;
#X connect 9 2 1 0;
#X connect 9 3 6 0;
#X connect 9 4 2 0;
#X connect 9 5 8 0;
#X connect 10 0 3 0;
#X connect 10 0 12 0;
#X connect 11 0 5 0;
#X connect 12 0 11 0;
#X connect 13 0 11 0;
#X connect 14 0 11 0;
#X restore 187 204 pd label;
#X obj 271 236 outlet;
#X obj 229 236 outlet;
#X obj 187 236 outlet;
#N canvas 0 0 410 411 label 0;
#X obj 188 377 outlet;
#X obj 132 17 inlet;
#X msg 119 84 I;
#X msg 148 84 O;
#X msg 210 84 P;
#X obj 302 279 list;
#X msg 302 308 label \$1;
#X msg 179 84 A;
#X msg 240 85 S;
#X obj 132 43 sel 0 1 2 3 4 5;
#X msg 86 84 N;
#X msg 106 321 color \$1 \$2 \$3;
#X msg 37 281 0 0 1;
#X msg 193 280 9 12 19;
#X msg 106 281 5 12 12;
#X text 37 242 NONE;
#X text 196 239 output;
#X text 87 257 digital/analog;
#X text 106 240 input;
#X text 183 258 digital/pwm/servo;
#X text 36 221 ____define toggle colors for____;
#X connect 1 0 9 0;
#X connect 2 0 5 0;
#X connect 2 0 14 0;
#X connect 3 0 5 0;
#X connect 3 0 13 0;
#X connect 4 0 5 0;
#X connect 4 0 13 0;
#X connect 5 0 6 0;
#X connect 6 0 0 0;
#X connect 7 0 5 0;
#X connect 7 0 14 0;
#X connect 8 0 5 0;
#X connect 8 0 13 0;
#X connect 9 0 10 0;
#X connect 9 1 2 0;
#X connect 9 2 3 0;
#X connect 9 3 7 0;
#X connect 9 4 4 0;
#X connect 9 5 8 0;
#X connect 10 0 5 0;
#X connect 10 0 12 0;
#X connect 11 0 0 0;
#X connect 12 0 11 0;
#X connect 13 0 11 0;
#X connect 14 0 11 0;
#X restore 145 164 pd label;
#N canvas 0 0 458 458 label 0;
#X msg 119 84 I;
#X msg 148 84 O;
#X msg 210 84 P;
#X obj 302 279 list;
#X msg 302 308 label \$1;
#X obj 194 370 outlet;
#X msg 179 84 A;
#X obj 132 14 inlet;
#X msg 240 85 S;
#X obj 132 43 sel 0 1 2 3 4 5;
#X msg 86 84 N;
#X msg 106 321 color \$1 \$2 \$3;
#X msg 37 281 0 0 1;
#X msg 193 280 9 12 19;
#X msg 106 281 5 12 12;
#X text 37 242 NONE;
#X text 196 239 output;
#X text 87 257 digital/analog;
#X text 106 240 input;
#X text 183 258 digital/pwm/servo;
#X text 36 221 ____define toggle colors for____;
#X connect 0 0 3 0;
#X connect 0 0 14 0;
#X connect 1 0 3 0;
#X connect 1 0 13 0;
#X connect 2 0 3 0;
#X connect 2 0 13 0;
#X connect 3 0 4 0;
#X connect 4 0 5 0;
#X connect 6 0 3 0;
#X connect 6 0 14 0;
#X connect 7 0 9 0;
#X connect 8 0 3 0;
#X connect 8 0 13 0;
#X connect 9 0 10 0;
#X connect 9 1 0 0;
#X connect 9 2 1 0;
#X connect 9 3 6 0;
#X connect 9 4 2 0;
#X connect 9 5 8 0;
#X connect 10 0 3 0;
#X connect 10 0 12 0;
#X connect 11 0 5 0;
#X connect 12 0 11 0;
#X connect 13 0 11 0;
#X connect 14 0 11 0;
#X restore 102 184 pd label;
#N canvas 0 0 462 485 label 0;
#X msg 129 94 I;
#X msg 158 94 O;
#X msg 220 94 P;
#X obj 312 289 list;
#X msg 312 318 label \$1;
#X obj 204 380 outlet;
#X msg 189 94 A;
#X obj 142 24 inlet;
#X msg 250 95 S;
#X obj 142 53 sel 0 1 2 3 4 5;
#X msg 96 94 N;
#X msg 116 331 color \$1 \$2 \$3;
#X msg 47 291 0 0 1;
#X msg 203 290 9 12 19;
#X msg 116 291 5 12 12;
#X text 47 252 NONE;
#X text 206 249 output;
#X text 97 267 digital/analog;
#X text 116 250 input;
#X text 193 268 digital/pwm/servo;
#X text 46 231 ____define toggle colors for____;
#X connect 0 0 3 0;
#X connect 0 0 14 0;
#X connect 1 0 3 0;
#X connect 1 0 13 0;
#X connect 2 0 3 0;
#X connect 2 0 13 0;
#X connect 3 0 4 0;
#X connect 4 0 5 0;
#X connect 6 0 3 0;
#X connect 6 0 14 0;
#X connect 7 0 9 0;
#X connect 8 0 3 0;
#X connect 8 0 13 0;
#X connect 9 0 10 0;
#X connect 9 1 0 0;
#X connect 9 2 1 0;
#X connect 9 3 6 0;
#X connect 9 4 2 0;
#X connect 9 5 8 0;
#X connect 10 0 3 0;
#X connect 10 0 12 0;
#X connect 11 0 5 0;
#X connect 12 0 11 0;
#X connect 13 0 11 0;
#X connect 14 0 11 0;
#X restore 61 204 pd label;
#X obj 145 236 outlet;
#X obj 103 236 outlet;
#X obj 61 236 outlet;
#X connect 0 0 13 0;
#X connect 1 0 14 0;
#X connect 2 0 15 0;
#X connect 2 0 47 0;
#X connect 3 0 16 0;
#X connect 3 0 48 0;
#X connect 4 0 17 0;
#X connect 4 0 49 0;
#X connect 5 0 18 0;
#X connect 5 0 53 0;
#X connect 6 0 19 0;
#X connect 6 0 54 0;
#X connect 7 0 20 0;
#X connect 7 0 55 0;
#X connect 8 0 21 0;
#X connect 8 0 59 0;
#X connect 9 0 22 0;
#X connect 9 0 60 0;
#X connect 10 0 23 0;
#X connect 10 0 61 0;
#X connect 11 0 24 0;
#X connect 11 0 65 0;
#X connect 12 0 25 0;
#X connect 12 0 66 0;
#X connect 13 0 32 0;
#X connect 14 0 32 0;
#X connect 15 0 32 0;
#X connect 16 0 32 0;
#X connect 17 0 32 0;
#X connect 18 0 32 0;
#X connect 19 0 32 0;
#X connect 20 0 32 0;
#X connect 21 0 32 0;
#X connect 22 0 32 0;
#X connect 23 0 32 0;
#X connect 24 0 32 0;
#X connect 25 0 32 0;
#X connect 26 0 27 0;
#X connect 26 0 67 0;
#X connect 27 0 32 0;
#X connect 29 0 28 0;
#X connect 29 1 28 0;
#X connect 30 0 31 0;
#X connect 31 0 29 0;
#X connect 32 0 33 0;
#X connect 33 0 34 0;
#X connect 33 1 34 1;
#X connect 33 2 44 0;
#X connect 34 0 30 0;
#X connect 35 0 34 2;
#X connect 36 0 35 0;
#X connect 37 0 35 0;
#X connect 38 0 35 0;
#X connect 39 0 41 0;
#X connect 40 0 39 0;
#X connect 42 0 35 0;
#X connect 43 0 35 0;
#X connect 44 0 45 0;
#X connect 45 0 42 0;
#X connect 45 1 43 0;
#X connect 45 2 36 0;
#X connect 45 3 37 0;
#X connect 45 4 38 0;
#X connect 45 6 40 0;
#X connect 47 0 50 0;
#X connect 48 0 51 0;
#X connect 49 0 52 0;
#X connect 53 0 56 0;
#X connect 54 0 57 0;
#X connect 55 0 58 0;
#X connect 59 0 62 0;
#X connect 60 0 63 0;
#X connect 61 0 64 0;
#X connect 65 0 68 0;
#X connect 66 0 69 0;
#X connect 67 0 70 0;
#X restore 100 215 pd send-to-arduino---------------;
#X msg 100 468 pinMode 13 pwm;
#X obj 116 242 s \$0-r-by-Pin_13;
#X obj 132 263 s \$0-r-by-Pin_12;
#X obj 148 284 s \$0-r-by-Pin_11;
#X obj 165 305 s \$0-r-by-Pin_10;
#X obj 181 326 s \$0-r-by-Pin_9;
#X obj 197 347 s \$0-r-by-Pin_8;
#X obj 214 368 s \$0-r-by-Pin_7;
#X obj 230 389 s \$0-r-by-Pin_6;
#X obj 246 410 s \$0-r-by-Pin_5;
#X obj 263 430 s \$0-r-by-Pin_4;
#X obj 278 451 s \$0-r-by-Pin_3;
#X obj 295 472 s \$0-r-by-Pin_2;
#X connect 0 0 15 11;
#X connect 3 0 15 10;
#X connect 4 0 15 9;
#X connect 5 0 15 8;
#X connect 6 0 15 7;
#X connect 7 0 15 6;
#X connect 8 0 15 5;
#X connect 9 0 15 4;
#X connect 10 0 15 3;
#X connect 11 0 15 2;
#X connect 12 0 15 1;
#X connect 13 0 15 0;
#X connect 15 0 16 0;
#X connect 15 1 17 0;
#X connect 15 2 18 0;
#X connect 15 3 19 0;
#X connect 15 4 20 0;
#X connect 15 5 21 0;
#X connect 15 6 22 0;
#X connect 15 7 23 0;
#X connect 15 8 24 0;
#X connect 15 9 25 0;
#X connect 15 10 26 0;
#X connect 15 11 27 0;
#X connect 15 12 28 0;
#X connect 16 0 2 0;
#X coords 0 -1 1 1 193 90 2 100 100;
#X restore -31 59 pd pinMode;
#X text 165 132 servo;
#X text 165 117 pwm;
#X text 164 71 input;
#X text 164 86 output;
#X text 164 57 NONE;
#X obj -148 154 cnv 15 350 250 empty empty empty 20 12 0 14 -67964
-66577 0;
#X obj -70 156 tgl 15 0 empty empty 15 0 23 1 9 -162280 -1 -191407
0 1;
#X obj -36 156 tgl 15 0 empty empty 13 0 23 1 9 -262144 -262144 -262144
0 1;
#X obj -19 156 tgl 15 0 empty empty 12 0 23 1 9 -262144 -262144 -262144
0 1;
#X obj 15 156 tgl 15 0 empty empty 10 0 23 1 9 -262144 -262144 -262144
0 1;
#X obj -2 156 tgl 15 0 empty empty 11 0 23 1 9 -262144 -262144 -262144
0 1;
#X obj 32 156 tgl 15 0 empty empty 9 5 23 1 9 -262144 -262144 -262144
0 1;
#X obj 49 156 tgl 15 0 empty empty 8 5 23 1 9 -262144 -262144 -262144
0 1;
#X obj 66 156 tgl 15 0 empty empty 7 5 23 1 9 -262144 -262144 -262144
0 1;
#X obj 83 156 tgl 15 0 empty empty 6 5 23 1 9 -262144 -262144 -262144
0 1;
#X obj 100 156 tgl 15 0 empty empty 5 5 23 1 9 -262144 -262144 -262144
0 1;
#X obj 117 156 tgl 15 0 empty empty 4 5 23 1 9 -262144 -262144 -262144
0 1;
#X obj 134 156 tgl 15 0 empty empty 3 5 23 1 9 -262144 -262144 -262144
0 1;
#X obj 151 156 tgl 15 0 empty empty 2 5 23 1 9 -262144 -262144 -262144
0 1;
#X obj 168 156 tgl 15 0 empty empty 1 5 23 1 9 -162280 -262144 -191407
0 1;
#X obj 185 156 tgl 15 0 empty empty 0 5 23 1 9 -162280 -262144 -191407
0 1;
#X text 187 180 R;
#X text 187 191 X;
#X text 171 180 T;
#X text 171 191 X;
#X obj -53 156 tgl 15 0 empty empty 14 0 23 1 9 -162280 -1 -191407
0 1;
#X text -51 180 G;
#X text -51 191 N;
#X text -51 202 D;
#X text -68 181 A;
#X text -68 192 R;
#X text -68 202 E;
#X text -68 212 F;
#X obj 100 387 tgl 15 0 empty empty 16 0 -6 1 9 -262144 -262144 -262144
0 1;
#X obj 117 387 tgl 15 0 empty empty 17 0 -6 1 9 -262144 -262144 -262144
0 1;
#X obj 134 387 tgl 15 0 empty empty 18 0 -6 1 9 -262144 -262144 -262144
0 1;
#X obj 151 387 tgl 15 0 empty empty 19 0 -6 1 9 -262144 -262144 -262144
0 1;
#X obj 168 387 tgl 15 0 empty empty 20 0 -6 1 9 -262144 -262144 -262144
0 1;
#X obj 185 387 tgl 15 0 empty empty 21 0 -6 1 9 -262144 -262144 -262144
0 1;
#X text 44 219 Digital;
#X text -1 180 P;
#X text 0 191 W;
#X text -1 202 M;
#X text 17 180 P;
#X text 18 191 W;
#X text 17 202 M;
#X text 36 180 P;
#X text 37 191 W;
#X text 36 202 M;
#X text 86 180 P;
#X text 87 191 W;
#X text 86 202 M;
#X text 103 180 P;
#X text 104 191 W;
#X text 103 202 M;
#X text 137 180 P;
#X text 138 191 W;
#X text 137 202 M;
#X text 122 345 Analog in;
#X obj 60 387 tgl 15 0 empty empty empty 0 -6 1 9 -261234 -262144 -262144
0 1;
#X text 61 353 V;
#X text 62 363 i;
#X text 62 371 n;
#X obj 43 387 tgl 15 0 empty empty empty 0 23 1 9 -162280 -1 -191407
0 1;
#X text 44 349 G;
#X text 44 360 N;
#X text 44 371 D;
#X obj 26 387 tgl 15 0 empty empty empty 0 23 1 9 -162280 -1 -191407
0 1;
#X text 27 349 G;
#X text 27 360 N;
#X text 27 371 D;
#X obj 9 387 tgl 15 0 empty empty empty 0 -6 1 9 -261234 -262144 -262144
0 1;
#X text 10 360 5;
#X text 10 370 V;
#X obj -8 387 tgl 15 0 empty empty empty 0 -6 1 9 -261234 -262144 -262144
0 1;
#X text -7 370 V;
#X text -7 360 3;
#X text -7 350 3;
#X obj -25 387 tgl 15 0 empty empty empty 0 23 1 9 -162280 -1 -191407
0 1;
#X text -24 371 T;
#X text -24 349 R;
#X text -24 360 S;
#X text 98 360 A0;
#X text 116 360 A1;
#X text 133 360 A2;
#X text 149 360 A3;
#X text 166 360 A4;
#X text 183 360 A5;
#X text -136 266 White letters are showing the Pin Numbering Map for
;
#X text -137 281 Arduino UNO \, Duemilanove \, Nano \, Diecimila...
;
#X text -41 36 set your Digital pins on this panel:;
#X restore 611 246 pd open here to set Digital Pins;
#X obj 723 357 cnv 15 125 25 empty empty empty 5 10 1 14 -4034 -66577
0;
#N canvas 334 318 663 409 set 0;
#N canvas 381 292 476 465 pinMode 0;
#X obj 97 422 cnv 15 100 26 empty empty empty 20 12 0 14 -257985 -66577
0;
#X obj 100 426 s \$0-to-arduino;
#X obj 180 100 vradio 15 1 0 4 THIS_HIDES_THE_OUTLET ARDUINO_TEST_RESET
empty 2 68 1 10 -257985 -1 -1 0;
#X obj 164 100 vradio 15 1 0 4 THIS_HIDES_THE_OUTLET ARDUINO_TEST_RESET
empty 2 68 1 10 -257985 -1 -1 0;
#X obj 148 100 vradio 15 1 0 4 THIS_HIDES_THE_OUTLET ARDUINO_TEST_RESET
empty 2 68 1 10 -257985 -1 -1 0;
#X obj 132 100 vradio 15 1 0 4 THIS_HIDES_THE_OUTLET ARDUINO_TEST_RESET
empty 2 68 1 10 -257985 -1 -1 0;
#X obj 116 100 vradio 15 1 0 4 THIS_HIDES_THE_OUTLET ARDUINO_TEST_RESET
empty 2 68 1 10 -257985 -1 -1 0;
#X obj 100 100 vradio 15 1 0 4 THIS_HIDES_THE_OUTLET ARDUINO_TEST_RESET
empty 2 68 1 10 -257985 -1 -1 0;
#N canvas 187 158 916 571 send-to-arduino--------------- 0;
#X obj 298 19 inlet;
#X obj 260 19 inlet;
#X obj 220 18 inlet;
#X obj 182 18 inlet;
#X obj 143 18 inlet;
#X obj 103 18 inlet;
#X obj -12 551 outlet;
#X obj 235 501 trigger bang anything;
#X obj 235 456 list prepend set;
#X obj 235 478 list trim;
#X obj 235 297 list;
#X obj 236 319 unpack symbol float float;
#X obj 235 429 pack symbol float symbol;
#X obj 376 409 symbol;
#X msg 413 382 analog;
#X msg 461 382 pwm;
#X msg 491 382 servo;
#X obj 493 462 list trim;
#X obj 493 439 list prepend WARNING Unsupported pin mode:;
#X obj 493 484 print [arduino];
#X msg 322 382 input;
#X msg 363 382 output;
#X obj 382 338 - 1;
#X obj 382 357 select 0 1 2 3 4 -1;
#X text 511 356 (-1 == NONE);
#N canvas 0 0 458 458 label 0;
#X msg 119 84 I;
#X msg 148 84 O;
#X msg 210 84 P;
#X obj 302 279 list;
#X msg 302 308 label \$1;
#X obj 194 370 outlet;
#X msg 179 84 A;
#X obj 132 14 inlet;
#X msg 240 85 S;
#X obj 132 43 sel 0 1 2 3 4 5;
#X msg 86 84 N;
#X msg 106 321 color \$1 \$2 \$3;
#X msg 37 281 0 0 1;
#X msg 193 280 9 12 19;
#X msg 106 281 5 12 12;
#X text 37 242 NONE;
#X text 196 239 output;
#X text 87 257 digital/analog;
#X text 106 240 input;
#X text 183 258 digital/pwm/servo;
#X text 36 221 ____define toggle colors for____;
#X connect 0 0 3 0;
#X connect 0 0 14 0;
#X connect 1 0 3 0;
#X connect 1 0 13 0;
#X connect 2 0 3 0;
#X connect 2 0 13 0;
#X connect 3 0 4 0;
#X connect 4 0 5 0;
#X connect 6 0 3 0;
#X connect 6 0 14 0;
#X connect 7 0 9 0;
#X connect 8 0 3 0;
#X connect 8 0 13 0;
#X connect 9 0 10 0;
#X connect 9 1 0 0;
#X connect 9 2 1 0;
#X connect 9 3 6 0;
#X connect 9 4 2 0;
#X connect 9 5 8 0;
#X connect 10 0 3 0;
#X connect 10 0 12 0;
#X connect 11 0 5 0;
#X connect 12 0 11 0;
#X connect 13 0 11 0;
#X connect 14 0 11 0;
#X restore 312 187 pd label;
#N canvas 0 0 462 485 label 0;
#X msg 129 94 I;
#X msg 158 94 O;
#X msg 220 94 P;
#X obj 312 289 list;
#X msg 312 318 label \$1;
#X obj 204 380 outlet;
#X msg 189 94 A;
#X obj 142 24 inlet;
#X msg 250 95 S;
#X obj 142 53 sel 0 1 2 3 4 5;
#X msg 96 94 N;
#X msg 116 331 color \$1 \$2 \$3;
#X msg 47 291 0 0 1;
#X msg 203 290 9 12 19;
#X msg 116 291 5 12 12;
#X text 47 252 NONE;
#X text 206 249 output;
#X text 97 267 digital/analog;
#X text 116 250 input;
#X text 193 268 digital/pwm/servo;
#X text 46 231 ____define toggle colors for____;
#X connect 0 0 3 0;
#X connect 0 0 14 0;
#X connect 1 0 3 0;
#X connect 1 0 13 0;
#X connect 2 0 3 0;
#X connect 2 0 13 0;
#X connect 3 0 4 0;
#X connect 4 0 5 0;
#X connect 6 0 3 0;
#X connect 6 0 14 0;
#X connect 7 0 9 0;
#X connect 8 0 3 0;
#X connect 8 0 13 0;
#X connect 9 0 10 0;
#X connect 9 1 0 0;
#X connect 9 2 1 0;
#X connect 9 3 6 0;
#X connect 9 4 2 0;
#X connect 9 5 8 0;
#X connect 10 0 3 0;
#X connect 10 0 12 0;
#X connect 11 0 5 0;
#X connect 12 0 11 0;
#X connect 13 0 11 0;
#X connect 14 0 11 0;
#X restore 271 207 pd label;
#X obj 313 239 outlet;
#X obj 271 239 outlet;
#N canvas 0 0 410 411 label 0;
#X obj 188 377 outlet;
#X obj 132 17 inlet;
#X msg 119 84 I;
#X msg 148 84 O;
#X msg 210 84 P;
#X obj 302 279 list;
#X msg 302 308 label \$1;
#X msg 179 84 A;
#X msg 240 85 S;
#X obj 132 43 sel 0 1 2 3 4 5;
#X msg 86 84 N;
#X msg 106 321 color \$1 \$2 \$3;
#X msg 37 281 0 0 1;
#X msg 193 280 9 12 19;
#X msg 106 281 5 12 12;
#X text 37 242 NONE;
#X text 196 239 output;
#X text 87 257 digital/analog;
#X text 106 240 input;
#X text 183 258 digital/pwm/servo;
#X text 36 221 ____define toggle colors for____;
#X connect 1 0 9 0;
#X connect 2 0 5 0;
#X connect 2 0 14 0;
#X connect 3 0 5 0;
#X connect 3 0 13 0;
#X connect 4 0 5 0;
#X connect 4 0 13 0;
#X connect 5 0 6 0;
#X connect 6 0 0 0;
#X connect 7 0 5 0;
#X connect 7 0 14 0;
#X connect 8 0 5 0;
#X connect 8 0 13 0;
#X connect 9 0 10 0;
#X connect 9 1 2 0;
#X connect 9 2 3 0;
#X connect 9 3 7 0;
#X connect 9 4 4 0;
#X connect 9 5 8 0;
#X connect 10 0 5 0;
#X connect 10 0 12 0;
#X connect 11 0 0 0;
#X connect 12 0 11 0;
#X connect 13 0 11 0;
#X connect 14 0 11 0;
#X restore 229 167 pd label;
#N canvas 0 0 458 458 label 0;
#X msg 119 84 I;
#X msg 148 84 O;
#X msg 210 84 P;
#X obj 302 279 list;
#X msg 302 308 label \$1;
#X obj 194 370 outlet;
#X msg 179 84 A;
#X obj 132 14 inlet;
#X msg 240 85 S;
#X obj 132 43 sel 0 1 2 3 4 5;
#X msg 86 84 N;
#X msg 106 321 color \$1 \$2 \$3;
#X msg 37 281 0 0 1;
#X msg 193 280 9 12 19;
#X msg 106 281 5 12 12;
#X text 37 242 NONE;
#X text 196 239 output;
#X text 87 257 digital/analog;
#X text 106 240 input;
#X text 183 258 digital/pwm/servo;
#X text 36 221 ____define toggle colors for____;
#X connect 0 0 3 0;
#X connect 0 0 14 0;
#X connect 1 0 3 0;
#X connect 1 0 13 0;
#X connect 2 0 3 0;
#X connect 2 0 13 0;
#X connect 3 0 4 0;
#X connect 4 0 5 0;
#X connect 6 0 3 0;
#X connect 6 0 14 0;
#X connect 7 0 9 0;
#X connect 8 0 3 0;
#X connect 8 0 13 0;
#X connect 9 0 10 0;
#X connect 9 1 0 0;
#X connect 9 2 1 0;
#X connect 9 3 6 0;
#X connect 9 4 2 0;
#X connect 9 5 8 0;
#X connect 10 0 3 0;
#X connect 10 0 12 0;
#X connect 11 0 5 0;
#X connect 12 0 11 0;
#X connect 13 0 11 0;
#X connect 14 0 11 0;
#X restore 186 187 pd label;
#N canvas 0 0 462 485 label 0;
#X msg 129 94 I;
#X msg 158 94 O;
#X msg 220 94 P;
#X obj 312 289 list;
#X msg 312 318 label \$1;
#X obj 204 380 outlet;
#X msg 189 94 A;
#X obj 142 24 inlet;
#X msg 250 95 S;
#X obj 142 53 sel 0 1 2 3 4 5;
#X msg 96 94 N;
#X msg 116 331 color \$1 \$2 \$3;
#X msg 47 291 0 0 1;
#X msg 203 290 9 12 19;
#X msg 116 291 5 12 12;
#X text 47 252 NONE;
#X text 206 249 output;
#X text 97 267 digital/analog;
#X text 116 250 input;
#X text 193 268 digital/pwm/servo;
#X text 46 231 ____define toggle colors for____;
#X connect 0 0 3 0;
#X connect 0 0 14 0;
#X connect 1 0 3 0;
#X connect 1 0 13 0;
#X connect 2 0 3 0;
#X connect 2 0 13 0;
#X connect 3 0 4 0;
#X connect 4 0 5 0;
#X connect 6 0 3 0;
#X connect 6 0 14 0;
#X connect 7 0 9 0;
#X connect 8 0 3 0;
#X connect 8 0 13 0;
#X connect 9 0 10 0;
#X connect 9 1 0 0;
#X connect 9 2 1 0;
#X connect 9 3 6 0;
#X connect 9 4 2 0;
#X connect 9 5 8 0;
#X connect 10 0 3 0;
#X connect 10 0 12 0;
#X connect 11 0 5 0;
#X connect 12 0 11 0;
#X connect 13 0 11 0;
#X connect 14 0 11 0;
#X restore 145 207 pd label;
#X obj 229 239 outlet;
#X obj 187 239 outlet;
#X obj 145 239 outlet;
#X msg 103 65 pinMode 16 \$1;
#X msg 143 45 pinMode 17 \$1;
#X msg 182 117 pinMode 18 \$1;
#X msg 220 97 pinMode 19 \$1;
#X msg 260 76 pinMode 20 \$1;
#X msg 298 53 pinMode 21 \$1;
#N canvas 0 0 458 458 label 0;
#X msg 119 84 I;
#X msg 148 84 O;
#X msg 210 84 P;
#X obj 302 279 list;
#X msg 302 308 label \$1;
#X obj 194 370 outlet;
#X msg 179 84 A;
#X obj 132 14 inlet;
#X msg 240 85 S;
#X obj 132 43 sel 0 1 2 3 4 5;
#X msg 86 84 N;
#X msg 106 321 color \$1 \$2 \$3;
#X msg 37 281 0 0 1;
#X msg 193 280 9 12 19;
#X msg 106 281 5 12 12;
#X text 37 242 NONE;
#X text 196 239 output;
#X text 87 257 digital/analog;
#X text 106 240 input;
#X text 183 258 digital/pwm/servo;
#X text 36 221 ____define toggle colors for____;
#X connect 0 0 3 0;
#X connect 0 0 14 0;
#X connect 1 0 3 0;
#X connect 1 0 13 0;
#X connect 2 0 3 0;
#X connect 2 0 13 0;
#X connect 3 0 4 0;
#X connect 4 0 5 0;
#X connect 6 0 3 0;
#X connect 6 0 14 0;
#X connect 7 0 9 0;
#X connect 8 0 3 0;
#X connect 8 0 13 0;
#X connect 9 0 10 0;
#X connect 9 1 0 0;
#X connect 9 2 1 0;
#X connect 9 3 6 0;
#X connect 9 4 2 0;
#X connect 9 5 8 0;
#X connect 10 0 3 0;
#X connect 10 0 12 0;
#X connect 11 0 5 0;
#X connect 12 0 11 0;
#X connect 13 0 11 0;
#X connect 14 0 11 0;
#X restore 355 166 pd label;
#X obj 355 239 outlet;
#X connect 0 0 40 0;
#X connect 1 0 39 0;
#X connect 1 0 25 0;
#X connect 2 0 38 0;
#X connect 2 0 26 0;
#X connect 3 0 37 0;
#X connect 3 0 29 0;
#X connect 4 0 36 0;
#X connect 4 0 30 0;
#X connect 5 0 35 0;
#X connect 5 0 31 0;
#X connect 7 0 6 0;
#X connect 7 1 6 0;
#X connect 8 0 9 0;
#X connect 9 0 7 0;
#X connect 10 0 11 0;
#X connect 11 0 12 0;
#X connect 11 1 12 1;
#X connect 11 2 22 0;
#X connect 12 0 8 0;
#X connect 13 0 12 2;
#X connect 14 0 13 0;
#X connect 15 0 13 0;
#X connect 16 0 13 0;
#X connect 17 0 19 0;
#X connect 18 0 17 0;
#X connect 20 0 13 0;
#X connect 21 0 13 0;
#X connect 22 0 23 0;
#X connect 23 0 20 0;
#X connect 23 1 21 0;
#X connect 23 2 14 0;
#X connect 23 3 15 0;
#X connect 23 4 16 0;
#X connect 23 6 18 0;
#X connect 25 0 27 0;
#X connect 26 0 28 0;
#X connect 29 0 32 0;
#X connect 30 0 33 0;
#X connect 31 0 34 0;
#X connect 35 0 10 0;
#X connect 36 0 10 0;
#X connect 37 0 10 0;
#X connect 38 0 10 0;
#X connect 39 0 10 0;
#X connect 40 0 10 0;
#X connect 40 0 41 0;
#X connect 41 0 42 0;
#X restore 100 215 pd send-to-arduino---------------;
#X msg 100 392 pinMode 16 output;
#X obj 132 239 s \$0-r-by-Pin_16;
#X obj 165 261 s \$0-r-by-Pin_17;
#X obj 197 283 s \$0-r-by-Pin_18;
#X obj 231 304 s \$0-r-by-Pin_19;
#X obj 262 325 s \$0-r-by-Pin_20;
#X obj 295 346 s \$0-r-by-Pin_21;
#X connect 2 0 8 5;
#X connect 3 0 8 4;
#X connect 4 0 8 3;
#X connect 5 0 8 2;
#X connect 6 0 8 1;
#X connect 7 0 8 0;
#X connect 8 0 9 0;
#X connect 8 1 10 0;
#X connect 8 2 11 0;
#X connect 8 3 12 0;
#X connect 8 4 13 0;
#X connect 8 5 14 0;
#X connect 8 6 15 0;
#X connect 9 0 1 0;
#X coords 0 -1 1 1 95 61 2 100 100;
#X restore 424 300 pd pinMode;
#X text 523 312 input;
#X text 523 327 output;
#X text 523 298 NONE;
#X text 523 343 analog;
#X obj 171 43 cnv 15 350 250 empty empty empty 20 12 0 14 -67964 -66577
0;
#X obj 249 45 tgl 15 0 empty empty 15 0 23 1 9 -162280 -1 -191407 0
1;
#X obj 283 45 tgl 15 0 empty empty 13 0 23 1 9 -262144 -262144 -262144
0 1;
#X obj 300 45 tgl 15 0 empty empty 12 0 23 1 9 -262144 -262144 -262144
0 1;
#X obj 334 45 tgl 15 0 empty empty 10 0 23 1 9 -262144 -262144 -262144
0 1;
#X obj 317 45 tgl 15 0 empty empty 11 0 23 1 9 -262144 -262144 -262144
0 1;
#X obj 351 45 tgl 15 0 empty empty 9 5 23 1 9 -262144 -262144 -262144
0 1;
#X obj 368 45 tgl 15 0 empty empty 8 5 23 1 9 -262144 -262144 -262144
0 1;
#X obj 385 45 tgl 15 0 empty empty 7 5 23 1 9 -262144 -262144 -262144
0 1;
#X obj 402 45 tgl 15 0 empty empty 6 5 23 1 9 -262144 -262144 -262144
0 1;
#X obj 419 45 tgl 15 0 empty empty 5 5 23 1 9 -262144 -262144 -262144
0 1;
#X obj 436 45 tgl 15 0 empty empty 4 5 23 1 9 -262144 -262144 -262144
0 1;
#X obj 453 45 tgl 15 0 empty empty 3 5 23 1 9 -262144 -262144 -262144
0 1;
#X obj 470 45 tgl 15 0 empty empty 2 5 23 1 9 -262144 -262144 -262144
0 1;
#X obj 487 45 tgl 15 0 empty empty 1 5 23 1 9 -162280 -262144 -191407
0 1;
#X obj 504 45 tgl 15 0 empty empty 0 5 23 1 9 -162280 -262144 -191407
0 1;
#X text 506 69 R;
#X text 506 80 X;
#X text 490 69 T;
#X text 490 80 X;
#X obj 266 45 tgl 15 0 empty empty 14 0 23 1 9 -162280 -1 -191407 0
1;
#X text 268 69 G;
#X text 268 80 N;
#X text 268 91 D;
#X text 251 70 A;
#X text 251 81 R;
#X text 251 91 E;
#X text 251 101 F;
#X obj 419 276 tgl 15 0 empty empty 16 0 -6 1 9 -262144 -262144 -262144
0 1;
#X obj 436 276 tgl 15 0 empty empty 17 0 -6 1 9 -262144 -262144 -262144
0 1;
#X obj 453 276 tgl 15 0 empty empty 18 0 -6 1 9 -262144 -262144 -262144
0 1;
#X obj 470 276 tgl 15 0 empty empty 19 0 -6 1 9 -262144 -262144 -262144
0 1;
#X obj 487 276 tgl 15 0 empty empty 20 0 -6 1 9 -262144 -262144 -262144
0 1;
#X obj 504 276 tgl 15 0 empty empty 21 0 -6 1 9 -262144 -262144 -262144
0 1;
#X text 363 108 Digital;
#X text 318 69 P;
#X text 319 80 W;
#X text 318 91 M;
#X text 336 69 P;
#X text 337 80 W;
#X text 336 91 M;
#X text 355 69 P;
#X text 356 80 W;
#X text 355 91 M;
#X text 405 69 P;
#X text 406 80 W;
#X text 405 91 M;
#X text 422 69 P;
#X text 423 80 W;
#X text 422 91 M;
#X text 456 69 P;
#X text 457 80 W;
#X text 456 91 M;
#X text 441 234 Analog in;
#X obj 379 276 tgl 15 0 empty empty empty 0 -6 1 9 -261234 -262144
-262144 0 1;
#X text 380 242 V;
#X text 381 252 i;
#X text 381 260 n;
#X obj 362 276 tgl 15 0 empty empty empty 0 23 1 9 -162280 -1 -191407
0 1;
#X text 363 238 G;
#X text 363 249 N;
#X text 363 260 D;
#X obj 345 276 tgl 15 0 empty empty empty 0 23 1 9 -162280 -1 -191407
0 1;
#X text 346 238 G;
#X text 346 249 N;
#X text 346 260 D;
#X obj 328 276 tgl 15 0 empty empty empty 0 -6 1 9 -261234 -262144
-262144 0 1;
#X text 329 249 5;
#X text 329 259 V;
#X obj 311 276 tgl 15 0 empty empty empty 0 -6 1 9 -261234 -262144
-262144 0 1;
#X text 312 259 V;
#X text 312 249 3;
#X text 312 239 3;
#X obj 294 276 tgl 15 0 empty empty empty 0 23 1 9 -162280 -1 -191407
0 1;
#X text 295 260 T;
#X text 295 238 R;
#X text 295 249 S;
#X text 417 249 A0;
#X text 435 249 A1;
#X text 452 249 A2;
#X text 468 249 A3;
#X text 485 249 A4;
#X text 502 249 A5;
#X text 183 155 White letters are showing the Pin Numbering Map for
;
#X text 182 170 Arduino UNO \, Duemilanove \, Nano \, Diecimila...
;
#X text 408 364 set your Analog Pins;
#X text 408 376 on this panel;
#X restore 730 361 pd set Analog Pins;
#X obj 18 12 declare -path includes;
#X obj 16 41 inlet;
#X obj 17 127 cnv 15 240 80 empty empty empty 20 12 0 14 -204786 -66577
0;
#X obj 29 434 outlet;
#X obj 137 436 outlet;
#X obj 25 180 s \$0.ARDUINO.OUT;
#X obj 138 181 s \$0.ARDUINO.INFO;
#X obj 25 157 arduino;
#X obj 25 134 r \$0.ARDUINO.TO;
#X obj 29 411 r \$0.ARDUINO.OUT;
#X obj 137 412 r \$0.ARDUINO.INFO;
#X obj 603 107 s \$0.ARDUINO.TO;
#X obj 16 63 s \$0.ARDUINO.IN;
#N canvas 626 145 455 241 EXPLAIN 0;
#X text 6 62 \$0.ARDUINO.OUT;
#X text 6 89 \$0.ARDUINO.INFO;
#X text 6 116 \$0.ARDUINO.INTERN;
#X text 6 35 \$0.ARDUINO.TO;
#X text 6 8 \$0.ARDUINO.IN;
#X text 124 117 <- GOP-internal Communication;
#X text 124 90 <- Arduino Status Messages (sent to outlet1);
#X text 124 62 <- Arduino Pin Messages (sent to outlet0);
#X text 124 7 <- external commands (modules are listening here);
#X text 124 35 <- Commands sent from modules -> [arduino];
#X restore 177 133 pd EXPLAIN;
#X obj 268 18 cnv 15 200 250 empty empty empty 20 12 0 14 -203904 -66577
0;
#X obj 276 81 agop.firmware.check \$0;
#X text 275 25 device selector;
#X text 276 63 firmware check;
#X obj 280 46 agop.device.selector \$0;
#X obj 35 287 r \$0.ARDUINO.INTERN;
#X obj 35 309 route ready;
#X obj 35 350 tgl 15 0 empty empty empty 17 7 0 10 -262144 -1 -1 1
1;
#X text 53 348 <- Arduino fully ready?;
#N canvas 925 331 412 218 pin.capabilities 0;
#X obj 30 93 tgl 15 0 empty empty O 3 7 0 10 -262144 -1 -1 0 1;
#X obj 49 93 tgl 15 0 empty empty I 3 7 0 10 -262144 -1 -1 0 1;
#X obj 68 93 tgl 15 0 empty empty P 3 7 0 10 -262144 -1 -1 0 1;
#X obj 87 93 tgl 15 0 empty empty S 3 7 0 10 -262144 -1 -1 0 1;
#N canvas 1106 233 200 286 bitmask 0;
#X obj 55 58 << 1;
#X obj 145 59 << 3;
#X obj 40 117 +;
#X obj 40 148 +;
#X obj 40 177 +;
#X obj 55 80 t b a;
#X obj 98 106 t b a;
#X obj 145 136 t b a;
#X obj 13 23 inlet;
#X obj 55 24 inlet;
#X obj 98 24 inlet;
#X obj 145 24 inlet;
#X obj 40 239 outlet;
#X obj 98 60 << 2;
#X connect 0 0 5 0;
#X connect 1 0 7 0;
#X connect 2 0 3 0;
#X connect 3 0 4 0;
#X connect 4 0 12 0;
#X connect 5 0 2 0;
#X connect 5 1 2 1;
#X connect 6 0 3 0;
#X connect 6 1 3 1;
#X connect 7 0 4 0;
#X connect 7 1 4 1;
#X connect 8 0 2 0;
#X connect 9 0 0 0;
#X connect 10 0 13 0;
#X connect 11 0 1 0;
#X connect 13 0 6 0;
#X restore 30 113 pd bitmask;
#N canvas 0 0 450 300 (subpatch) 0;
#X array \$0.ARDUINO.PIN.MODES 128 float 3;
#A 0 0 0 3 15 3 15 15 3 3 15 15 15 3 3 0 0 0 0 0 0 0 0 0 0 0 0 0 0
0 0 0 0 0 0 0 0 0 0 0 0 0 0 0 0 0 0 0 0 0 0 0 0 0 0 0 0 0 0 0 0 0 0
0 0 0 0 0 0 0 0 0 0 0 0 0 0 0 0 0 0 0 0 0 0 0 0 0 0 0 0 0 0 0 0 0 0
0 0 0 0 0 0 0 0 0 0 0 0 0 0 0 0 0 0 0 0 0 0 0 0 0 0 0 0 0 0 0 0;
#X coords 0 16 128 0 256 32 1 0 0;
#X restore 18 26 graph;
#X obj 30 166 tabwrite \$0.ARDUINO.PIN.MODES;
#X floatatom 122 97 5 0 0 0 - - -;
#X text 159 98 Pin no.;
#X floatatom 30 138 5 0 0 0 - - -;
#X connect 0 0 4 0;
#X connect 1 0 4 1;
#X connect 2 0 4 2;
#X connect 3 0 4 3;
#X connect 4 0 9 0;
#X connect 7 0 6 1;
#X connect 9 0 6 0;
#X restore 276 285 pd pin.capabilities;
#X obj 283 120 agop.digital.pin \$0 10;
#X obj 286 206 agop.tx.led \$0;
#X text 311 120 digital pin;
#X text 309 201 TX LED;
#X obj 286 227 agop.rx.led \$0;
#X text 309 221 RX LED;
#X obj 49 242 s \$0.ARDUINO.TO;
#X floatatom 52 219 5 0 0 0 - - -;
#X obj 150 256 s \$0.ARDUINO.OUT;
#X floatatom 173 234 5 0 0 0 - - -;
#X connect 61 0 62 0;
#X connect 63 0 61 0;
#X connect 100 0 123 0;
#X connect 101 0 100 0;
#X connect 102 0 123 0;
#X connect 113 0 124 0;
#X connect 119 0 117 0;
#X connect 119 1 118 0;
#X connect 120 0 119 0;
#X connect 121 0 115 0;
#X connect 122 0 116 0;
#X connect 131 0 132 0;
#X connect 132 0 133 0;
#X connect 143 0 142 0;
#X connect 145 0 144 0;
