#N canvas 63 128 995 775 10;
#X declare -path includes;
#X obj 560 249 cnv 15 350 250 empty empty empty 20 12 0 14 -67964 -66577
0;
#X obj 638 251 tgl 15 0 \$0-s-by-Pin_15 \$0-r-by-Pin_15 15 0 23 1 9
-162280 -1 -191407 0 1;
#X obj 859 251 tgl 15 0 \$0-s-by-Pin_2 \$0-r-by-Pin_2 N 4 8 1 9 -262144
-262144 -166441 0 1;
#X obj 876 251 tgl 15 0 \$0-s-by-Pin_1 \$0-r-by-Pin_1 1 5 23 1 9 -162280
-262144 -191407 0 1;
#X obj 893 251 tgl 15 0 \$0-s-by-Pin_0 \$0-r-by-Pin_0 0 5 23 1 9 -162280
-262144 -191407 0 1;
#X text 895 278 R;
#X text 895 289 X;
#X text 879 278 T;
#X text 879 289 X;
#X obj 655 251 tgl 15 0 \$0-s-by-Pin_14 \$0-r-by-Pin_14 14 0 23 1 9
-162280 -1 -191407 0 1;
#X text 657 289 N;
#X text 657 300 D;
#X text 640 279 A;
#X text 640 290 R;
#X text 640 300 E;
#X text 640 310 F;
#X text 752 312 Digital;
#X text 707 278 P;
#X text 708 289 W;
#X text 707 300 M;
#X text 725 278 P;
#X text 726 289 W;
#X text 725 300 M;
#X text 744 278 P;
#X text 745 289 W;
#X text 744 300 M;
#X text 794 278 P;
#X text 795 289 W;
#X text 794 300 M;
#X text 811 278 P;
#X text 812 289 W;
#X text 811 300 M;
#X text 845 277 P;
#X text 846 289 W;
#X text 845 300 M;
#X text 823 427 Analog in;
#X obj 768 482 tgl 15 0 empty empty empty 0 -6 1 9 -261234 -262144
-262144 0 1;
#X text 769 448 V;
#X text 770 458 i;
#X text 770 466 n;
#X obj 751 482 tgl 15 0 empty empty empty 0 23 1 9 -162280 -1 -191407
0 1;
#X text 752 444 G;
#X text 752 455 N;
#X text 752 466 D;
#X obj 734 482 tgl 15 0 empty empty empty 0 23 1 9 -162280 -1 -191407
0 1;
#X text 735 444 G;
#X text 735 455 N;
#X text 735 466 D;
#X obj 717 482 tgl 15 0 empty empty empty 0 -6 1 9 -261234 -262144
-262144 0 1;
#X text 718 455 5;
#X text 718 465 V;
#X obj 700 482 tgl 15 0 empty empty empty 0 -6 1 9 -261234 -1 -1 0
1;
#X text 701 465 V;
#X text 701 455 3;
#X text 701 445 3;
#X obj 683 482 tgl 15 0 empty empty empty 0 23 1 9 -162280 -1 -191407
0 1;
#X text 684 466 T;
#X text 684 444 R;
#X text 684 455 S;
#X text 587 361 White letters are showing the Pin Numbering Map for
;
#X text 586 376 Arduino UNO \, Duemilanove \, Nano \, Diecimila...
;
#N canvas 276 274 451 224 ver 0;
#X obj 23 7 inlet;
#X obj 250 100 cnv 15 145 17 empty \$0-version_cnv empty 4 10 0 12
-203904 -1 0;
#X obj 23 157 send \$0-version_cnv;
#X msg 23 132 label \$1;
#X obj 48 103 symbol;
#X obj 38 77 loadbang;
#X msg 96 78 bang;
#X obj 309 163 outlet;
#X obj 23 29 route version bang;
#X msg 23 53 symbol Firmata-\$1.\$2;
#X connect 0 0 8 0;
#X connect 3 0 2 0;
#X connect 4 0 3 0;
#X connect 5 0 4 0;
#X connect 6 0 4 0;
#X connect 8 0 9 0;
#X connect 8 1 7 0;
#X connect 8 1 6 0;
#X connect 8 2 7 0;
#X connect 9 0 3 0;
#X coords 0 -1 1 1 145 17 1 250 100;
#X restore 567 402 pd ver;
#N canvas 643 518 411 212 firmware 0;
#X obj 123 2 inlet;
#X obj 250 100 cnv 15 145 17 empty \$0-firmware_cnv empty 4 10 0 12
-232576 -66577 0;
#X msg 123 156 label \$1;
#X obj 148 127 symbol;
#X obj 138 101 loadbang;
#X msg 196 102 bang;
#X obj 123 181 send \$0-firmware_cnv;
#X obj 123 24 route firmware;
#X obj 18 181 print Firmware;
#X obj 123 49 list;
#X obj 18 151 list trim;
#X obj 204 45 route bang;
#X msg 123 72 symbol \$1-\$2.\$3;
#X connect 0 0 7 0;
#X connect 2 0 6 0;
#X connect 3 0 2 0;
#X connect 4 0 3 0;
#X connect 5 0 3 0;
#X connect 7 0 9 0;
#X connect 7 1 11 0;
#X connect 9 0 12 0;
#X connect 10 0 8 0;
#X connect 11 0 5 0;
#X connect 12 0 2 0;
#X connect 12 0 10 0;
#X coords 0 -1 1 1 145 17 1 250 100;
#X restore 567 422 pd firmware;
#N canvas 51 306 404 287 device 0;
#X obj 35 60 inlet;
#X obj 35 118 route open port ports;
#X obj 35 169 tgl 15 0 empty empty open -3 20 0 10 -262144 -1 -1 0
1;
#X floatatom 76 170 5 0 0 3 port - -;
#X obj 117 170 print comport_ports;
#X obj 252 170 outlet;
#X obj 235 74 receive ARDUINO_TEST_RESET;
#X obj 235 97 bang;
#X connect 0 0 1 0;
#X connect 1 0 2 0;
#X connect 1 1 3 0;
#X connect 1 2 4 0;
#X connect 1 3 5 0;
#X connect 6 0 7 0;
#X connect 7 0 5 0;
#X restore 567 229 pd device info;
#X obj 763 501 cnv 15 148 140 empty empty empty 5 7 1 14 -233017 -66577
0;
#X obj 842 251 tgl 15 0 \$0-s-by-Pin_3 \$0-r-by-Pin_3 N 4 8 1 9 -262144
-262144 -166441 0 1;
#X obj 825 251 tgl 15 0 \$0-s-by-Pin_4 \$0-r-by-Pin_4 N 4 8 1 9 -262144
-262144 -166441 0 1;
#X obj 808 251 tgl 15 0 \$0-s-by-Pin_5 \$0-r-by-Pin_5 N 4 8 1 9 -262144
-262144 -166441 0 1;
#X obj 791 251 tgl 15 0 \$0-s-by-Pin_6 \$0-r-by-Pin_6 N 4 8 1 9 -262144
-262144 -166441 0 1;
#X obj 774 251 tgl 15 0 \$0-s-by-Pin_7 \$0-r-by-Pin_7 N 4 8 1 9 -262144
-262144 -166441 0 1;
#X obj 757 251 tgl 15 0 \$0-s-by-Pin_8 \$0-r-by-Pin_8 N 4 8 1 9 -262144
-262144 -166441 0 1;
#X obj 740 251 tgl 15 0 \$0-s-by-Pin_9 \$0-r-by-Pin_9 N 4 8 1 9 -262144
-262144 -166441 0 1;
#X obj 723 251 tgl 15 0 \$0-s-by-Pin_10 \$0-r-by-Pin_10 N 4 8 1 9 -262144
-262144 -166441 0 1;
#X obj 706 251 tgl 15 0 \$0-s-by-Pin_11 \$0-r-by-Pin_11 N 4 8 1 9 -262144
-262144 -166441 0 1;
#X obj 689 251 tgl 15 0 \$0-s-by-Pin_12 \$0-r-by-Pin_12 N 4 8 1 9 -262144
-262144 -166441 0 1;
#X obj 672 251 tgl 15 0 \$0-s-by-Pin_13 \$0-r-by-Pin_13 N 4 8 1 9 -262144
-262144 -166441 0 1;
#X text 862 264 2;
#X text 844 263 3;
#X text 827 263 4;
#X text 811 263 5;
#X text 794 263 6;
#X text 776 263 7;
#X text 759 263 8;
#X text 742 263 9;
#X text 722 263 10;
#X text 705 263 11;
#X text 688 263 12;
#X text 672 263 13;
#X text 657 278 G;
#X obj 808 482 tgl 15 0 \$0-s-by-Pin_16 \$0-r-by-Pin_16 N 4 8 1 9 -262144
-262144 -166441 0 1;
#X obj 825 482 tgl 15 0 \$0-s-by-Pin_17 \$0-r-by-Pin_17 N 4 8 1 9 -262144
-262144 -166441 0 1;
#X obj 842 482 tgl 15 0 \$0-s-by-Pin_18 \$0-r-by-Pin_18 N 4 8 1 9 -262144
-262144 -166441 0 1;
#X obj 859 482 tgl 15 0 \$0-s-by-Pin_19 \$0-r-by-Pin_19 N 4 8 1 9 -262144
-262144 -166441 0 1;
#X obj 876 482 tgl 15 0 \$0-s-by-Pin_20 \$0-r-by-Pin_20 N 4 8 1 9 -262144
-262144 -166441 0 1;
#X obj 893 482 tgl 15 0 \$0-s-by-Pin_21 \$0-r-by-Pin_21 N 4 8 1 9 -262144
-262144 -166441 0 1;
#X text 810 465 A0;
#X text 828 465 A1;
#X text 844 465 A2;
#X text 860 465 A3;
#X text 876 465 A4;
#X text 891 465 A5;
#N canvas 518 405 484 432 (subpatch) 0;
#X floatatom -57 -65 5 0 0 3 a0 - -;
#X floatatom -11 -65 5 0 0 3 a1 - -;
#X floatatom 35 -65 5 0 0 3 a2 - -;
#X floatatom 81 -65 5 0 0 3 a3 - -;
#X floatatom 127 -65 5 0 0 3 a4 - -;
#X floatatom 173 -65 5 0 0 3 a5 - -;
#X floatatom 219 -65 5 0 0 3 a6 - -;
#X floatatom 265 -65 5 0 0 3 a7 - -;
#X obj 42 -122 route 0 1 2 3 4 5 6 7;
#X text -70 -122 analog inputs:;
#N canvas 0 76 499 396 display 0;
#X obj 21 7 inlet;
#X obj 6 50 outlet;
#X obj 69 50 inlet;
#X obj 54 93 outlet;
#X obj 118 93 inlet;
#X obj 103 136 outlet;
#X obj 166 136 inlet;
#X obj 151 179 outlet;
#X obj 215 179 inlet;
#X obj 200 222 outlet;
#X obj 262 222 inlet;
#X obj 247 265 outlet;
#X obj 310 265 inlet;
#X obj 295 308 outlet;
#X obj 360 308 inlet;
#X obj 345 351 outlet;
#X obj 6 28 f;
#X obj 54 71 f;
#X obj 103 114 f;
#X obj 151 157 f;
#X obj 200 200 f;
#X obj 247 244 f;
#X obj 295 286 f;
#X obj 345 329 f;
#X obj 56 246 loadbang;
#X obj 56 268 metro 100;
#X obj 56 305 t b b b b b b b b;
#X connect 0 0 16 1;
#X connect 2 0 17 1;
#X connect 4 0 18 1;
#X connect 6 0 19 1;
#X connect 8 0 20 1;
#X connect 10 0 21 1;
#X connect 12 0 22 1;
#X connect 14 0 23 1;
#X connect 16 0 1 0;
#X connect 17 0 3 0;
#X connect 18 0 5 0;
#X connect 19 0 7 0;
#X connect 20 0 9 0;
#X connect 21 0 11 0;
#X connect 22 0 13 0;
#X connect 23 0 15 0;
#X connect 24 0 25 0;
#X connect 25 0 26 0;
#X connect 26 0 16 0;
#X connect 26 1 17 0;
#X connect 26 2 18 0;
#X connect 26 3 19 0;
#X connect 26 4 20 0;
#X connect 26 5 21 0;
#X connect 26 6 22 0;
#X connect 26 7 23 0;
#X restore -28 -93 pd display values without pegging the CPU;
#X obj 37 -187 cnv 15 110 26 empty empty empty 20 12 0 14 -159808 -66577
0;
#X obj 1 3 vsl 15 128 0 1 0 0 empty empty empty 0 -9 0 10 -232576 -1
-1 0 1;
#X text -10 118 0;
#X text -10 -2 1;
#X obj 18 3 vsl 15 128 0 1 0 0 empty empty empty 0 -9 0 10 -232576
-1 -1 0 1;
#X obj 35 3 vsl 15 128 0 1 0 0 empty empty empty 0 -9 0 10 -232576
-1 -1 0 1;
#X obj 52 3 vsl 15 128 0 1 0 0 empty empty empty 0 -9 0 10 -232576
-1 -1 0 1;
#X obj 69 3 vsl 15 128 0 1 0 0 empty empty empty 0 -9 0 10 -232576
-1 -1 0 1;
#X obj 86 3 vsl 15 128 0 1 0 0 empty empty empty 0 -9 0 10 -232576
-1 -1 0 1;
#X obj 42 -147 route analog;
#X obj 42 -183 r \$0-arduino-out;
#X obj -57 -22 outlet;
#X obj -11 -22 outlet;
#X obj 33 -22 outlet;
#X obj 79 -22 outlet;
#X obj 122 -22 outlet;
#X obj 168 -22 outlet;
#X connect 0 0 12 0;
#X connect 0 0 22 0;
#X connect 1 0 15 0;
#X connect 1 0 23 0;
#X connect 2 0 16 0;
#X connect 2 0 24 0;
#X connect 3 0 17 0;
#X connect 3 0 25 0;
#X connect 4 0 18 0;
#X connect 4 0 26 0;
#X connect 5 0 19 0;
#X connect 5 0 27 0;
#X connect 8 0 10 0;
#X connect 8 1 10 1;
#X connect 8 2 10 2;
#X connect 8 3 10 3;
#X connect 8 4 10 4;
#X connect 8 5 10 5;
#X connect 8 6 10 6;
#X connect 8 7 10 7;
#X connect 10 0 0 0;
#X connect 10 1 1 0;
#X connect 10 2 2 0;
#X connect 10 3 3 0;
#X connect 10 4 4 0;
#X connect 10 5 5 0;
#X connect 10 6 6 0;
#X connect 10 7 7 0;
#X connect 20 0 8 0;
#X connect 21 0 20 0;
#X coords 0 1 100 -1 102 136 1 0 0;
#X restore 805 503 graph;
#X obj 456 469 cnv 15 100 26 empty empty empty 20 12 0 14 -257985 -66577
0;
#X obj 461 473 s \$0-to-arduino;
#X text 796 623 0;
#X text 796 500 1;
#X text 764 548 analog;
#X obj 417 287 cnv 15 70 40 empty empty empty 20 12 0 14 -258113 -66577
0;
#X obj 420 296 bng 20 250 50 0 empty empty empty 17 7 0 10 -261234
-1 -1;
#X text 419 328 2 select devices;
#N canvas 150 314 413 393 list_ports 0;
#X obj -22 149 route ports;
#X msg -22 171 \$2;
#X msg -87 68 ports;
#X obj -22 194 list prepend;
#X obj 59 194 t a;
#X obj -104 252 list append;
#X obj -104 312 list trim;
#X obj -121 44 t b b b b;
#X obj -104 286 list prepend set.list close;
#X obj -104 350 outlet;
#X text -59 350 outputs device list;
#X obj -121 21 inlet;
#X msg -190 252 set.default;
#X obj -90 89 cnv 15 100 26 empty empty empty 20 12 0 14 -257985 -66577
0;
#X obj -87 94 s \$0-to-arduino;
#X obj -24 119 cnv 15 110 26 empty empty empty 20 12 0 14 -159808 -66577
0;
#X obj -22 123 r \$0-arduino-info;
#X connect 0 0 1 0;
#X connect 1 0 3 0;
#X connect 2 0 14 0;
#X connect 3 0 4 0;
#X connect 3 0 5 1;
#X connect 4 0 3 1;
#X connect 5 0 8 0;
#X connect 6 0 9 0;
#X connect 7 0 12 0;
#X connect 7 1 5 0;
#X connect 7 2 2 0;
#X connect 7 3 3 1;
#X connect 7 3 5 1;
#X connect 8 0 6 0;
#X connect 11 0 7 0;
#X connect 12 0 9 0;
#X connect 16 0 0 0;
#X restore 425 365 pd list_ports;
#X obj 425 384 s \$0.device_list;
#X msg 623 79 digital 13 \$1;
#X obj 623 61 tgl 15 0 empty empty empty 0 -6 0 8 -262144 -1 -1 0 1
;
#X msg 603 22 pinMode 13 output;
#X text 639 58 <- toggle pin 13 on and off;
#X text 728 27 output mode;
#X text 727 15 set pin 13 to;
#X text 711 22 <-;
#X obj 599 102 cnv 15 100 26 empty empty empty 20 12 0 14 -257985 -66577
0;
#N canvas 0 0 284 286 device_selection 0;
#X obj 66 134 route symbol float;
#X obj 66 63 route return;
#X obj 66 84 list;
#X obj 81 110 print \$0.device_list;
#X obj 66 166 select close;
#X msg 66 186 close;
#X msg 135 186 devicename \$1;
#X obj 66 226 outlet;
#X obj 66 25 inlet;
#X connect 0 0 4 0;
#X connect 1 0 2 0;
#X connect 2 0 0 0;
#X connect 4 0 5 0;
#X connect 4 1 6 0;
#X connect 5 0 7 0;
#X connect 6 0 7 0;
#X connect 8 0 1 0;
#X restore 425 424 pd device_selection;
#X obj 425 403 r \$0.device_list;
#X text 30 497 device info message auf close bei schliessen;
#X text 35 476 _____2Do__________;
#X obj 943 361 tgl 15 0 empty empty empty 17 7 0 10 -262144 -1 -1 0
1;
#X text 432 339 by click & hovering;
#X text 436 331 the mouse;
#X obj 942 333 r \$0-s-Pin_13;
#X text 32 515 Pin Numbering with white letters;
#X text 764 560 values;
#X text 763 539 incoming;
#X text 32 529 are analog Pins default set to input?;
#X obj 492 623 cnv 15 300 70 empty empty Setup 5 10 1 14 -228856 -66577
0;
#X obj 497 644 cnv 15 280 12 empty empty empty 5 10 1 14 -260097 -66577
0;
#X obj 335 300 cnv 15 60 25 empty empty empty 5 10 1 14 -260097 -66577
0;
#X msg 342 303 devices;
#X text 498 642 1 list the devices connected to your computer;
#X obj 497 659 cnv 15 280 12 empty empty empty 5 10 1 14 -258113 -66577
0;
#X text 498 657 2 select a device;
#X obj 497 674 cnv 15 280 12 empty empty empty 5 10 1 14 -4034 -66577
0;
#X text 498 672 3 set the pins;
#X text 491 603 follow this recipe to dress for success using pduino
;
#X obj 668 328 cnv 15 205 25 empty empty empty 5 10 1 14 -4034 -66577
0;
#N canvas 572 164 575 492 open 0;
#N canvas 82 138 474 528 pinMode 0;
#X obj 277 100 vradio 15 1 0 6 THIS_HIDES_THE_OUTLET ARDUINO_TEST_RESET
empty 2 68 1 10 -257985 -1 -1 0;
#X obj 98 498 cnv 15 100 26 empty empty empty 20 12 0 14 -257985 -66577
0;
#X obj 100 502 s \$0-to-arduino;
#X obj 261 100 vradio 15 1 0 6 THIS_HIDES_THE_OUTLET ARDUINO_TEST_RESET
empty 2 68 1 10 -257985 -1 -1 0;
#X obj 245 100 vradio 15 1 0 6 THIS_HIDES_THE_OUTLET ARDUINO_TEST_RESET
empty 2 68 1 10 -257985 -1 -1 0;
#X obj 229 100 vradio 15 1 0 6 THIS_HIDES_THE_OUTLET ARDUINO_TEST_RESET
empty 2 68 1 10 -257985 -1 -1 0;
#X obj 213 100 vradio 15 1 0 6 THIS_HIDES_THE_OUTLET ARDUINO_TEST_RESET
empty 2 68 1 10 -257985 -1 -1 0;
#X obj 197 100 vradio 15 1 0 6 THIS_HIDES_THE_OUTLET ARDUINO_TEST_RESET
empty 2 68 1 10 -257985 -1 -1 0;
#X obj 181 100 vradio 15 1 0 6 THIS_HIDES_THE_OUTLET ARDUINO_TEST_RESET
empty 2 68 1 10 -257985 -1 -1 0;
#X obj 165 100 vradio 15 1 0 6 THIS_HIDES_THE_OUTLET ARDUINO_TEST_RESET
empty 2 68 1 10 -257985 -1 -1 0;
#X obj 149 100 vradio 15 1 0 6 THIS_HIDES_THE_OUTLET ARDUINO_TEST_RESET
empty 2 68 1 10 -257985 -1 -1 0;
#X obj 133 100 vradio 15 1 0 6 THIS_HIDES_THE_OUTLET ARDUINO_TEST_RESET
empty 2 68 1 10 -257985 -1 -1 0;
#X obj 117 100 vradio 15 1 0 6 THIS_HIDES_THE_OUTLET ARDUINO_TEST_RESET
empty 2 68 1 10 -257985 -1 -1 0;
#X obj 101 100 vradio 15 1 0 6 THIS_HIDES_THE_OUTLET ARDUINO_TEST_RESET
empty 2 68 1 10 -257985 -1 -1 0;
#X obj 100 146 cnv 8 194 13 empty empty empty 20 12 0 14 -191407 -66577
0;
#N canvas 78 187 916 571 send-to-arduino--------------- 0;
#X obj 518 16 inlet;
#X obj 480 16 inlet;
#X obj 442 16 inlet;
#X obj 405 16 inlet;
#X obj 367 16 inlet;
#X obj 330 16 inlet;
#X obj 292 16 inlet;
#X obj 253 16 inlet;
#X obj 214 16 inlet;
#X obj 176 16 inlet;
#X obj 136 15 inlet;
#X obj 98 15 inlet;
#X obj 59 15 inlet;
#X msg 518 58 pinMode 0 \$1;
#X msg 480 80 pinMode 1 \$1;
#X msg 442 102 pinMode 2 \$1;
#X msg 405 122 pinMode 3 \$1;
#X msg 367 54 pinMode 4 \$1;
#X msg 330 76 pinMode 5 \$1;
#X msg 292 98 pinMode 6 \$1;
#X msg 253 118 pinMode 7 \$1;
#X msg 214 51 pinMode 8 \$1;
#X msg 176 73 pinMode 9 \$1;
#X msg 136 94 pinMode 10 \$1;
#X msg 98 114 pinMode 11 \$1;
#X msg 59 42 pinMode 12 \$1;
#X obj 19 15 inlet;
#X msg 19 62 pinMode 13 \$1;
#X obj -12 551 outlet;
#X obj 235 501 trigger bang anything;
#X obj 235 456 list prepend set;
#X obj 235 478 list trim;
#X obj 235 297 list;
#X obj 236 319 unpack symbol float float;
#X obj 235 429 pack symbol float symbol;
#X obj 376 409 symbol;
#X msg 413 382 analog;
#X msg 461 382 pwm;
#X msg 491 382 servo;
#X obj 493 462 list trim;
#X obj 493 439 list prepend WARNING Unsupported pin mode:;
#X obj 493 484 print [arduino];
#X msg 322 382 input;
#X msg 363 382 output;
#X obj 382 338 - 1;
#X obj 382 357 select 0 1 2 3 4 -1;
#X text 511 356 (-1 == NONE);
#N canvas 0 0 410 411 label 0;
#X obj 188 377 outlet;
#X obj 132 17 inlet;
#X msg 119 84 I;
#X msg 148 84 O;
#X msg 210 84 P;
#X obj 302 279 list;
#X msg 302 308 label \$1;
#X msg 179 84 A;
#X msg 240 85 S;
#X obj 132 43 sel 0 1 2 3 4 5;
#X msg 86 84 N;
#X msg 106 321 color \$1 \$2 \$3;
#X msg 37 281 0 0 1;
#X msg 193 280 9 12 19;
#X msg 106 281 5 12 12;
#X text 37 242 NONE;
#X text 196 239 output;
#X text 87 257 digital/analog;
#X text 106 240 input;
#X text 183 258 digital/pwm/servo;
#X text 36 221 ____define toggle colors for____;
#X connect 1 0 9 0;
#X connect 2 0 5 0;
#X connect 2 0 14 0;
#X connect 3 0 5 0;
#X connect 3 0 13 0;
#X connect 4 0 5 0;
#X connect 4 0 13 0;
#X connect 5 0 6 0;
#X connect 6 0 0 0;
#X connect 7 0 5 0;
#X connect 7 0 14 0;
#X connect 8 0 5 0;
#X connect 8 0 13 0;
#X connect 9 0 10 0;
#X connect 9 1 2 0;
#X connect 9 2 3 0;
#X connect 9 3 7 0;
#X connect 9 4 4 0;
#X connect 9 5 8 0;
#X connect 10 0 5 0;
#X connect 10 0 12 0;
#X connect 11 0 0 0;
#X connect 12 0 11 0;
#X connect 13 0 11 0;
#X connect 14 0 11 0;
#X restore 523 164 pd label;
#N canvas 0 0 458 458 label 0;
#X msg 119 84 I;
#X msg 148 84 O;
#X msg 210 84 P;
#X obj 302 279 list;
#X msg 302 308 label \$1;
#X obj 194 370 outlet;
#X msg 179 84 A;
#X obj 132 14 inlet;
#X msg 240 85 S;
#X obj 132 43 sel 0 1 2 3 4 5;
#X msg 86 84 N;
#X msg 106 321 color \$1 \$2 \$3;
#X msg 37 281 0 0 1;
#X msg 193 280 9 12 19;
#X msg 106 281 5 12 12;
#X text 37 242 NONE;
#X text 196 239 output;
#X text 87 257 digital/analog;
#X text 106 240 input;
#X text 183 258 digital/pwm/servo;
#X text 36 221 ____define toggle colors for____;
#X connect 0 0 3 0;
#X connect 0 0 14 0;
#X connect 1 0 3 0;
#X connect 1 0 13 0;
#X connect 2 0 3 0;
#X connect 2 0 13 0;
#X connect 3 0 4 0;
#X connect 4 0 5 0;
#X connect 6 0 3 0;
#X connect 6 0 14 0;
#X connect 7 0 9 0;
#X connect 8 0 3 0;
#X connect 8 0 13 0;
#X connect 9 0 10 0;
#X connect 9 1 0 0;
#X connect 9 2 1 0;
#X connect 9 3 6 0;
#X connect 9 4 2 0;
#X connect 9 5 8 0;
#X connect 10 0 3 0;
#X connect 10 0 12 0;
#X connect 11 0 5 0;
#X connect 12 0 11 0;
#X connect 13 0 11 0;
#X connect 14 0 11 0;
#X restore 480 184 pd label;
#N canvas 0 0 462 485 label 0;
#X msg 129 94 I;
#X msg 158 94 O;
#X msg 220 94 P;
#X obj 312 289 list;
#X msg 312 318 label \$1;
#X obj 204 380 outlet;
#X msg 189 94 A;
#X obj 142 24 inlet;
#X msg 250 95 S;
#X obj 142 53 sel 0 1 2 3 4 5;
#X msg 96 94 N;
#X msg 116 331 color \$1 \$2 \$3;
#X msg 47 291 0 0 1;
#X msg 203 290 9 12 19;
#X msg 116 291 5 12 12;
#X text 47 252 NONE;
#X text 206 249 output;
#X text 97 267 digital/analog;
#X text 116 250 input;
#X text 193 268 digital/pwm/servo;
#X text 46 231 ____define toggle colors for____;
#X connect 0 0 3 0;
#X connect 0 0 14 0;
#X connect 1 0 3 0;
#X connect 1 0 13 0;
#X connect 2 0 3 0;
#X connect 2 0 13 0;
#X connect 3 0 4 0;
#X connect 4 0 5 0;
#X connect 6 0 3 0;
#X connect 6 0 14 0;
#X connect 7 0 9 0;
#X connect 8 0 3 0;
#X connect 8 0 13 0;
#X connect 9 0 10 0;
#X connect 9 1 0 0;
#X connect 9 2 1 0;
#X connect 9 3 6 0;
#X connect 9 4 2 0;
#X connect 9 5 8 0;
#X connect 10 0 3 0;
#X connect 10 0 12 0;
#X connect 11 0 5 0;
#X connect 12 0 11 0;
#X connect 13 0 11 0;
#X connect 14 0 11 0;
#X restore 439 204 pd label;
#X obj 523 236 outlet;
#X obj 481 236 outlet;
#X obj 439 236 outlet;
#N canvas 0 0 410 411 label 0;
#X obj 188 377 outlet;
#X obj 132 17 inlet;
#X msg 119 84 I;
#X msg 148 84 O;
#X msg 210 84 P;
#X obj 302 279 list;
#X msg 302 308 label \$1;
#X msg 179 84 A;
#X msg 240 85 S;
#X obj 132 43 sel 0 1 2 3 4 5;
#X msg 86 84 N;
#X msg 106 321 color \$1 \$2 \$3;
#X msg 37 281 0 0 1;
#X msg 193 280 9 12 19;
#X msg 106 281 5 12 12;
#X text 37 242 NONE;
#X text 196 239 output;
#X text 87 257 digital/analog;
#X text 106 240 input;
#X text 183 258 digital/pwm/servo;
#X text 36 221 ____define toggle colors for____;
#X connect 1 0 9 0;
#X connect 2 0 5 0;
#X connect 2 0 14 0;
#X connect 3 0 5 0;
#X connect 3 0 13 0;
#X connect 4 0 5 0;
#X connect 4 0 13 0;
#X connect 5 0 6 0;
#X connect 6 0 0 0;
#X connect 7 0 5 0;
#X connect 7 0 14 0;
#X connect 8 0 5 0;
#X connect 8 0 13 0;
#X connect 9 0 10 0;
#X connect 9 1 2 0;
#X connect 9 2 3 0;
#X connect 9 3 7 0;
#X connect 9 4 4 0;
#X connect 9 5 8 0;
#X connect 10 0 5 0;
#X connect 10 0 12 0;
#X connect 11 0 0 0;
#X connect 12 0 11 0;
#X connect 13 0 11 0;
#X connect 14 0 11 0;
#X restore 397 164 pd label;
#N canvas 0 0 458 458 label 0;
#X msg 119 84 I;
#X msg 148 84 O;
#X msg 210 84 P;
#X obj 302 279 list;
#X msg 302 308 label \$1;
#X obj 194 370 outlet;
#X msg 179 84 A;
#X obj 132 14 inlet;
#X msg 240 85 S;
#X obj 132 43 sel 0 1 2 3 4 5;
#X msg 86 84 N;
#X msg 106 321 color \$1 \$2 \$3;
#X msg 37 281 0 0 1;
#X msg 193 280 9 12 19;
#X msg 106 281 5 12 12;
#X text 37 242 NONE;
#X text 196 239 output;
#X text 87 257 digital/analog;
#X text 106 240 input;
#X text 183 258 digital/pwm/servo;
#X text 36 221 ____define toggle colors for____;
#X connect 0 0 3 0;
#X connect 0 0 14 0;
#X connect 1 0 3 0;
#X connect 1 0 13 0;
#X connect 2 0 3 0;
#X connect 2 0 13 0;
#X connect 3 0 4 0;
#X connect 4 0 5 0;
#X connect 6 0 3 0;
#X connect 6 0 14 0;
#X connect 7 0 9 0;
#X connect 8 0 3 0;
#X connect 8 0 13 0;
#X connect 9 0 10 0;
#X connect 9 1 0 0;
#X connect 9 2 1 0;
#X connect 9 3 6 0;
#X connect 9 4 2 0;
#X connect 9 5 8 0;
#X connect 10 0 3 0;
#X connect 10 0 12 0;
#X connect 11 0 5 0;
#X connect 12 0 11 0;
#X connect 13 0 11 0;
#X connect 14 0 11 0;
#X restore 354 184 pd label;
#N canvas 0 0 462 485 label 0;
#X msg 129 94 I;
#X msg 158 94 O;
#X msg 220 94 P;
#X obj 312 289 list;
#X msg 312 318 label \$1;
#X obj 204 380 outlet;
#X msg 189 94 A;
#X obj 142 24 inlet;
#X msg 250 95 S;
#X obj 142 53 sel 0 1 2 3 4 5;
#X msg 96 94 N;
#X msg 116 331 color \$1 \$2 \$3;
#X msg 47 291 0 0 1;
#X msg 203 290 9 12 19;
#X msg 116 291 5 12 12;
#X text 47 252 NONE;
#X text 206 249 output;
#X text 97 267 digital/analog;
#X text 116 250 input;
#X text 193 268 digital/pwm/servo;
#X text 46 231 ____define toggle colors for____;
#X connect 0 0 3 0;
#X connect 0 0 14 0;
#X connect 1 0 3 0;
#X connect 1 0 13 0;
#X connect 2 0 3 0;
#X connect 2 0 13 0;
#X connect 3 0 4 0;
#X connect 4 0 5 0;
#X connect 6 0 3 0;
#X connect 6 0 14 0;
#X connect 7 0 9 0;
#X connect 8 0 3 0;
#X connect 8 0 13 0;
#X connect 9 0 10 0;
#X connect 9 1 0 0;
#X connect 9 2 1 0;
#X connect 9 3 6 0;
#X connect 9 4 2 0;
#X connect 9 5 8 0;
#X connect 10 0 3 0;
#X connect 10 0 12 0;
#X connect 11 0 5 0;
#X connect 12 0 11 0;
#X connect 13 0 11 0;
#X connect 14 0 11 0;
#X restore 313 204 pd label;
#X obj 397 236 outlet;
#X obj 355 236 outlet;
#X obj 313 236 outlet;
#N canvas 0 0 410 411 label 0;
#X obj 188 377 outlet;
#X obj 132 17 inlet;
#X msg 119 84 I;
#X msg 148 84 O;
#X msg 210 84 P;
#X obj 302 279 list;
#X msg 302 308 label \$1;
#X msg 179 84 A;
#X msg 240 85 S;
#X obj 132 43 sel 0 1 2 3 4 5;
#X msg 86 84 N;
#X msg 106 321 color \$1 \$2 \$3;
#X msg 37 281 0 0 1;
#X msg 193 280 9 12 19;
#X msg 106 281 5 12 12;
#X text 37 242 NONE;
#X text 196 239 output;
#X text 87 257 digital/analog;
#X text 106 240 input;
#X text 183 258 digital/pwm/servo;
#X text 36 221 ____define toggle colors for____;
#X connect 1 0 9 0;
#X connect 2 0 5 0;
#X connect 2 0 14 0;
#X connect 3 0 5 0;
#X connect 3 0 13 0;
#X connect 4 0 5 0;
#X connect 4 0 13 0;
#X connect 5 0 6 0;
#X connect 6 0 0 0;
#X connect 7 0 5 0;
#X connect 7 0 14 0;
#X connect 8 0 5 0;
#X connect 8 0 13 0;
#X connect 9 0 10 0;
#X connect 9 1 2 0;
#X connect 9 2 3 0;
#X connect 9 3 7 0;
#X connect 9 4 4 0;
#X connect 9 5 8 0;
#X connect 10 0 5 0;
#X connect 10 0 12 0;
#X connect 11 0 0 0;
#X connect 12 0 11 0;
#X connect 13 0 11 0;
#X connect 14 0 11 0;
#X restore 271 164 pd label;
#N canvas 0 0 458 458 label 0;
#X msg 119 84 I;
#X msg 148 84 O;
#X msg 210 84 P;
#X obj 302 279 list;
#X msg 302 308 label \$1;
#X obj 194 370 outlet;
#X msg 179 84 A;
#X obj 132 14 inlet;
#X msg 240 85 S;
#X obj 132 43 sel 0 1 2 3 4 5;
#X msg 86 84 N;
#X msg 106 321 color \$1 \$2 \$3;
#X msg 37 281 0 0 1;
#X msg 193 280 9 12 19;
#X msg 106 281 5 12 12;
#X text 37 242 NONE;
#X text 196 239 output;
#X text 87 257 digital/analog;
#X text 106 240 input;
#X text 183 258 digital/pwm/servo;
#X text 36 221 ____define toggle colors for____;
#X connect 0 0 3 0;
#X connect 0 0 14 0;
#X connect 1 0 3 0;
#X connect 1 0 13 0;
#X connect 2 0 3 0;
#X connect 2 0 13 0;
#X connect 3 0 4 0;
#X connect 4 0 5 0;
#X connect 6 0 3 0;
#X connect 6 0 14 0;
#X connect 7 0 9 0;
#X connect 8 0 3 0;
#X connect 8 0 13 0;
#X connect 9 0 10 0;
#X connect 9 1 0 0;
#X connect 9 2 1 0;
#X connect 9 3 6 0;
#X connect 9 4 2 0;
#X connect 9 5 8 0;
#X connect 10 0 3 0;
#X connect 10 0 12 0;
#X connect 11 0 5 0;
#X connect 12 0 11 0;
#X connect 13 0 11 0;
#X connect 14 0 11 0;
#X restore 228 184 pd label;
#N canvas 0 0 462 485 label 0;
#X msg 129 94 I;
#X msg 158 94 O;
#X msg 220 94 P;
#X obj 312 289 list;
#X msg 312 318 label \$1;
#X obj 204 380 outlet;
#X msg 189 94 A;
#X obj 142 24 inlet;
#X msg 250 95 S;
#X obj 142 53 sel 0 1 2 3 4 5;
#X msg 96 94 N;
#X msg 116 331 color \$1 \$2 \$3;
#X msg 47 291 0 0 1;
#X msg 203 290 9 12 19;
#X msg 116 291 5 12 12;
#X text 47 252 NONE;
#X text 206 249 output;
#X text 97 267 digital/analog;
#X text 116 250 input;
#X text 193 268 digital/pwm/servo;
#X text 46 231 ____define toggle colors for____;
#X connect 0 0 3 0;
#X connect 0 0 14 0;
#X connect 1 0 3 0;
#X connect 1 0 13 0;
#X connect 2 0 3 0;
#X connect 2 0 13 0;
#X connect 3 0 4 0;
#X connect 4 0 5 0;
#X connect 6 0 3 0;
#X connect 6 0 14 0;
#X connect 7 0 9 0;
#X connect 8 0 3 0;
#X connect 8 0 13 0;
#X connect 9 0 10 0;
#X connect 9 1 0 0;
#X connect 9 2 1 0;
#X connect 9 3 6 0;
#X connect 9 4 2 0;
#X connect 9 5 8 0;
#X connect 10 0 3 0;
#X connect 10 0 12 0;
#X connect 11 0 5 0;
#X connect 12 0 11 0;
#X connect 13 0 11 0;
#X connect 14 0 11 0;
#X restore 187 204 pd label;
#X obj 271 236 outlet;
#X obj 229 236 outlet;
#X obj 187 236 outlet;
#N canvas 0 0 410 411 label 0;
#X obj 188 377 outlet;
#X obj 132 17 inlet;
#X msg 119 84 I;
#X msg 148 84 O;
#X msg 210 84 P;
#X obj 302 279 list;
#X msg 302 308 label \$1;
#X msg 179 84 A;
#X msg 240 85 S;
#X obj 132 43 sel 0 1 2 3 4 5;
#X msg 86 84 N;
#X msg 106 321 color \$1 \$2 \$3;
#X msg 37 281 0 0 1;
#X msg 193 280 9 12 19;
#X msg 106 281 5 12 12;
#X text 37 242 NONE;
#X text 196 239 output;
#X text 87 257 digital/analog;
#X text 106 240 input;
#X text 183 258 digital/pwm/servo;
#X text 36 221 ____define toggle colors for____;
#X connect 1 0 9 0;
#X connect 2 0 5 0;
#X connect 2 0 14 0;
#X connect 3 0 5 0;
#X connect 3 0 13 0;
#X connect 4 0 5 0;
#X connect 4 0 13 0;
#X connect 5 0 6 0;
#X connect 6 0 0 0;
#X connect 7 0 5 0;
#X connect 7 0 14 0;
#X connect 8 0 5 0;
#X connect 8 0 13 0;
#X connect 9 0 10 0;
#X connect 9 1 2 0;
#X connect 9 2 3 0;
#X connect 9 3 7 0;
#X connect 9 4 4 0;
#X connect 9 5 8 0;
#X connect 10 0 5 0;
#X connect 10 0 12 0;
#X connect 11 0 0 0;
#X connect 12 0 11 0;
#X connect 13 0 11 0;
#X connect 14 0 11 0;
#X restore 145 164 pd label;
#N canvas 0 0 458 458 label 0;
#X msg 119 84 I;
#X msg 148 84 O;
#X msg 210 84 P;
#X obj 302 279 list;
#X msg 302 308 label \$1;
#X obj 194 370 outlet;
#X msg 179 84 A;
#X obj 132 14 inlet;
#X msg 240 85 S;
#X obj 132 43 sel 0 1 2 3 4 5;
#X msg 86 84 N;
#X msg 106 321 color \$1 \$2 \$3;
#X msg 37 281 0 0 1;
#X msg 193 280 9 12 19;
#X msg 106 281 5 12 12;
#X text 37 242 NONE;
#X text 196 239 output;
#X text 87 257 digital/analog;
#X text 106 240 input;
#X text 183 258 digital/pwm/servo;
#X text 36 221 ____define toggle colors for____;
#X connect 0 0 3 0;
#X connect 0 0 14 0;
#X connect 1 0 3 0;
#X connect 1 0 13 0;
#X connect 2 0 3 0;
#X connect 2 0 13 0;
#X connect 3 0 4 0;
#X connect 4 0 5 0;
#X connect 6 0 3 0;
#X connect 6 0 14 0;
#X connect 7 0 9 0;
#X connect 8 0 3 0;
#X connect 8 0 13 0;
#X connect 9 0 10 0;
#X connect 9 1 0 0;
#X connect 9 2 1 0;
#X connect 9 3 6 0;
#X connect 9 4 2 0;
#X connect 9 5 8 0;
#X connect 10 0 3 0;
#X connect 10 0 12 0;
#X connect 11 0 5 0;
#X connect 12 0 11 0;
#X connect 13 0 11 0;
#X connect 14 0 11 0;
#X restore 102 184 pd label;
#N canvas 0 0 462 485 label 0;
#X msg 129 94 I;
#X msg 158 94 O;
#X msg 220 94 P;
#X obj 312 289 list;
#X msg 312 318 label \$1;
#X obj 204 380 outlet;
#X msg 189 94 A;
#X obj 142 24 inlet;
#X msg 250 95 S;
#X obj 142 53 sel 0 1 2 3 4 5;
#X msg 96 94 N;
#X msg 116 331 color \$1 \$2 \$3;
#X msg 47 291 0 0 1;
#X msg 203 290 9 12 19;
#X msg 116 291 5 12 12;
#X text 47 252 NONE;
#X text 206 249 output;
#X text 97 267 digital/analog;
#X text 116 250 input;
#X text 193 268 digital/pwm/servo;
#X text 46 231 ____define toggle colors for____;
#X connect 0 0 3 0;
#X connect 0 0 14 0;
#X connect 1 0 3 0;
#X connect 1 0 13 0;
#X connect 2 0 3 0;
#X connect 2 0 13 0;
#X connect 3 0 4 0;
#X connect 4 0 5 0;
#X connect 6 0 3 0;
#X connect 6 0 14 0;
#X connect 7 0 9 0;
#X connect 8 0 3 0;
#X connect 8 0 13 0;
#X connect 9 0 10 0;
#X connect 9 1 0 0;
#X connect 9 2 1 0;
#X connect 9 3 6 0;
#X connect 9 4 2 0;
#X connect 9 5 8 0;
#X connect 10 0 3 0;
#X connect 10 0 12 0;
#X connect 11 0 5 0;
#X connect 12 0 11 0;
#X connect 13 0 11 0;
#X connect 14 0 11 0;
#X restore 61 204 pd label;
#X obj 145 236 outlet;
#X obj 103 236 outlet;
#X obj 61 236 outlet;
#X connect 0 0 13 0;
#X connect 1 0 14 0;
#X connect 2 0 15 0;
#X connect 2 0 47 0;
#X connect 3 0 16 0;
#X connect 3 0 48 0;
#X connect 4 0 17 0;
#X connect 4 0 49 0;
#X connect 5 0 18 0;
#X connect 5 0 53 0;
#X connect 6 0 19 0;
#X connect 6 0 54 0;
#X connect 7 0 20 0;
#X connect 7 0 55 0;
#X connect 8 0 21 0;
#X connect 8 0 59 0;
#X connect 9 0 22 0;
#X connect 9 0 60 0;
#X connect 10 0 23 0;
#X connect 10 0 61 0;
#X connect 11 0 24 0;
#X connect 11 0 65 0;
#X connect 12 0 25 0;
#X connect 12 0 66 0;
#X connect 13 0 32 0;
#X connect 14 0 32 0;
#X connect 15 0 32 0;
#X connect 16 0 32 0;
#X connect 17 0 32 0;
#X connect 18 0 32 0;
#X connect 19 0 32 0;
#X connect 20 0 32 0;
#X connect 21 0 32 0;
#X connect 22 0 32 0;
#X connect 23 0 32 0;
#X connect 24 0 32 0;
#X connect 25 0 32 0;
#X connect 26 0 27 0;
#X connect 26 0 67 0;
#X connect 27 0 32 0;
#X connect 29 0 28 0;
#X connect 29 1 28 0;
#X connect 30 0 31 0;
#X connect 31 0 29 0;
#X connect 32 0 33 0;
#X connect 33 0 34 0;
#X connect 33 1 34 1;
#X connect 33 2 44 0;
#X connect 34 0 30 0;
#X connect 35 0 34 2;
#X connect 36 0 35 0;
#X connect 37 0 35 0;
#X connect 38 0 35 0;
#X connect 39 0 41 0;
#X connect 40 0 39 0;
#X connect 42 0 35 0;
#X connect 43 0 35 0;
#X connect 44 0 45 0;
#X connect 45 0 42 0;
#X connect 45 1 43 0;
#X connect 45 2 36 0;
#X connect 45 3 37 0;
#X connect 45 4 38 0;
#X connect 45 6 40 0;
#X connect 47 0 50 0;
#X connect 48 0 51 0;
#X connect 49 0 52 0;
#X connect 53 0 56 0;
#X connect 54 0 57 0;
#X connect 55 0 58 0;
#X connect 59 0 62 0;
#X connect 60 0 63 0;
#X connect 61 0 64 0;
#X connect 65 0 68 0;
#X connect 66 0 69 0;
#X connect 67 0 70 0;
#X restore 100 215 pd send-to-arduino---------------;
#X msg 100 468 pinMode 13 pwm;
#X obj 116 242 s \$0-r-by-Pin_13;
#X obj 132 263 s \$0-r-by-Pin_12;
#X obj 148 284 s \$0-r-by-Pin_11;
#X obj 165 305 s \$0-r-by-Pin_10;
#X obj 181 326 s \$0-r-by-Pin_9;
#X obj 197 347 s \$0-r-by-Pin_8;
#X obj 214 368 s \$0-r-by-Pin_7;
#X obj 230 389 s \$0-r-by-Pin_6;
#X obj 246 410 s \$0-r-by-Pin_5;
#X obj 263 430 s \$0-r-by-Pin_4;
#X obj 278 451 s \$0-r-by-Pin_3;
#X obj 295 472 s \$0-r-by-Pin_2;
#X connect 0 0 15 11;
#X connect 3 0 15 10;
#X connect 4 0 15 9;
#X connect 5 0 15 8;
#X connect 6 0 15 7;
#X connect 7 0 15 6;
#X connect 8 0 15 5;
#X connect 9 0 15 4;
#X connect 10 0 15 3;
#X connect 11 0 15 2;
#X connect 12 0 15 1;
#X connect 13 0 15 0;
#X connect 15 0 16 0;
#X connect 15 1 17 0;
#X connect 15 2 18 0;
#X connect 15 3 19 0;
#X connect 15 4 20 0;
#X connect 15 5 21 0;
#X connect 15 6 22 0;
#X connect 15 7 23 0;
#X connect 15 8 24 0;
#X connect 15 9 25 0;
#X connect 15 10 26 0;
#X connect 15 11 27 0;
#X connect 15 12 28 0;
#X connect 16 0 2 0;
#X coords 0 -1 1 1 193 90 2 100 100;
#X restore -31 59 pd pinMode;
#X text 165 132 servo;
#X text 165 117 pwm;
#X text 164 71 input;
#X text 164 86 output;
#X text 164 57 NONE;
#X obj -148 154 cnv 15 350 250 empty empty empty 20 12 0 14 -67964
-66577 0;
#X obj -70 156 tgl 15 0 empty empty 15 0 23 1 9 -162280 -1 -191407
0 1;
#X obj -36 156 tgl 15 0 empty empty 13 0 23 1 9 -262144 -262144 -262144
0 1;
#X obj -19 156 tgl 15 0 empty empty 12 0 23 1 9 -262144 -262144 -262144
0 1;
#X obj 15 156 tgl 15 0 empty empty 10 0 23 1 9 -262144 -262144 -262144
0 1;
#X obj -2 156 tgl 15 0 empty empty 11 0 23 1 9 -262144 -262144 -262144
0 1;
#X obj 32 156 tgl 15 0 empty empty 9 5 23 1 9 -262144 -262144 -262144
0 1;
#X obj 49 156 tgl 15 0 empty empty 8 5 23 1 9 -262144 -262144 -262144
0 1;
#X obj 66 156 tgl 15 0 empty empty 7 5 23 1 9 -262144 -262144 -262144
0 1;
#X obj 83 156 tgl 15 0 empty empty 6 5 23 1 9 -262144 -262144 -262144
0 1;
#X obj 100 156 tgl 15 0 empty empty 5 5 23 1 9 -262144 -262144 -262144
0 1;
#X obj 117 156 tgl 15 0 empty empty 4 5 23 1 9 -262144 -262144 -262144
0 1;
#X obj 134 156 tgl 15 0 empty empty 3 5 23 1 9 -262144 -262144 -262144
0 1;
#X obj 151 156 tgl 15 0 empty empty 2 5 23 1 9 -262144 -262144 -262144
0 1;
#X obj 168 156 tgl 15 0 empty empty 1 5 23 1 9 -162280 -262144 -191407
0 1;
#X obj 185 156 tgl 15 0 empty empty 0 5 23 1 9 -162280 -262144 -191407
0 1;
#X text 187 180 R;
#X text 187 191 X;
#X text 171 180 T;
#X text 171 191 X;
#X obj -53 156 tgl 15 0 empty empty 14 0 23 1 9 -162280 -1 -191407
0 1;
#X text -51 180 G;
#X text -51 191 N;
#X text -51 202 D;
#X text -68 181 A;
#X text -68 192 R;
#X text -68 202 E;
#X text -68 212 F;
#X obj 100 387 tgl 15 0 empty empty 16 0 -6 1 9 -262144 -262144 -262144
0 1;
#X obj 117 387 tgl 15 0 empty empty 17 0 -6 1 9 -262144 -262144 -262144
0 1;
#X obj 134 387 tgl 15 0 empty empty 18 0 -6 1 9 -262144 -262144 -262144
0 1;
#X obj 151 387 tgl 15 0 empty empty 19 0 -6 1 9 -262144 -262144 -262144
0 1;
#X obj 168 387 tgl 15 0 empty empty 20 0 -6 1 9 -262144 -262144 -262144
0 1;
#X obj 185 387 tgl 15 0 empty empty 21 0 -6 1 9 -262144 -262144 -262144
0 1;
#X text 44 219 Digital;
#X text -1 180 P;
#X text 0 191 W;
#X text -1 202 M;
#X text 17 180 P;
#X text 18 191 W;
#X text 17 202 M;
#X text 36 180 P;
#X text 37 191 W;
#X text 36 202 M;
#X text 86 180 P;
#X text 87 191 W;
#X text 86 202 M;
#X text 103 180 P;
#X text 104 191 W;
#X text 103 202 M;
#X text 137 180 P;
#X text 138 191 W;
#X text 137 202 M;
#X text 122 345 Analog in;
#X obj 60 387 tgl 15 0 empty empty empty 0 -6 1 9 -261234 -262144 -262144
0 1;
#X text 61 353 V;
#X text 62 363 i;
#X text 62 371 n;
#X obj 43 387 tgl 15 0 empty empty empty 0 23 1 9 -162280 -1 -191407
0 1;
#X text 44 349 G;
#X text 44 360 N;
#X text 44 371 D;
#X obj 26 387 tgl 15 0 empty empty empty 0 23 1 9 -162280 -1 -191407
0 1;
#X text 27 349 G;
#X text 27 360 N;
#X text 27 371 D;
#X obj 9 387 tgl 15 0 empty empty empty 0 -6 1 9 -261234 -262144 -262144
0 1;
#X text 10 360 5;
#X text 10 370 V;
#X obj -8 387 tgl 15 0 empty empty empty 0 -6 1 9 -261234 -262144 -262144
0 1;
#X text -7 370 V;
#X text -7 360 3;
#X text -7 350 3;
#X obj -25 387 tgl 15 0 empty empty empty 0 23 1 9 -162280 -1 -191407
0 1;
#X text -24 371 T;
#X text -24 349 R;
#X text -24 360 S;
#X text 98 360 A0;
#X text 116 360 A1;
#X text 133 360 A2;
#X text 149 360 A3;
#X text 166 360 A4;
#X text 183 360 A5;
#X text -136 266 White letters are showing the Pin Numbering Map for
;
#X text -137 281 Arduino UNO \, Duemilanove \, Nano \, Diecimila...
;
#X text -41 36 set your Digital pins on this panel:;
#X restore 672 332 pd open here to set Digital Pins;
#X obj 784 443 cnv 15 125 25 empty empty empty 5 10 1 14 -4034 -66577
0;
#N canvas 334 318 663 409 set 0;
#N canvas 381 292 476 465 pinMode 0;
#X obj 97 422 cnv 15 100 26 empty empty empty 20 12 0 14 -257985 -66577
0;
#X obj 100 426 s \$0-to-arduino;
#X obj 180 100 vradio 15 1 0 4 THIS_HIDES_THE_OUTLET ARDUINO_TEST_RESET
empty 2 68 1 10 -257985 -1 -1 0;
#X obj 164 100 vradio 15 1 0 4 THIS_HIDES_THE_OUTLET ARDUINO_TEST_RESET
empty 2 68 1 10 -257985 -1 -1 0;
#X obj 148 100 vradio 15 1 0 4 THIS_HIDES_THE_OUTLET ARDUINO_TEST_RESET
empty 2 68 1 10 -257985 -1 -1 0;
#X obj 132 100 vradio 15 1 0 4 THIS_HIDES_THE_OUTLET ARDUINO_TEST_RESET
empty 2 68 1 10 -257985 -1 -1 0;
#X obj 116 100 vradio 15 1 0 4 THIS_HIDES_THE_OUTLET ARDUINO_TEST_RESET
empty 2 68 1 10 -257985 -1 -1 0;
#X obj 100 100 vradio 15 1 0 4 THIS_HIDES_THE_OUTLET ARDUINO_TEST_RESET
empty 2 68 1 10 -257985 -1 -1 0;
#N canvas 187 158 916 571 send-to-arduino--------------- 0;
#X obj 298 19 inlet;
#X obj 260 19 inlet;
#X obj 220 18 inlet;
#X obj 182 18 inlet;
#X obj 143 18 inlet;
#X obj 103 18 inlet;
#X obj -12 551 outlet;
#X obj 235 501 trigger bang anything;
#X obj 235 456 list prepend set;
#X obj 235 478 list trim;
#X obj 235 297 list;
#X obj 236 319 unpack symbol float float;
#X obj 235 429 pack symbol float symbol;
#X obj 376 409 symbol;
#X msg 413 382 analog;
#X msg 461 382 pwm;
#X msg 491 382 servo;
#X obj 493 462 list trim;
#X obj 493 439 list prepend WARNING Unsupported pin mode:;
#X obj 493 484 print [arduino];
#X msg 322 382 input;
#X msg 363 382 output;
#X obj 382 338 - 1;
#X obj 382 357 select 0 1 2 3 4 -1;
#X text 511 356 (-1 == NONE);
#N canvas 0 0 458 458 label 0;
#X msg 119 84 I;
#X msg 148 84 O;
#X msg 210 84 P;
#X obj 302 279 list;
#X msg 302 308 label \$1;
#X obj 194 370 outlet;
#X msg 179 84 A;
#X obj 132 14 inlet;
#X msg 240 85 S;
#X obj 132 43 sel 0 1 2 3 4 5;
#X msg 86 84 N;
#X msg 106 321 color \$1 \$2 \$3;
#X msg 37 281 0 0 1;
#X msg 193 280 9 12 19;
#X msg 106 281 5 12 12;
#X text 37 242 NONE;
#X text 196 239 output;
#X text 87 257 digital/analog;
#X text 106 240 input;
#X text 183 258 digital/pwm/servo;
#X text 36 221 ____define toggle colors for____;
#X connect 0 0 3 0;
#X connect 0 0 14 0;
#X connect 1 0 3 0;
#X connect 1 0 13 0;
#X connect 2 0 3 0;
#X connect 2 0 13 0;
#X connect 3 0 4 0;
#X connect 4 0 5 0;
#X connect 6 0 3 0;
#X connect 6 0 14 0;
#X connect 7 0 9 0;
#X connect 8 0 3 0;
#X connect 8 0 13 0;
#X connect 9 0 10 0;
#X connect 9 1 0 0;
#X connect 9 2 1 0;
#X connect 9 3 6 0;
#X connect 9 4 2 0;
#X connect 9 5 8 0;
#X connect 10 0 3 0;
#X connect 10 0 12 0;
#X connect 11 0 5 0;
#X connect 12 0 11 0;
#X connect 13 0 11 0;
#X connect 14 0 11 0;
#X restore 312 187 pd label;
#N canvas 0 0 462 485 label 0;
#X msg 129 94 I;
#X msg 158 94 O;
#X msg 220 94 P;
#X obj 312 289 list;
#X msg 312 318 label \$1;
#X obj 204 380 outlet;
#X msg 189 94 A;
#X obj 142 24 inlet;
#X msg 250 95 S;
#X obj 142 53 sel 0 1 2 3 4 5;
#X msg 96 94 N;
#X msg 116 331 color \$1 \$2 \$3;
#X msg 47 291 0 0 1;
#X msg 203 290 9 12 19;
#X msg 116 291 5 12 12;
#X text 47 252 NONE;
#X text 206 249 output;
#X text 97 267 digital/analog;
#X text 116 250 input;
#X text 193 268 digital/pwm/servo;
#X text 46 231 ____define toggle colors for____;
#X connect 0 0 3 0;
#X connect 0 0 14 0;
#X connect 1 0 3 0;
#X connect 1 0 13 0;
#X connect 2 0 3 0;
#X connect 2 0 13 0;
#X connect 3 0 4 0;
#X connect 4 0 5 0;
#X connect 6 0 3 0;
#X connect 6 0 14 0;
#X connect 7 0 9 0;
#X connect 8 0 3 0;
#X connect 8 0 13 0;
#X connect 9 0 10 0;
#X connect 9 1 0 0;
#X connect 9 2 1 0;
#X connect 9 3 6 0;
#X connect 9 4 2 0;
#X connect 9 5 8 0;
#X connect 10 0 3 0;
#X connect 10 0 12 0;
#X connect 11 0 5 0;
#X connect 12 0 11 0;
#X connect 13 0 11 0;
#X connect 14 0 11 0;
#X restore 271 207 pd label;
#X obj 313 239 outlet;
#X obj 271 239 outlet;
#N canvas 0 0 410 411 label 0;
#X obj 188 377 outlet;
#X obj 132 17 inlet;
#X msg 119 84 I;
#X msg 148 84 O;
#X msg 210 84 P;
#X obj 302 279 list;
#X msg 302 308 label \$1;
#X msg 179 84 A;
#X msg 240 85 S;
#X obj 132 43 sel 0 1 2 3 4 5;
#X msg 86 84 N;
#X msg 106 321 color \$1 \$2 \$3;
#X msg 37 281 0 0 1;
#X msg 193 280 9 12 19;
#X msg 106 281 5 12 12;
#X text 37 242 NONE;
#X text 196 239 output;
#X text 87 257 digital/analog;
#X text 106 240 input;
#X text 183 258 digital/pwm/servo;
#X text 36 221 ____define toggle colors for____;
#X connect 1 0 9 0;
#X connect 2 0 5 0;
#X connect 2 0 14 0;
#X connect 3 0 5 0;
#X connect 3 0 13 0;
#X connect 4 0 5 0;
#X connect 4 0 13 0;
#X connect 5 0 6 0;
#X connect 6 0 0 0;
#X connect 7 0 5 0;
#X connect 7 0 14 0;
#X connect 8 0 5 0;
#X connect 8 0 13 0;
#X connect 9 0 10 0;
#X connect 9 1 2 0;
#X connect 9 2 3 0;
#X connect 9 3 7 0;
#X connect 9 4 4 0;
#X connect 9 5 8 0;
#X connect 10 0 5 0;
#X connect 10 0 12 0;
#X connect 11 0 0 0;
#X connect 12 0 11 0;
#X connect 13 0 11 0;
#X connect 14 0 11 0;
#X restore 229 167 pd label;
#N canvas 0 0 458 458 label 0;
#X msg 119 84 I;
#X msg 148 84 O;
#X msg 210 84 P;
#X obj 302 279 list;
#X msg 302 308 label \$1;
#X obj 194 370 outlet;
#X msg 179 84 A;
#X obj 132 14 inlet;
#X msg 240 85 S;
#X obj 132 43 sel 0 1 2 3 4 5;
#X msg 86 84 N;
#X msg 106 321 color \$1 \$2 \$3;
#X msg 37 281 0 0 1;
#X msg 193 280 9 12 19;
#X msg 106 281 5 12 12;
#X text 37 242 NONE;
#X text 196 239 output;
#X text 87 257 digital/analog;
#X text 106 240 input;
#X text 183 258 digital/pwm/servo;
#X text 36 221 ____define toggle colors for____;
#X connect 0 0 3 0;
#X connect 0 0 14 0;
#X connect 1 0 3 0;
#X connect 1 0 13 0;
#X connect 2 0 3 0;
#X connect 2 0 13 0;
#X connect 3 0 4 0;
#X connect 4 0 5 0;
#X connect 6 0 3 0;
#X connect 6 0 14 0;
#X connect 7 0 9 0;
#X connect 8 0 3 0;
#X connect 8 0 13 0;
#X connect 9 0 10 0;
#X connect 9 1 0 0;
#X connect 9 2 1 0;
#X connect 9 3 6 0;
#X connect 9 4 2 0;
#X connect 9 5 8 0;
#X connect 10 0 3 0;
#X connect 10 0 12 0;
#X connect 11 0 5 0;
#X connect 12 0 11 0;
#X connect 13 0 11 0;
#X connect 14 0 11 0;
#X restore 186 187 pd label;
#N canvas 0 0 462 485 label 0;
#X msg 129 94 I;
#X msg 158 94 O;
#X msg 220 94 P;
#X obj 312 289 list;
#X msg 312 318 label \$1;
#X obj 204 380 outlet;
#X msg 189 94 A;
#X obj 142 24 inlet;
#X msg 250 95 S;
#X obj 142 53 sel 0 1 2 3 4 5;
#X msg 96 94 N;
#X msg 116 331 color \$1 \$2 \$3;
#X msg 47 291 0 0 1;
#X msg 203 290 9 12 19;
#X msg 116 291 5 12 12;
#X text 47 252 NONE;
#X text 206 249 output;
#X text 97 267 digital/analog;
#X text 116 250 input;
#X text 193 268 digital/pwm/servo;
#X text 46 231 ____define toggle colors for____;
#X connect 0 0 3 0;
#X connect 0 0 14 0;
#X connect 1 0 3 0;
#X connect 1 0 13 0;
#X connect 2 0 3 0;
#X connect 2 0 13 0;
#X connect 3 0 4 0;
#X connect 4 0 5 0;
#X connect 6 0 3 0;
#X connect 6 0 14 0;
#X connect 7 0 9 0;
#X connect 8 0 3 0;
#X connect 8 0 13 0;
#X connect 9 0 10 0;
#X connect 9 1 0 0;
#X connect 9 2 1 0;
#X connect 9 3 6 0;
#X connect 9 4 2 0;
#X connect 9 5 8 0;
#X connect 10 0 3 0;
#X connect 10 0 12 0;
#X connect 11 0 5 0;
#X connect 12 0 11 0;
#X connect 13 0 11 0;
#X connect 14 0 11 0;
#X restore 145 207 pd label;
#X obj 229 239 outlet;
#X obj 187 239 outlet;
#X obj 145 239 outlet;
#X msg 103 65 pinMode 16 \$1;
#X msg 143 45 pinMode 17 \$1;
#X msg 182 117 pinMode 18 \$1;
#X msg 220 97 pinMode 19 \$1;
#X msg 260 76 pinMode 20 \$1;
#X msg 298 53 pinMode 21 \$1;
#N canvas 0 0 458 458 label 0;
#X msg 119 84 I;
#X msg 148 84 O;
#X msg 210 84 P;
#X obj 302 279 list;
#X msg 302 308 label \$1;
#X obj 194 370 outlet;
#X msg 179 84 A;
#X obj 132 14 inlet;
#X msg 240 85 S;
#X obj 132 43 sel 0 1 2 3 4 5;
#X msg 86 84 N;
#X msg 106 321 color \$1 \$2 \$3;
#X msg 37 281 0 0 1;
#X msg 193 280 9 12 19;
#X msg 106 281 5 12 12;
#X text 37 242 NONE;
#X text 196 239 output;
#X text 87 257 digital/analog;
#X text 106 240 input;
#X text 183 258 digital/pwm/servo;
#X text 36 221 ____define toggle colors for____;
#X connect 0 0 3 0;
#X connect 0 0 14 0;
#X connect 1 0 3 0;
#X connect 1 0 13 0;
#X connect 2 0 3 0;
#X connect 2 0 13 0;
#X connect 3 0 4 0;
#X connect 4 0 5 0;
#X connect 6 0 3 0;
#X connect 6 0 14 0;
#X connect 7 0 9 0;
#X connect 8 0 3 0;
#X connect 8 0 13 0;
#X connect 9 0 10 0;
#X connect 9 1 0 0;
#X connect 9 2 1 0;
#X connect 9 3 6 0;
#X connect 9 4 2 0;
#X connect 9 5 8 0;
#X connect 10 0 3 0;
#X connect 10 0 12 0;
#X connect 11 0 5 0;
#X connect 12 0 11 0;
#X connect 13 0 11 0;
#X connect 14 0 11 0;
#X restore 355 166 pd label;
#X obj 355 239 outlet;
#X connect 0 0 40 0;
#X connect 1 0 39 0;
#X connect 1 0 25 0;
#X connect 2 0 38 0;
#X connect 2 0 26 0;
#X connect 3 0 37 0;
#X connect 3 0 29 0;
#X connect 4 0 36 0;
#X connect 4 0 30 0;
#X connect 5 0 35 0;
#X connect 5 0 31 0;
#X connect 7 0 6 0;
#X connect 7 1 6 0;
#X connect 8 0 9 0;
#X connect 9 0 7 0;
#X connect 10 0 11 0;
#X connect 11 0 12 0;
#X connect 11 1 12 1;
#X connect 11 2 22 0;
#X connect 12 0 8 0;
#X connect 13 0 12 2;
#X connect 14 0 13 0;
#X connect 15 0 13 0;
#X connect 16 0 13 0;
#X connect 17 0 19 0;
#X connect 18 0 17 0;
#X connect 20 0 13 0;
#X connect 21 0 13 0;
#X connect 22 0 23 0;
#X connect 23 0 20 0;
#X connect 23 1 21 0;
#X connect 23 2 14 0;
#X connect 23 3 15 0;
#X connect 23 4 16 0;
#X connect 23 6 18 0;
#X connect 25 0 27 0;
#X connect 26 0 28 0;
#X connect 29 0 32 0;
#X connect 30 0 33 0;
#X connect 31 0 34 0;
#X connect 35 0 10 0;
#X connect 36 0 10 0;
#X connect 37 0 10 0;
#X connect 38 0 10 0;
#X connect 39 0 10 0;
#X connect 40 0 10 0;
#X connect 40 0 41 0;
#X connect 41 0 42 0;
#X restore 100 215 pd send-to-arduino---------------;
#X msg 100 392 pinMode 16 output;
#X obj 132 239 s \$0-r-by-Pin_16;
#X obj 165 261 s \$0-r-by-Pin_17;
#X obj 197 283 s \$0-r-by-Pin_18;
#X obj 231 304 s \$0-r-by-Pin_19;
#X obj 262 325 s \$0-r-by-Pin_20;
#X obj 295 346 s \$0-r-by-Pin_21;
#X connect 2 0 8 5;
#X connect 3 0 8 4;
#X connect 4 0 8 3;
#X connect 5 0 8 2;
#X connect 6 0 8 1;
#X connect 7 0 8 0;
#X connect 8 0 9 0;
#X connect 8 1 10 0;
#X connect 8 2 11 0;
#X connect 8 3 12 0;
#X connect 8 4 13 0;
#X connect 8 5 14 0;
#X connect 8 6 15 0;
#X connect 9 0 1 0;
#X coords 0 -1 1 1 95 61 2 100 100;
#X restore 424 300 pd pinMode;
#X text 523 312 input;
#X text 523 327 output;
#X text 523 298 NONE;
#X text 523 343 analog;
#X obj 171 43 cnv 15 350 250 empty empty empty 20 12 0 14 -67964 -66577
0;
#X obj 249 45 tgl 15 0 empty empty 15 0 23 1 9 -162280 -1 -191407 0
1;
#X obj 283 45 tgl 15 0 empty empty 13 0 23 1 9 -262144 -262144 -262144
0 1;
#X obj 300 45 tgl 15 0 empty empty 12 0 23 1 9 -262144 -262144 -262144
0 1;
#X obj 334 45 tgl 15 0 empty empty 10 0 23 1 9 -262144 -262144 -262144
0 1;
#X obj 317 45 tgl 15 0 empty empty 11 0 23 1 9 -262144 -262144 -262144
0 1;
#X obj 351 45 tgl 15 0 empty empty 9 5 23 1 9 -262144 -262144 -262144
0 1;
#X obj 368 45 tgl 15 0 empty empty 8 5 23 1 9 -262144 -262144 -262144
0 1;
#X obj 385 45 tgl 15 0 empty empty 7 5 23 1 9 -262144 -262144 -262144
0 1;
#X obj 402 45 tgl 15 0 empty empty 6 5 23 1 9 -262144 -262144 -262144
0 1;
#X obj 419 45 tgl 15 0 empty empty 5 5 23 1 9 -262144 -262144 -262144
0 1;
#X obj 436 45 tgl 15 0 empty empty 4 5 23 1 9 -262144 -262144 -262144
0 1;
#X obj 453 45 tgl 15 0 empty empty 3 5 23 1 9 -262144 -262144 -262144
0 1;
#X obj 470 45 tgl 15 0 empty empty 2 5 23 1 9 -262144 -262144 -262144
0 1;
#X obj 487 45 tgl 15 0 empty empty 1 5 23 1 9 -162280 -262144 -191407
0 1;
#X obj 504 45 tgl 15 0 empty empty 0 5 23 1 9 -162280 -262144 -191407
0 1;
#X text 506 69 R;
#X text 506 80 X;
#X text 490 69 T;
#X text 490 80 X;
#X obj 266 45 tgl 15 0 empty empty 14 0 23 1 9 -162280 -1 -191407 0
1;
#X text 268 69 G;
#X text 268 80 N;
#X text 268 91 D;
#X text 251 70 A;
#X text 251 81 R;
#X text 251 91 E;
#X text 251 101 F;
#X obj 419 276 tgl 15 0 empty empty 16 0 -6 1 9 -262144 -262144 -262144
0 1;
#X obj 436 276 tgl 15 0 empty empty 17 0 -6 1 9 -262144 -262144 -262144
0 1;
#X obj 453 276 tgl 15 0 empty empty 18 0 -6 1 9 -262144 -262144 -262144
0 1;
#X obj 470 276 tgl 15 0 empty empty 19 0 -6 1 9 -262144 -262144 -262144
0 1;
#X obj 487 276 tgl 15 0 empty empty 20 0 -6 1 9 -262144 -262144 -262144
0 1;
#X obj 504 276 tgl 15 0 empty empty 21 0 -6 1 9 -262144 -262144 -262144
0 1;
#X text 363 108 Digital;
#X text 318 69 P;
#X text 319 80 W;
#X text 318 91 M;
#X text 336 69 P;
#X text 337 80 W;
#X text 336 91 M;
#X text 355 69 P;
#X text 356 80 W;
#X text 355 91 M;
#X text 405 69 P;
#X text 406 80 W;
#X text 405 91 M;
#X text 422 69 P;
#X text 423 80 W;
#X text 422 91 M;
#X text 456 69 P;
#X text 457 80 W;
#X text 456 91 M;
#X text 441 234 Analog in;
#X obj 379 276 tgl 15 0 empty empty empty 0 -6 1 9 -261234 -262144
-262144 0 1;
#X text 380 242 V;
#X text 381 252 i;
#X text 381 260 n;
#X obj 362 276 tgl 15 0 empty empty empty 0 23 1 9 -162280 -1 -191407
0 1;
#X text 363 238 G;
#X text 363 249 N;
#X text 363 260 D;
#X obj 345 276 tgl 15 0 empty empty empty 0 23 1 9 -162280 -1 -191407
0 1;
#X text 346 238 G;
#X text 346 249 N;
#X text 346 260 D;
#X obj 328 276 tgl 15 0 empty empty empty 0 -6 1 9 -261234 -262144
-262144 0 1;
#X text 329 249 5;
#X text 329 259 V;
#X obj 311 276 tgl 15 0 empty empty empty 0 -6 1 9 -261234 -262144
-262144 0 1;
#X text 312 259 V;
#X text 312 249 3;
#X text 312 239 3;
#X obj 294 276 tgl 15 0 empty empty empty 0 23 1 9 -162280 -1 -191407
0 1;
#X text 295 260 T;
#X text 295 238 R;
#X text 295 249 S;
#X text 417 249 A0;
#X text 435 249 A1;
#X text 452 249 A2;
#X text 468 249 A3;
#X text 485 249 A4;
#X text 502 249 A5;
#X text 183 155 White letters are showing the Pin Numbering Map for
;
#X text 182 170 Arduino UNO \, Duemilanove \, Nano \, Diecimila...
;
#X text 408 364 set your Analog Pins;
#X text 408 376 on this panel;
#X restore 791 447 pd set Analog Pins;
#X obj 492 697 cnv 15 300 70 empty empty Use 5 10 1 14 -228856 -66577
0;
#X obj 942 390 tgl 15 0 empty empty empty 17 7 0 10 -262144 -1 -1 0
1;
#X obj 944 422 s \$0-r-by-Pin_16;
#X obj 943 495 s \$0-r-by-Pin_16;
#X obj 942 461 hsl 128 15 0 1 0 0 empty empty empty -2 -8 0 10 -262144
-1 -1 0 1;
#X obj 18 12 declare -path includes;
#X obj 16 41 inlet;
#X obj 17 127 cnv 15 240 80 empty empty empty 20 12 0 14 -204786 -66577
0;
#X obj 31 666 outlet;
#X obj 139 668 outlet;
#X obj 25 180 s \$0.ARDUINO.OUT;
#X obj 138 181 s \$0.ARDUINO.INFO;
#X obj 25 157 arduino;
#X obj 25 134 r \$0.ARDUINO.TO;
#X obj 31 643 r \$0.ARDUINO.OUT;
#X obj 139 644 r \$0.ARDUINO.INFO;
#X obj 603 107 s \$0.ARDUINO.TO;
#X obj 16 63 s \$0.ARDUINO.IN;
#N canvas 626 145 455 241 EXPLAIN 0;
#X text 6 62 \$0.ARDUINO.OUT;
#X text 6 89 \$0.ARDUINO.INFO;
#X text 6 116 \$0.ARDUINO.INTERN;
#X text 6 35 \$0.ARDUINO.TO;
#X text 6 8 \$0.ARDUINO.IN;
#X text 124 117 <- GOP-internal Communication;
#X text 124 90 <- Arduino Status Messages (sent to outlet1);
#X text 124 62 <- Arduino Pin Messages (sent to outlet0);
#X text 124 7 <- external commands (modules are listening here);
#X text 124 35 <- Commands sent from modules -> [arduino];
#X restore 177 133 pd EXPLAIN;
#X obj 512 164 comport;
#X obj 268 18 cnv 15 200 250 empty empty empty 20 12 0 14 -203904 -66577
0;
#X obj 276 81 agop.firmware.check \$0;
#X text 275 25 device selector;
#X text 276 63 firmware check;
#X obj 276 43 agop.device.selector \$0;
#X connect 61 0 62 0;
#X connect 63 0 61 0;
#X connect 108 0 110 0;
#X connect 110 0 111 0;
#X connect 112 0 162 0;
#X connect 113 0 112 0;
#X connect 114 0 162 0;
#X connect 120 0 103 0;
#X connect 121 0 120 0;
#X connect 127 0 124 0;
#X connect 135 0 103 0;
#X connect 147 0 148 0;
#X connect 150 0 149 0;
#X connect 152 0 163 0;
#X connect 158 0 156 0;
#X connect 158 1 157 0;
#X connect 159 0 158 0;
#X connect 160 0 154 0;
#X connect 161 0 155 0;
