#N canvas 97 102 644 558 10;
#X msg 39 472 label \$1;
#X msg 39 381 \$5;
#X msg 71 355 set \, adddollar \$1;
#X obj 39 402 list;
#X obj 39 308 t b a;
#X obj 39 329 list append;
#X obj 39 259 moses 1;
#X obj 85 281 moses;
#X msg 86 401 symbol empty;
#X obj 39 449 makefilename %d;
#X obj 39 427 route float;
#X obj 36 18 inlet;
#X obj 36 40 route list on off pos;
#X obj 36 62 list;
#X obj 36 84 t a a;
#X obj 36 106 list length;
#X obj 36 128 + 1;
#X obj 237 62 t b b;
#X obj 237 41 spigot 1;
#X msg 328 52 0;
#X obj 39 503 s \$1.field.\$2.r;
#X obj 144 135 + \$2;
#X obj 237 148 s \$1.list.sel;
#X obj 233 425 s \$1.field.\$2.r;
#X obj 72 62 t b b;
#X obj 270 230 f \$2;
#X obj 270 276 * 15;
#X obj 270 298 + 50;
#X obj 237 85 pack \$1 \$2;
#X obj 270 322 pack f f;
#X obj 270 253 t a a;
#X obj 340 247 sel 0;
#X msg 340 273 20;
#X msg 372 274 10;
#X msg 270 346 pos 20 \$1 \, color \$2 -1 \, vis_size 80 14;
#X msg 233 372 pos 20 50 \, label empty \, vis_size 1 1 \, color -1
-1;
#X msg 237 107 obj 20 50 cnv 1 80 14 empty \$1.field.\$2.r empty 7
7 0 10 -228856 -1 0 \;;
#X connect 0 0 20 0;
#X connect 1 0 3 0;
#X connect 2 0 1 0;
#X connect 3 0 10 0;
#X connect 4 0 5 0;
#X connect 4 1 2 0;
#X connect 5 0 1 0;
#X connect 6 0 8 0;
#X connect 6 1 7 0;
#X connect 7 0 4 0;
#X connect 7 1 8 0;
#X connect 8 0 10 0;
#X connect 9 0 0 0;
#X connect 10 0 9 0;
#X connect 10 1 0 0;
#X connect 11 0 12 0;
#X connect 12 0 13 0;
#X connect 12 1 24 0;
#X connect 12 2 35 0;
#X connect 12 3 21 0;
#X connect 13 0 14 0;
#X connect 14 0 15 0;
#X connect 14 1 5 1;
#X connect 15 0 16 0;
#X connect 16 0 7 1;
#X connect 17 0 28 0;
#X connect 17 1 19 0;
#X connect 18 0 17 0;
#X connect 19 0 18 1;
#X connect 21 0 6 0;
#X connect 24 0 25 0;
#X connect 24 1 18 0;
#X connect 25 0 30 0;
#X connect 26 0 27 0;
#X connect 27 0 29 0;
#X connect 28 0 36 0;
#X connect 29 0 34 0;
#X connect 30 0 26 0;
#X connect 30 1 31 0;
#X connect 31 0 32 0;
#X connect 31 1 33 0;
#X connect 32 0 29 1;
#X connect 33 0 29 1;
#X connect 34 0 23 0;
#X connect 35 0 23 0;
#X connect 36 0 22 0;
