#N canvas 147 222 460 475 10;
#X obj 26 213 bng 15 250 50 0 empty empty empty 17 7 0 10 -262144 -1
-1;
#X obj 44 335 list prepend;
#X obj 131 336 t a;
#X obj 25 371 list append;
#X obj 26 235 t b b b;
#X obj 25 397 print FERTIGE_LISTE;
#X obj 218 423 s \$0.device_list;
#X obj 220 449 list.selector \$0.device_list;
#X obj 219 361 list prepend set.list;
#X obj 219 387 list trim;
#X msg 44 255 /dev/ttyUSB0 \, /dev/bla \, /dev/null \, /dev/gaggi;
#X connect 0 0 4 0;
#X connect 1 0 2 0;
#X connect 1 0 3 1;
#X connect 2 0 1 1;
#X connect 3 0 5 0;
#X connect 3 0 8 0;
#X connect 4 0 3 0;
#X connect 4 1 10 0;
#X connect 4 2 3 1;
#X connect 4 2 1 1;
#X connect 8 0 9 0;
#X connect 9 0 6 0;
#X connect 10 0 1 0;
