#N canvas 3 141 200 200 10;
#N canvas 20 85 420 300 META 1;
#X text 10 10 VERSION 0.6;
#X text 10 25 AUTHOR Georg Holzmann \, Gerda Strobl \, Hans-Christoph
Steiner \, Olsen Wolf \, Roman Haefeli;
#X text 10 52 NAME pduino;
#N canvas 341 85 450 300 OBJECTS 0;
#X text 15 17 arduino interface Pd to analog and digital input and
output pins of an arduino board;
#X text 14 47 arduino-gui graphic version of the arduino object that
also reflects the boards state;
#X restore 10 75 pd OBJECTS;
#X restore 10 10 pd META;
