#N canvas 66 362 494 354 10;
#X text 153 122 On Mac OS X \, set this to the right value:;
#X obj 103 182 comport 1 9600;
#X text 30 11 You might need to select another port \, check the Pd
window to see if it connected successfully:;
#X msg 163 87 close;
#X msg 157 139 devicename /dev/tty.usbserial-191;
#X obj 102 215 nbx 6 16 -1e+37 1e+37 0 0 empty empty empty 0 -6 0 14
-3754 -1 -1 79 256;
#X text 36 252 CAUTION! Watch out if you connect your potentiometer
without an extra resistor \, when you turn it all the way up \, the
full voltage and currrent will go to the input. This could kill your
board!;
#N canvas 162 133 518 368 serin 0;
#X obj 160 101 cnv 15 15 15 empty \$0-number-canvas 1 4 7 0 14 -233017
-1 0;
#X obj 241 251 s \$0-number-canvas;
#X obj 100 101 hradio 15 1 0 4 empty empty empty 0 -6 0 8 -225271 -1
-1 0;
#X obj 101 134 + 1;
#X obj 100 173 outlet;
#X obj 101 39 inlet;
#X msg 241 228 label \$1;
#X obj 241 206 makefilename %d;
#X connect 2 0 3 0;
#X connect 3 0 4 0;
#X connect 3 0 7 0;
#X connect 5 0 2 0;
#X connect 6 0 1 0;
#X connect 7 0 6 0;
#X coords 0 -1 1 1 76 17 1 100 100;
#X restore 103 61 pd serin;
#X msg 103 86 open \$1;
#X text 184 62 serial port #;
#X text 30 -20 This patch works with the example Arduino firmware of
the same name.;
#X connect 1 0 5 0;
#X connect 3 0 1 0;
#X connect 4 0 1 0;
#X connect 7 0 8 0;
#X connect 8 0 1 0;
