#N canvas 667 323 440 377 10;
#X obj 20 20 cnv 5 5 5 empty \$0.led empty 20 12 0 14 -166401 -262144
0;
#X obj 264 119 << 8;
#X obj 227 143 << 16;
#X obj 228 165 +;
#X obj 264 143 +;
#X obj 228 185 * -1;
#X obj 228 206 - 1;
#X obj 193 76 list split 1;
#X obj 227 98 unpack f f f;
#X obj 193 231 list append;
#X obj 193 252 route 0 1;
#X obj 59 287 f;
#X obj 84 288 f;
#X obj 59 257 sel 0 1;
#X msg 59 316 color \$1 0;
#X obj 59 340 s \$0.led;
#X msg 193 54 0 160 160 0 \, 1 255 255 0;
#X obj 193 31 loadbang;
#X obj 59 32 r \$1.ARDUINO.OUT;
#X obj 59 92 t b b;
#X msg 86 142 0;
#X msg 59 162 1;
#X obj 59 188 change -1;
#X obj 86 120 del 50;
#X obj 69 52 r \$1.ARDUINO.INFO;
#X connect 1 0 4 0;
#X connect 2 0 3 0;
#X connect 3 0 5 0;
#X connect 4 0 3 1;
#X connect 5 0 6 0;
#X connect 6 0 9 1;
#X connect 7 0 9 0;
#X connect 7 1 8 0;
#X connect 8 0 2 0;
#X connect 8 1 1 0;
#X connect 8 2 4 1;
#X connect 9 0 10 0;
#X connect 10 0 11 1;
#X connect 10 1 12 1;
#X connect 11 0 14 0;
#X connect 12 0 14 0;
#X connect 13 0 11 0;
#X connect 13 1 12 0;
#X connect 14 0 15 0;
#X connect 16 0 7 0;
#X connect 17 0 16 0;
#X connect 18 0 19 0;
#X connect 19 0 21 0;
#X connect 19 1 23 0;
#X connect 20 0 22 0;
#X connect 21 0 22 0;
#X connect 22 0 13 0;
#X connect 23 0 20 0;
#X connect 24 0 19 0;
#X coords 0 -1 1 1 5 5 2 20 20;
