#N canvas 564 44 663 583 10;
#X obj 22 108 route serial.com;
#X obj 20 279 route firmware;
#X obj 22 156 sel 1 0;
#X obj 22 227 s \$0.label;
#X msg 41 182 label disconnected \, color 0 -1;
#X obj 22 86 r \$1.ARDUINO.INTERN;
#X msg 22 206 label waiting_for_firmware \, color 10 -1;
#X obj 20 323 unpack f f;
#X obj 20 346 sel 2;
#X msg 20 393 2;
#X obj 20 440 pack f f;
#X obj 92 418 pack f f;
#X obj 92 506 s \$0.label;
#X obj 20 255 r \$1.ARDUINO.INFO;
#X obj 20 20 cnv 11 275 44 empty \$0.label disconnected 7 28 0 10 -262144
-1 0;
#X msg 216 347 ready \$1;
#X obj 22 130 t a a;
#X msg 248 292 0;
#X obj 216 324 change -1;
#X obj 20 368 t b b;
#X msg 216 294 1;
#X obj 216 369 s \$1.ARDUINO.INTERN;
#X msg 396 109 stop;
#X msg 423 174 firmware;
#X obj 423 195 s \$1.ARDUINO.TO;
#X obj 396 152 t b b;
#X obj 396 259 del 500;
#X obj 396 130 del 4500;
#X msg 376 228 stop;
#X obj 20 301 t a b;
#X msg 20 462 label Firmware_OK_(v\$1.\$2) \, color 6 -1;
#X msg 92 440 label wrong_FW_version \, color 4 -1;
#X msg 396 454 label no_Firmware_found \, color 4 -1;
#X connect 0 0 16 0;
#X connect 1 0 29 0;
#X connect 2 0 6 0;
#X connect 2 0 27 0;
#X connect 2 1 4 0;
#X connect 2 1 22 0;
#X connect 4 0 3 0;
#X connect 5 0 0 0;
#X connect 6 0 3 0;
#X connect 7 0 8 0;
#X connect 7 1 10 1;
#X connect 7 1 11 1;
#X connect 8 0 19 0;
#X connect 8 1 11 0;
#X connect 9 0 10 0;
#X connect 10 0 30 0;
#X connect 11 0 31 0;
#X connect 13 0 1 0;
#X connect 15 0 21 0;
#X connect 16 0 2 0;
#X connect 16 1 17 0;
#X connect 17 0 18 0;
#X connect 18 0 15 0;
#X connect 19 0 20 0;
#X connect 19 1 9 0;
#X connect 20 0 18 0;
#X connect 22 0 27 0;
#X connect 23 0 24 0;
#X connect 25 0 26 0;
#X connect 25 1 23 0;
#X connect 26 0 32 0;
#X connect 27 0 25 0;
#X connect 28 0 26 0;
#X connect 29 0 7 0;
#X connect 29 1 22 0;
#X connect 29 1 28 0;
#X connect 30 0 12 0;
#X connect 31 0 12 0;
#X connect 32 0 12 0;
#X coords 0 -1 1 1 275 44 2 20 20;
