#N canvas 667 323 377 378 10;
#X obj 20 20 cnv 5 5 5 empty \$0.led empty 20 12 0 14 -2561 -262144
0;
#X obj 262 102 << 8;
#X obj 225 126 << 16;
#X obj 226 148 +;
#X obj 262 126 +;
#X obj 226 168 * -1;
#X obj 226 189 - 1;
#X obj 191 59 list split 1;
#X obj 225 81 unpack f f f;
#X obj 191 214 list append;
#X obj 191 235 route 0 1;
#X obj 44 283 f;
#X obj 69 284 f;
#X obj 44 253 sel 0 1;
#X msg 44 312 color \$1 0;
#X obj 44 336 s \$0.led;
#X obj 191 14 loadbang;
#X obj 44 227 change -1;
#X obj 44 169 r \$1.ARDUINO.INTERN;
#X msg 191 37 0 0 160 0 \, 1 0 255 0;
#X obj 44 191 route ready;
#X connect 1 0 4 0;
#X connect 2 0 3 0;
#X connect 3 0 5 0;
#X connect 4 0 3 1;
#X connect 5 0 6 0;
#X connect 6 0 9 1;
#X connect 7 0 9 0;
#X connect 7 1 8 0;
#X connect 8 0 2 0;
#X connect 8 1 1 0;
#X connect 8 2 4 1;
#X connect 9 0 10 0;
#X connect 10 0 11 1;
#X connect 10 1 12 1;
#X connect 11 0 14 0;
#X connect 12 0 14 0;
#X connect 13 0 11 0;
#X connect 13 1 12 0;
#X connect 14 0 15 0;
#X connect 16 0 19 0;
#X connect 17 0 13 0;
#X connect 18 0 20 0;
#X connect 19 0 7 0;
#X connect 20 0 17 0;
#X coords 0 -1 1 1 5 5 2 20 20;
