#N canvas 705 69 448 245 10;
#X obj 265 63 namecanvas \$0.goparea;
#X obj 265 63 namecanvas \$0.goparea;
#N canvas 978 431 154 108 INIT 0;
#X obj 10 10 loadbang;
#X obj 10 32 \$0;
#X msg 10 54 \; \$1.sens 5 \;;
#X connect 0 0 1 0;
#X connect 1 0 2 0;
#X restore 265 41 pd INIT;
#X obj 21 21 vsl 8 9 5 -1 0 0 \$0.selector.s \$0.selector.r empty 1
5 0 10 -228856 -228856 -1 0 1;
#N canvas 735 208 285 396 mode.selector 0;
#N canvas 278 280 419 327 slider.wrapper 0;
#X obj 20 255 pack f f f;
#X obj 20 233 - 1;
#X obj 20 167 change;
#X obj 20 208 t a a a;
#X obj 77 231 +;
#X msg 20 277 range \$2 \$1 \, set \$3;
#X obj 20 299 s \$0.selector.r;
#X obj 20 145 div 5;
#X obj 20 187 * 5;
#X obj 92 208 mod 5;
#X obj 48 232 + 5;
#X obj 20 48 max 0;
#X obj 20 74 min 1e+37;
#X obj 139 20 inlet;
#X obj 139 42 route range set;
#X obj 139 67 unpack;
#X obj 203 67 r \$0.sens;
#X obj 139 91 *;
#X obj 172 91 *;
#X obj 172 184 div;
#X obj 172 206 change -1e+37;
#X obj 172 228 outlet;
#X obj 182 121 *;
#X obj 20 120 t a a;
#X obj 20 96 t a a;
#X obj 20 17 r \$0.selector.s;
#X connect 0 0 5 0;
#X connect 1 0 0 0;
#X connect 2 0 8 0;
#X connect 3 0 1 0;
#X connect 3 1 10 0;
#X connect 3 2 4 0;
#X connect 4 0 0 2;
#X connect 5 0 6 0;
#X connect 7 0 2 0;
#X connect 8 0 3 0;
#X connect 9 0 4 1;
#X connect 10 0 0 1;
#X connect 11 0 12 0;
#X connect 12 0 24 0;
#X connect 13 0 14 0;
#X connect 14 0 15 0;
#X connect 14 1 22 0;
#X connect 15 0 17 0;
#X connect 15 1 18 0;
#X connect 16 0 18 1;
#X connect 16 0 17 1;
#X connect 16 0 19 1;
#X connect 16 0 22 1;
#X connect 17 0 11 1;
#X connect 18 0 12 1;
#X connect 19 0 20 0;
#X connect 20 0 21 0;
#X connect 22 0 23 0;
#X connect 23 0 7 0;
#X connect 23 1 9 0;
#X connect 24 0 23 0;
#X connect 24 1 19 0;
#X connect 25 0 11 0;
#X restore -7 131 pd slider.wrapper;
#X obj -7 60 t a a;
#X obj -7 86 list length;
#N canvas 874 200 385 462 list.selector.fields 0;
#N canvas 1158 378 142 254 counter 0;
#X obj 10 12 inlet;
#X msg 38 61 -2;
#X obj 10 83 until;
#X obj 10 105 f;
#X obj 37 106 + 1;
#X obj 10 38 t b b a;
#X obj 10 202 list prepend;
#X obj 10 224 outlet;
#X obj 10 126 t a a;
#X obj 10 181 list append;
#X obj 51 156 + 21;
#X obj 51 133 * 11;
#X msg 10 61 6;
#X connect 0 0 5 0;
#X connect 1 0 3 1;
#X connect 2 0 3 0;
#X connect 3 0 4 0;
#X connect 3 0 8 0;
#X connect 4 0 3 1;
#X connect 5 0 12 0;
#X connect 5 1 1 0;
#X connect 5 2 6 1;
#X connect 6 0 7 0;
#X connect 8 0 9 0;
#X connect 8 1 11 0;
#X connect 9 0 6 0;
#X connect 10 0 9 1;
#X connect 11 0 10 0;
#X connect 12 0 2 0;
#X restore 5 200 pd counter;
#X obj 5 224 t a a;
#X obj 5 442 s;
#X obj 5 246 list trim;
#X obj 159 49 inlet;
#X obj 32 50 del 600;
#X obj 277 85 inlet;
#X msg 5 75 1;
#X msg 32 75 0;
#X obj 5 288 route 1 0;
#N canvas 752 365 288 441 update.labels 0;
#N canvas 646 299 158 272 counter 0;
#X obj 10 12 inlet;
#X msg 10 57 5;
#X msg 38 57 -2;
#X obj 10 79 until;
#X obj 10 101 f;
#X obj 37 102 + 1;
#X obj 10 124 outlet;
#X obj 10 34 t b b;
#X connect 0 0 7 0;
#X connect 1 0 3 0;
#X connect 2 0 4 1;
#X connect 3 0 4 0;
#X connect 4 0 5 0;
#X connect 4 0 6 0;
#X connect 5 0 4 1;
#X connect 7 0 1 0;
#X connect 7 1 2 0;
#X restore -47 75 pd counter;
#X obj -47 31 t b a;
#X obj -47 97 list append;
#X obj -47 7 inlet;
#X obj 97 9 inlet;
#X obj -47 119 t a a;
#X msg 16 124 \$1 \$2;
#X obj 16 146 +;
#X obj -47 171 list append;
#X obj -47 193 t a a;
#N canvas 781 423 450 300 get.label.from.id 0;
#X obj 68 94 t b a;
#X obj 68 140 list split;
#X obj 68 118 list append;
#X obj 153 227 list split 1;
#X obj 68 66 - 1;
#X obj 29 42 moses 1;
#X msg 125 168 symbol empty;
#X obj 96 201 route bang;
#X obj 153 250 outlet;
#X obj 29 18 inlet;
#X obj 232 28 inlet;
#X connect 0 0 2 0;
#X connect 0 1 1 1;
#X connect 1 1 7 0;
#X connect 1 2 6 0;
#X connect 2 0 1 0;
#X connect 3 0 8 0;
#X connect 4 0 0 0;
#X connect 5 0 6 0;
#X connect 5 1 4 0;
#X connect 6 0 8 0;
#X connect 7 0 6 0;
#X connect 7 1 3 0;
#X connect 9 0 5 0;
#X connect 10 0 2 1;
#X restore -20 241 pd get.label.from.id;
#X obj -47 266 list append;
#X msg -20 218 \$3;
#X obj -20 310 list prepend \$0;
#X msg -20 332 \; \$1.field.\$2.r label \$5;
#X obj -47 288 t a a;
#X obj -47 365 route 0;
#X msg -47 385 symbol \$3;
#X obj -47 407 outlet;
#X connect 0 0 2 0;
#X connect 1 0 0 0;
#X connect 1 1 2 1;
#X connect 2 0 5 0;
#X connect 3 0 1 0;
#X connect 4 0 10 1;
#X connect 5 0 8 0;
#X connect 5 1 6 0;
#X connect 6 0 7 0;
#X connect 7 0 8 1;
#X connect 8 0 9 0;
#X connect 9 0 11 0;
#X connect 9 1 12 0;
#X connect 10 0 11 1;
#X connect 11 0 15 0;
#X connect 12 0 10 0;
#X connect 13 0 14 0;
#X connect 15 0 16 0;
#X connect 15 1 13 0;
#X connect 16 0 17 0;
#X connect 17 0 18 0;
#X restore 184 108 pd update.labels;
#X obj 32 398 list prepend \$0;
#X msg 32 420 symbol \$1.field.\$3.r;
#X obj 5 333 route 3;
#X obj 5 28 t b b;
#X obj 5 97 change;
#X obj 5 5 r \$0.selector.s;
#X obj 159 69 f;
#N canvas 842 395 450 300 init.cnvs 0;
#X obj 15 184 list prepend \$0;
#X msg 120 137 -187246;
#X msg 42 138 -233017;
#X obj 15 97 t a a;
#X obj 15 163 list append;
#X obj 42 117 sel 0 3;
#X msg 92 137 -1;
#X msg 15 75 3 \, -2 \, -1 \, 1 \, 2 \, 0;
#X obj 15 28 spigot 1;
#X msg 93 45 0;
#X obj 15 50 t b b;
#X obj 15 6 r \$0.selector.s;
#X obj 15 240 s \$0.goparea;
#X msg 15 205 obj 27 21 cnv 1 1 1 empty \$1.field.\$2.r empty 1 5 0
10 \$3 -1 0;
#X connect 0 0 13 0;
#X connect 1 0 4 1;
#X connect 2 0 4 1;
#X connect 3 0 4 0;
#X connect 3 1 5 0;
#X connect 4 0 0 0;
#X connect 5 0 2 0;
#X connect 5 1 6 0;
#X connect 5 2 1 0;
#X connect 6 0 4 1;
#X connect 7 0 3 0;
#X connect 8 0 10 0;
#X connect 9 0 8 1;
#X connect 10 0 7 0;
#X connect 10 1 9 0;
#X connect 11 0 8 0;
#X connect 13 0 12 0;
#X restore 277 12 pd init.cnvs;
#X obj 107 94 sel 1 0;
#X obj 5 118 t a a a;
#X msg 39 313 pos 27 21 \, vis_size 1 1 \, label empty \, size 1;
#X msg 44 358 pos 21 \$2 \, vis_size 38 10;
#X msg 5 377 pos 19 -3 \, vis_size 42 58;
#X obj 126 152 f;
#X obj 126 174 outlet;
#X connect 0 0 1 0;
#X connect 1 0 3 0;
#X connect 1 1 11 0;
#X connect 3 0 9 0;
#X connect 4 0 17 0;
#X connect 5 0 8 0;
#X connect 6 0 10 1;
#X connect 7 0 15 0;
#X connect 8 0 15 0;
#X connect 9 0 13 0;
#X connect 9 1 21 0;
#X connect 11 0 12 0;
#X connect 12 0 2 1;
#X connect 13 0 23 0;
#X connect 13 1 22 0;
#X connect 14 0 7 0;
#X connect 14 1 5 0;
#X connect 15 0 20 0;
#X connect 16 0 14 0;
#X connect 17 0 10 0;
#X connect 17 0 24 1;
#X connect 19 0 17 0;
#X connect 19 1 24 0;
#X connect 20 0 19 0;
#X connect 20 1 0 0;
#X connect 21 0 2 0;
#X connect 22 0 2 0;
#X connect 23 0 2 0;
#X connect 24 0 25 0;
#X restore -7 166 pd list.selector.fields;
#X msg -7 108 range 1 \$1;
#N canvas 278 280 419 327 slider.wrapper 0;
#X obj 20 255 pack f f f;
#X obj 20 233 - 1;
#X obj 20 167 change;
#X obj 20 208 t a a a;
#X obj 77 231 +;
#X msg 20 277 range \$2 \$1 \, set \$3;
#X obj 20 299 s \$0.selector.r;
#X obj 20 145 div 5;
#X obj 20 187 * 5;
#X obj 92 208 mod 5;
#X obj 48 232 + 5;
#X obj 20 48 max 0;
#X obj 20 74 min 1e+37;
#X obj 139 20 inlet;
#X obj 139 42 route range set;
#X obj 139 67 unpack;
#X obj 203 67 r \$0.sens;
#X obj 139 91 *;
#X obj 172 91 *;
#X obj 172 184 div;
#X obj 172 206 change -1e+37;
#X obj 172 228 outlet;
#X obj 182 121 *;
#X obj 20 120 t a a;
#X obj 20 96 t a a;
#X obj 20 17 r \$0.selector.s;
#X connect 0 0 5 0;
#X connect 1 0 0 0;
#X connect 2 0 8 0;
#X connect 3 0 1 0;
#X connect 3 1 10 0;
#X connect 3 2 4 0;
#X connect 4 0 0 2;
#X connect 5 0 6 0;
#X connect 7 0 2 0;
#X connect 8 0 3 0;
#X connect 9 0 4 1;
#X connect 10 0 0 1;
#X connect 11 0 12 0;
#X connect 12 0 24 0;
#X connect 13 0 14 0;
#X connect 14 0 15 0;
#X connect 14 1 22 0;
#X connect 15 0 17 0;
#X connect 15 1 18 0;
#X connect 16 0 18 1;
#X connect 16 0 17 1;
#X connect 16 0 19 1;
#X connect 16 0 22 1;
#X connect 17 0 11 1;
#X connect 18 0 12 1;
#X connect 19 0 20 0;
#X connect 20 0 21 0;
#X connect 22 0 23 0;
#X connect 23 0 7 0;
#X connect 23 1 9 0;
#X connect 24 0 23 0;
#X connect 24 1 19 0;
#X connect 25 0 11 0;
#X restore -7 131 pd slider.wrapper;
#X obj -7 60 t a a;
#X obj -7 86 list length;
#X msg -7 108 range 1 \$1;
#X msg -7 37 list INPUT OUTPUT PWM SERVO;
#X msg 20 311 label \$1;
#X msg 83 312 label empty;
#X obj -7 14 loadbang;
#X obj 20 287 symbol;
#X obj 20 235 sel 1 2 3 4;
#X msg 20 260 I;
#X msg 47 260 O;
#X msg 74 260 P;
#X msg 101 260 S;
#X obj 20 334 s \$0.selector.label.r;
#X obj -7 214 t a a;
#X obj -7 356 s \$0.mode;
#X obj -7 190 change -1;
#X connect 0 0 3 0;
#X connect 1 0 2 0;
#X connect 1 1 3 1;
#X connect 2 0 4 0;
#X connect 3 0 22 0;
#X connect 4 0 0 0;
#X connect 6 0 7 0;
#X connect 7 0 8 0;
#X connect 8 0 5 0;
#X connect 9 0 1 0;
#X connect 10 0 19 0;
#X connect 11 0 19 0;
#X connect 12 0 9 0;
#X connect 13 0 10 0;
#X connect 14 0 15 0;
#X connect 14 1 16 0;
#X connect 14 2 17 0;
#X connect 14 3 18 0;
#X connect 15 0 13 0;
#X connect 16 0 13 0;
#X connect 17 0 13 0;
#X connect 18 0 13 0;
#X connect 20 0 21 0;
#X connect 20 1 14 0;
#X connect 22 0 20 0;
#X restore 265 85 pd mode.selector;
#X obj 42 19 nbx 1 14 0 100 0 0 \$0.nb.s \$0.nb.r empty 0 -8 0 10 -262144
-1 -1 0 256;
#X obj 21 21 vsl 8 9 30 24 0 0 \$0.selector.label.s \$0.selector.label.r
I 1 5 0 10 -228856 -228856 -1 0 1;
#X obj 29 21 vsl 12 9 0 1 0 0 \$0.sl.s \$0.sl.r  2 1 6 0 9 -262144
-262144 -1 100 1;
#X obj 34 132 r \$0.nb.s;
#N canvas 1230 221 185 273 slider.click.detection 0;
#X obj 14 49 sel 0 1;
#X obj 14 28 route float;
#X msg 14 169 set 0.5;
#X obj 82 101 t a a;
#X obj 82 144 sel 0;
#X obj 82 166 outlet;
#X obj 24 190 loadbang;
#X msg 24 211 range 0 1 \, set 0.5;
#X obj 82 123 - 0.5;
#X obj 14 6 r \$0.sl.s;
#X obj 14 232 s \$0.sl.r;
#X obj 64 76 f;
#X obj 100 79 + 1;
#X connect 0 0 2 0;
#X connect 0 0 11 0;
#X connect 0 1 2 0;
#X connect 0 1 11 0;
#X connect 0 2 11 0;
#X connect 1 0 0 0;
#X connect 2 0 10 0;
#X connect 3 0 8 1;
#X connect 3 1 8 0;
#X connect 4 0 5 0;
#X connect 6 0 7 0;
#X connect 7 0 10 0;
#X connect 8 0 4 0;
#X connect 9 0 1 0;
#X connect 11 0 12 0;
#X connect 11 0 3 0;
#X connect 12 0 11 1;
#X restore 264 132 pd slider.click.detection;
#X obj 264 156 s \$0.click;
#X obj 146 159 r \$0.click;
#X obj 146 181 print CLICK;
#X obj 33 179 print VALUE;
#N canvas 1111 193 312 156 switch.click/number 0;
#X obj 16 119 s \$0.nb.r;
#X msg 16 93 pos \$1 \$2;
#X msg 55 63 22 19;
#X msg 16 63 42 19;
#X obj 16 9 r \$0.mode;
#X obj 16 33 sel 1 2;
#X text 133 34 INPUT \, OUTPUT -> click;
#X text 133 50 PWM \, SERVO -> value;
#X connect 1 0 0 0;
#X connect 2 0 1 0;
#X connect 3 0 1 0;
#X connect 4 0 5 0;
#X connect 5 0 3 0;
#X connect 5 1 3 0;
#X connect 5 2 2 0;
#X restore 264 179 pd switch.click/number;
#X obj 34 154 * 0.01;
#N canvas 1121 263 200 148 pin.no.label 0;
#X obj 14 105 s \$0.sl.r;
#X obj 14 62 makefilename %2d;
#X msg 14 84 label \$1;
#X obj 14 16 loadbang;
#X obj 14 38 f \$2;
#X connect 1 0 2 0;
#X connect 2 0 0 0;
#X connect 3 0 4 0;
#X connect 4 0 1 0;
#X restore 264 108 pd pin.no.label;
#X connect 8 0 15 0;
#X connect 9 0 10 0;
#X connect 11 0 12 0;
#X connect 15 0 13 0;
#X coords 0 -1 1 1 20 14 2 21 19;
