#N canvas 393 50 648 695 10;
#X obj 22 236 sel 1 0;
#X obj 22 75 r \$1.ARDUINO.INTERN;
#X obj 20 375 r \$1.ARDUINO.INFO;
#X msg 209 432 ready \$1;
#X obj 22 210 t a a;
#X msg 209 408 0;
#X obj 46 525 t b b;
#X obj 177 459 s \$1.ARDUINO.INTERN;
#X msg 326 252 stop;
#X obj 353 355 s \$1.ARDUINO.TO;
#X obj 326 312 t b b;
#X obj 326 419 del 500;
#X obj 326 289 del 4500;
#X msg 306 388 stop;
#X obj 20 421 t a b;
#X obj 20 399 route version;
#X obj 20 42 cnv 11 275 22 empty \$0.label.bottom close  7 6 0 10 -262144
-1 0;
#X obj 20 20 cnv 11 275 21 empty \$0.label.top disconnected  7 12 0
10 -262144 -1 0;
#X msg 245 146 0;
#X msg 212 144 10;
#X obj 22 307 agop.symbol2list;
#X msg 41 262 disconnected;
#X msg 22 286 Waiting for firmware ...;
#X msg 22 329 label \$1;
#X obj 22 350 s \$0.label.top;
#X obj 421 36 r \$0.color;
#X msg 421 60 color \$1 -1;
#X obj 432 83 s \$0.label.top;
#X obj 224 169 s \$0.color;
#X obj 421 105 s \$0.label.bottom;
#X obj 20 609 agop.symbol2list;
#X msg 20 631 label \$1;
#X obj 20 652 s \$0.label.top;
#X msg 73 564 Firmware OK;
#X msg 144 488 6;
#X msg 99 540 Wrong firmware version;
#X obj 144 517 s \$0.color;
#X msg 171 489 3;
#X msg 326 558 No firmware found;
#X obj 346 470 s \$0.color;
#X msg 346 444 3;
#X obj 462 382 r \$1.ARDUINO.INFO;
#X obj 462 406 route firmware;
#X obj 462 461 agop.symbol2list;
#X msg 462 483 label \$1;
#X msg 428 432 symbol empty;
#X obj 462 504 s \$0.label.bottom;
#X obj 517 433 r \$1.ARDUINO.TO;
#X text 163 631 ... trying to win the spaghetti contest ... sorry;
#X obj 22 122 list prepend 0;
#X obj 22 97 route serial.com emulate;
#X obj 22 144 route 0 1;
#N canvas 947 201 190 316 emulation 0;
#X msg 76 66 6;
#X obj 76 87 s \$0.color;
#X obj 42 176 agop.symbol2list;
#X msg 42 197 label \$1;
#X msg 59 111 label empty;
#X obj 25 22 inlet;
#X obj 59 133 s \$0.label.bottom;
#X msg 42 153 Emulation Mode;
#X obj 25 266 s \$1.ARDUINO.INTERN;
#X msg 25 244 ready 1;
#X obj 25 46 t b b b b;
#X obj 42 218 s \$0.label.bottom;
#X connect 0 0 1 0;
#X connect 2 0 3 0;
#X connect 3 0 11 0;
#X connect 4 0 6 0;
#X connect 5 0 10 0;
#X connect 7 0 2 0;
#X connect 9 0 8 0;
#X connect 10 0 9 0;
#X connect 10 1 7 0;
#X connect 10 2 4 0;
#X connect 10 3 0 0;
#X restore 66 189 pd emulation;
#X obj 47 166 sel 0 1;
#X msg 39 189 0;
#X msg 353 335 version \, firmware;
#X obj 386 288 del 500;
#X obj 20 444 route 2;
#X msg 113 489 5;
#X obj 8 525 t b b;
#X msg 35 584 Firmware OK (old);
#X obj 20 466 < 2;
#X obj 20 488 sel 1 0;
#X msg 177 383 connected;
#X connect 0 0 22 0;
#X connect 0 0 12 0;
#X connect 0 0 19 0;
#X connect 0 0 56 0;
#X connect 0 1 21 0;
#X connect 0 1 8 0;
#X connect 0 1 18 0;
#X connect 0 1 45 0;
#X connect 1 0 50 0;
#X connect 2 0 15 0;
#X connect 3 0 7 0;
#X connect 4 0 0 0;
#X connect 4 1 5 0;
#X connect 5 0 3 0;
#X connect 6 0 63 0;
#X connect 6 0 34 0;
#X connect 6 1 33 0;
#X connect 8 0 12 0;
#X connect 8 0 56 0;
#X connect 10 0 11 0;
#X connect 10 1 55 0;
#X connect 11 0 38 0;
#X connect 11 0 40 0;
#X connect 12 0 10 0;
#X connect 13 0 11 0;
#X connect 14 0 57 0;
#X connect 14 1 8 0;
#X connect 14 1 13 0;
#X connect 15 0 14 0;
#X connect 18 0 28 0;
#X connect 19 0 28 0;
#X connect 20 0 23 0;
#X connect 21 0 20 0;
#X connect 22 0 20 0;
#X connect 23 0 24 0;
#X connect 25 0 26 0;
#X connect 26 0 27 0;
#X connect 26 0 29 0;
#X connect 30 0 31 0;
#X connect 31 0 32 0;
#X connect 33 0 30 0;
#X connect 34 0 36 0;
#X connect 35 0 30 0;
#X connect 37 0 36 0;
#X connect 38 0 30 0;
#X connect 40 0 39 0;
#X connect 41 0 42 0;
#X connect 42 0 43 0;
#X connect 43 0 44 0;
#X connect 44 0 46 0;
#X connect 45 0 44 0;
#X connect 47 0 43 0;
#X connect 49 0 51 0;
#X connect 50 0 49 0;
#X connect 50 1 49 1;
#X connect 51 0 4 0;
#X connect 51 1 53 0;
#X connect 53 0 54 0;
#X connect 53 1 52 0;
#X connect 54 0 4 0;
#X connect 55 0 9 0;
#X connect 56 0 55 0;
#X connect 57 0 61 0;
#X connect 57 1 35 0;
#X connect 57 1 37 0;
#X connect 58 0 36 0;
#X connect 59 0 63 0;
#X connect 59 0 58 0;
#X connect 59 1 60 0;
#X connect 60 0 30 0;
#X connect 61 0 62 0;
#X connect 62 0 59 0;
#X connect 62 1 6 0;
#X connect 63 0 7 0;
#X coords 0 -1 1 1 275 44 2 20 20;
