#N canvas 806 309 336 268 10;
#X obj 20 20 nbx 5 12 5 120 0 0 \$0.fps.s \$0.fps.r empty 0 -8 0 10
-262144 -1 -1 60 256;
#X obj 23 20 hsl 48 12 0 127 0 0 \$0.NULL.s \$0.label.r empty 3 6 0
10 -228856 -228856 -1 0 1;
#X obj 167 37 loadbang;
#X msg 167 59 60;
#X obj 167 81 s \$0.fps.r;
#N canvas 1118 205 272 205 gui.stuff 0;
#X obj 16 171 s \$0.label.r;
#X obj 16 40 makefilename %3d;
#X obj 141 88 makefilename %c;
#X obj 141 43 loadbang;
#X msg 141 65 32;
#X obj 16 71 pack s s;
#X msg 16 96 label \$1\$2fps;
#X obj 16 15 r \$0.fps.s;
#X obj 116 117 inlet;
#X msg 116 139 label empty;
#X connect 1 0 5 0;
#X connect 2 0 5 1;
#X connect 3 0 4 0;
#X connect 4 0 2 0;
#X connect 5 0 6 0;
#X connect 6 0 0 0;
#X connect 7 0 1 0;
#X connect 8 0 9 0;
#X connect 9 0 0 0;
#X restore 160 154 pd gui.stuff;
#X msg 53 123 1000 \$1;
#X obj 53 145 /;
#X obj 53 103 r \$0.fps.s;
#X obj 16 165 metro 16.66;
#X msg 16 187 refresh;
#X obj 16 217 s \$1.ARDUINO.INTERN;
#X obj 16 56 r \$1.ARDUINO.INTERN;
#X obj 16 78 route ready;
#X obj 160 127 bng 15 250 50 0 empty empty empty 17 7 0 10 -262144
-1 -1;
#X text 179 126 reset;
#X connect 2 0 3 0;
#X connect 3 0 4 0;
#X connect 6 0 7 0;
#X connect 7 0 9 1;
#X connect 8 0 6 0;
#X connect 9 0 10 0;
#X connect 10 0 11 0;
#X connect 12 0 13 0;
#X connect 13 0 9 0;
#X connect 14 0 5 0;
#X coords 0 -1 1 1 53 12 2 20 20;
