#N canvas 955 96 439 304 10;
#X obj 17 86 namecanvas \$0.goparea;
#X obj 17 86 namecanvas \$0.goparea;
#N canvas 978 431 154 108 INIT 0;
#X obj 10 10 loadbang;
#X obj 10 32 \$0;
#X msg 10 54 \; \$1.sens 5 \;;
#X connect 0 0 1 0;
#X connect 1 0 2 0;
#X restore 17 64 pd INIT;
#N canvas 558 102 386 495 mode.selector 0;
#N canvas 278 280 419 327 slider.wrapper 0;
#X obj 20 255 pack f f f;
#X obj 20 233 - 1;
#X obj 20 167 change;
#X obj 20 208 t a a a;
#X obj 77 231 +;
#X msg 20 277 range \$2 \$1 \, set \$3;
#X obj 20 299 s \$0.selector.r;
#X obj 20 145 div 5;
#X obj 20 187 * 5;
#X obj 92 208 mod 5;
#X obj 48 232 + 5;
#X obj 20 48 max 0;
#X obj 20 74 min 1e+37;
#X obj 139 20 inlet;
#X obj 139 42 route range set;
#X obj 139 67 unpack;
#X obj 203 67 r \$0.sens;
#X obj 139 91 *;
#X obj 172 91 *;
#X obj 172 184 div;
#X obj 172 206 change -1e+37;
#X obj 172 228 outlet;
#X obj 182 121 *;
#X obj 20 120 t a a;
#X obj 20 96 t a a;
#X obj 20 17 r \$0.selector.s;
#X connect 0 0 5 0;
#X connect 1 0 0 0;
#X connect 2 0 8 0;
#X connect 3 0 1 0;
#X connect 3 1 10 0;
#X connect 3 2 4 0;
#X connect 4 0 0 2;
#X connect 5 0 6 0;
#X connect 7 0 2 0;
#X connect 8 0 3 0;
#X connect 9 0 4 1;
#X connect 10 0 0 1;
#X connect 11 0 12 0;
#X connect 12 0 24 0;
#X connect 13 0 14 0;
#X connect 14 0 15 0;
#X connect 14 1 22 0;
#X connect 15 0 17 0;
#X connect 15 1 18 0;
#X connect 16 0 18 1;
#X connect 16 0 17 1;
#X connect 16 0 19 1;
#X connect 16 0 22 1;
#X connect 17 0 11 1;
#X connect 18 0 12 1;
#X connect 19 0 20 0;
#X connect 20 0 21 0;
#X connect 22 0 23 0;
#X connect 23 0 7 0;
#X connect 23 1 9 0;
#X connect 24 0 23 0;
#X connect 24 1 19 0;
#X connect 25 0 11 0;
#X restore -7 111 pd slider.wrapper;
#X obj -7 40 t a a;
#X obj -7 66 list length;
#N canvas 874 200 385 462 list.selector.fields 0;
#N canvas 1158 378 142 254 counter 0;
#X obj 10 12 inlet;
#X msg 38 61 -2;
#X obj 10 83 until;
#X obj 10 105 f;
#X obj 37 106 + 1;
#X obj 10 38 t b b a;
#X obj 10 202 list prepend;
#X obj 10 224 outlet;
#X obj 10 126 t a a;
#X obj 10 181 list append;
#X obj 51 156 + 21;
#X obj 51 133 * 11;
#X msg 10 61 6;
#X connect 0 0 5 0;
#X connect 1 0 3 1;
#X connect 2 0 3 0;
#X connect 3 0 4 0;
#X connect 3 0 8 0;
#X connect 4 0 3 1;
#X connect 5 0 12 0;
#X connect 5 1 1 0;
#X connect 5 2 6 1;
#X connect 6 0 7 0;
#X connect 8 0 9 0;
#X connect 8 1 11 0;
#X connect 9 0 6 0;
#X connect 10 0 9 1;
#X connect 11 0 10 0;
#X connect 12 0 2 0;
#X restore 5 200 pd counter;
#X obj 5 224 t a a;
#X obj 5 442 s;
#X obj 5 246 list trim;
#X obj 159 49 inlet;
#X obj 32 50 del 600;
#X obj 252 89 inlet;
#X msg 5 75 1;
#X msg 32 75 0;
#X obj 5 288 route 1 0;
#N canvas 752 393 288 441 update.labels 0;
#N canvas 646 299 158 272 counter 0;
#X obj 10 12 inlet;
#X msg 10 57 5;
#X msg 38 57 -2;
#X obj 10 79 until;
#X obj 10 101 f;
#X obj 37 102 + 1;
#X obj 10 124 outlet;
#X obj 10 34 t b b;
#X connect 0 0 7 0;
#X connect 1 0 3 0;
#X connect 2 0 4 1;
#X connect 3 0 4 0;
#X connect 4 0 5 0;
#X connect 4 0 6 0;
#X connect 5 0 4 1;
#X connect 7 0 1 0;
#X connect 7 1 2 0;
#X restore -47 75 pd counter;
#X obj -47 31 t b a;
#X obj -47 97 list append;
#X obj -47 7 inlet;
#X obj 97 9 inlet;
#X obj -47 119 t a a;
#X msg 16 124 \$1 \$2;
#X obj 16 146 +;
#X obj -47 171 list append;
#X obj -47 193 t a a;
#N canvas 781 423 450 300 get.label.from.id 0;
#X obj 68 94 t b a;
#X obj 68 140 list split;
#X obj 68 118 list append;
#X obj 153 227 list split 1;
#X obj 68 66 - 1;
#X obj 29 42 moses 1;
#X msg 125 168 symbol empty;
#X obj 96 201 route bang;
#X obj 153 250 outlet;
#X obj 29 18 inlet;
#X obj 232 28 inlet;
#X connect 0 0 2 0;
#X connect 0 1 1 1;
#X connect 1 1 7 0;
#X connect 1 2 6 0;
#X connect 2 0 1 0;
#X connect 3 0 8 0;
#X connect 4 0 0 0;
#X connect 5 0 6 0;
#X connect 5 1 4 0;
#X connect 6 0 8 0;
#X connect 7 0 6 0;
#X connect 7 1 3 0;
#X connect 9 0 5 0;
#X connect 10 0 2 1;
#X restore -20 241 pd get.label.from.id;
#X obj -47 266 list append;
#X msg -20 218 \$3;
#X obj -20 310 list prepend \$0;
#X msg -20 332 \; \$1.field.\$2.r label \$5;
#X obj -47 288 t a a;
#X obj -47 365 route 0;
#X msg -47 385 symbol \$3;
#X obj -47 407 outlet;
#X connect 0 0 2 0;
#X connect 1 0 0 0;
#X connect 1 1 2 1;
#X connect 2 0 5 0;
#X connect 3 0 1 0;
#X connect 4 0 10 1;
#X connect 5 0 8 0;
#X connect 5 1 6 0;
#X connect 6 0 7 0;
#X connect 7 0 8 1;
#X connect 8 0 9 0;
#X connect 9 0 11 0;
#X connect 9 1 12 0;
#X connect 10 0 11 1;
#X connect 11 0 15 0;
#X connect 12 0 10 0;
#X connect 13 0 14 0;
#X connect 15 0 16 0;
#X connect 15 1 13 0;
#X connect 16 0 17 0;
#X connect 17 0 18 0;
#X restore 159 112 pd update.labels;
#X obj 32 398 list prepend \$0;
#X msg 32 420 symbol \$1.field.\$3.r;
#X obj 5 333 route 3;
#X obj 5 28 t b b;
#X obj 5 97 change;
#X obj 5 5 r \$0.selector.s;
#X obj 159 69 f;
#N canvas 842 395 450 300 init.cnvs 0;
#X obj 15 184 list prepend \$0;
#X msg 120 137 -187246;
#X msg 42 138 -233017;
#X obj 15 97 t a a;
#X obj 15 163 list append;
#X obj 42 117 sel 0 3;
#X msg 92 137 -1;
#X msg 15 75 3 \, -2 \, -1 \, 1 \, 2 \, 0;
#X obj 15 28 spigot 1;
#X msg 93 45 0;
#X obj 15 50 t b b;
#X obj 15 6 r \$0.selector.s;
#X obj 15 240 s \$0.goparea;
#X msg 15 205 obj 22 20 cnv 1 1 1 empty \$1.field.\$2.r empty 1 5 0
10 \$3 -1 0;
#X connect 0 0 13 0;
#X connect 1 0 4 1;
#X connect 2 0 4 1;
#X connect 3 0 4 0;
#X connect 3 1 5 0;
#X connect 4 0 0 0;
#X connect 5 0 2 0;
#X connect 5 1 6 0;
#X connect 5 2 1 0;
#X connect 6 0 4 1;
#X connect 7 0 3 0;
#X connect 8 0 10 0;
#X connect 9 0 8 1;
#X connect 10 0 7 0;
#X connect 10 1 9 0;
#X connect 11 0 8 0;
#X connect 13 0 12 0;
#X restore 277 12 pd init.cnvs;
#X obj 107 94 sel 1 0;
#X obj 5 118 t a a a;
#X msg 44 358 pos 21 \$2 \, vis_size 38 10;
#X msg 5 377 pos 19 -3 \, vis_size 42 58;
#X obj 195 221 outlet;
#X msg 39 313 pos 22 20 \, vis_size 1 1 \, label empty \, size 1;
#X obj 126 152 symbol;
#X obj 126 175 select dummy;
#X obj 195 199 t a a;
#X connect 0 0 1 0;
#X connect 1 0 3 0;
#X connect 1 1 11 0;
#X connect 3 0 9 0;
#X connect 4 0 17 0;
#X connect 5 0 8 0;
#X connect 6 0 10 1;
#X connect 7 0 15 0;
#X connect 8 0 15 0;
#X connect 9 0 13 0;
#X connect 9 1 24 0;
#X connect 10 0 25 1;
#X connect 11 0 12 0;
#X connect 12 0 2 1;
#X connect 13 0 22 0;
#X connect 13 1 21 0;
#X connect 14 0 7 0;
#X connect 14 1 5 0;
#X connect 15 0 20 0;
#X connect 16 0 14 0;
#X connect 17 0 10 0;
#X connect 19 0 17 0;
#X connect 19 1 25 0;
#X connect 20 0 19 0;
#X connect 20 1 0 0;
#X connect 21 0 2 0;
#X connect 22 0 2 0;
#X connect 24 0 2 0;
#X connect 25 0 26 0;
#X connect 26 1 27 0;
#X connect 27 0 23 0;
#X connect 27 1 26 1;
#X restore -7 146 pd list.selector.fields;
#X msg -7 88 range 1 \$1;
#N canvas 278 280 419 327 slider.wrapper 0;
#X obj 20 255 pack f f f;
#X obj 20 233 - 1;
#X obj 20 167 change;
#X obj 20 208 t a a a;
#X obj 77 231 +;
#X msg 20 277 range \$2 \$1 \, set \$3;
#X obj 20 299 s \$0.selector.r;
#X obj 20 145 div 5;
#X obj 20 187 * 5;
#X obj 92 208 mod 5;
#X obj 48 232 + 5;
#X obj 20 48 max 0;
#X obj 20 74 min 1e+37;
#X obj 139 20 inlet;
#X obj 139 42 route range set;
#X obj 139 67 unpack;
#X obj 203 67 r \$0.sens;
#X obj 139 91 *;
#X obj 172 91 *;
#X obj 172 184 div;
#X obj 172 206 change -1e+37;
#X obj 172 228 outlet;
#X obj 182 121 *;
#X obj 20 120 t a a;
#X obj 20 96 t a a;
#X obj 20 17 r \$0.selector.s;
#X connect 0 0 5 0;
#X connect 1 0 0 0;
#X connect 2 0 8 0;
#X connect 3 0 1 0;
#X connect 3 1 10 0;
#X connect 3 2 4 0;
#X connect 4 0 0 2;
#X connect 5 0 6 0;
#X connect 7 0 2 0;
#X connect 8 0 3 0;
#X connect 9 0 4 1;
#X connect 10 0 0 1;
#X connect 11 0 12 0;
#X connect 12 0 24 0;
#X connect 13 0 14 0;
#X connect 14 0 15 0;
#X connect 14 1 22 0;
#X connect 15 0 17 0;
#X connect 15 1 18 0;
#X connect 16 0 18 1;
#X connect 16 0 17 1;
#X connect 16 0 19 1;
#X connect 16 0 22 1;
#X connect 17 0 11 1;
#X connect 18 0 12 1;
#X connect 19 0 20 0;
#X connect 20 0 21 0;
#X connect 22 0 23 0;
#X connect 23 0 7 0;
#X connect 23 1 9 0;
#X connect 24 0 23 0;
#X connect 24 1 19 0;
#X connect 25 0 11 0;
#X restore -7 111 pd slider.wrapper;
#X obj -7 40 t a a;
#X obj -7 66 list length;
#X msg -7 88 range 1 \$1;
#X msg 144 338 label \$1;
#X msg 207 339 label empty;
#X obj 144 314 symbol;
#X msg 220 287 P;
#X msg 258 287 S;
#X obj 144 361 s \$0.selector.label.r;
#X obj -7 376 s \$0.mode;
#X obj -7 12 inlet;
#X obj -7 202 sel INPUT OUTPUT PWM SERVO;
#X msg -7 283 0;
#X msg 31 283 1;
#X msg 144 287 I;
#X msg 182 287 O;
#X msg 69 283 3;
#X msg 107 283 4;
#X obj 176 140 loadbang;
#X msg 176 162 symbol OUTPUT;
#X connect 0 0 3 0;
#X connect 1 0 2 0;
#X connect 1 1 3 1;
#X connect 2 0 4 0;
#X connect 3 0 17 0;
#X connect 4 0 0 0;
#X connect 6 0 7 0;
#X connect 7 0 8 0;
#X connect 8 0 5 0;
#X connect 9 0 14 0;
#X connect 10 0 14 0;
#X connect 11 0 9 0;
#X connect 12 0 11 0;
#X connect 13 0 11 0;
#X connect 16 0 1 0;
#X connect 17 0 20 0;
#X connect 17 0 18 0;
#X connect 17 1 21 0;
#X connect 17 1 19 0;
#X connect 17 2 12 0;
#X connect 17 2 22 0;
#X connect 17 3 13 0;
#X connect 17 3 23 0;
#X connect 18 0 15 0;
#X connect 19 0 15 0;
#X connect 20 0 11 0;
#X connect 21 0 11 0;
#X connect 22 0 15 0;
#X connect 23 0 15 0;
#X connect 24 0 25 0;
#X connect 25 0 17 0;
#X restore 17 131 pd mode.selector;
#N canvas 927 261 312 156 switch.click/number 0;
#X obj 16 119 s \$0.nb.r;
#X msg 16 93 pos \$1 \$2;
#X msg 55 63 22 19;
#X msg 16 63 42 19;
#X obj 16 9 r \$0.mode;
#X text 133 34 INPUT \, OUTPUT -> click;
#X text 133 50 PWM \, SERVO -> value;
#X obj 16 33 sel 0 1;
#X connect 1 0 0 0;
#X connect 2 0 1 0;
#X connect 3 0 1 0;
#X connect 4 0 7 0;
#X connect 7 0 3 0;
#X connect 7 1 3 0;
#X connect 7 2 2 0;
#X restore 17 177 pd switch.click/number;
#N canvas 1121 319 200 148 pin.no.label 0;
#X obj 14 105 s \$0.sl.r;
#X obj 14 62 makefilename %2d;
#X msg 14 84 label \$1;
#X obj 14 16 loadbang;
#X obj 14 38 f \$2;
#X connect 1 0 2 0;
#X connect 2 0 0 0;
#X connect 3 0 4 0;
#X connect 4 0 1 0;
#X restore 17 154 pd pin.no.label;
#X obj 29 19 cnv 8 8 8 empty \$0.show.value empty 17 7 0 12 -1 -258113
0;
#X obj 21 21 vsl 8 9 5 -1 0 0 \$0.selector.s \$0.selector.r empty 1
5 0 10 -228856 -228856 -1 133 1;
#X obj 42 19 nbx 1 14 0 100 0 0 \$0.nb.s \$0.nb.r empty 0 -8 0 10 -262144
-1 -1 0 256;
#X obj 29 21 vsl 12 9 0 1 0 0 \$0.sl.s \$0.sl.r 10 1 6 0 9 -237498
-237498 -1 400 1;
#N canvas 916 177 478 344 show.value 0;
#X obj 21 76 * 0.01;
#X obj 130 23 loadbang;
#X msg 130 45 32;
#X obj 130 67 makefilename %c;
#X obj 21 129 pack f s;
#X obj 186 315 s \$0.show.value;
#X obj 21 23 r \$0.nb.s;
#X obj 21 45 t a b;
#X obj 107 126 del 1000;
#X msg 197 148 set 0;
#X obj 197 126 r \$0.mode;
#X obj 197 172 s \$0.nb.r;
#X obj 325 10 r \$0.toggle;
#X obj 394 30 r \$0.mode;
#X obj 325 51 list prepend;
#X obj 378 192 sel 0 1;
#X msg 378 216 LOW;
#X msg 404 216 HIGH;
#X msg 21 155 \$1\$2;
#X msg 107 155 empty;
#X obj 186 269 list prepend label;
#X obj 186 291 list trim;
#X obj 352 117 sel 0 1;
#X msg 352 139 PULL_UP_OFF;
#X msg 371 159 PULL_UP_ON;
#X obj 325 73 t b a;
#X obj 352 93 route 0 1;
#X connect 0 0 4 0;
#X connect 1 0 2 0;
#X connect 2 0 3 0;
#X connect 3 0 4 1;
#X connect 4 0 18 0;
#X connect 6 0 7 0;
#X connect 7 0 0 0;
#X connect 7 1 8 0;
#X connect 8 0 19 0;
#X connect 9 0 11 0;
#X connect 10 0 9 0;
#X connect 10 0 19 0;
#X connect 12 0 14 0;
#X connect 13 0 14 1;
#X connect 14 0 25 0;
#X connect 15 0 16 0;
#X connect 15 1 17 0;
#X connect 16 0 20 0;
#X connect 17 0 20 0;
#X connect 18 0 20 0;
#X connect 19 0 20 0;
#X connect 20 0 21 0;
#X connect 21 0 5 0;
#X connect 22 0 23 0;
#X connect 22 1 24 0;
#X connect 23 0 20 0;
#X connect 24 0 20 0;
#X connect 25 0 8 0;
#X connect 25 1 26 0;
#X connect 26 0 22 0;
#X connect 26 1 15 0;
#X restore 17 201 pd show.value;
#N canvas 1136 156 248 457 color.indicator 0;
#N canvas 1083 72 231 303 color.blender 0;
#N canvas 1144 153 166 250 blend 0;
#X obj 12 12 inlet;
#X obj 12 207 outlet;
#X obj 67 11 inlet;
#X obj 27 109 -;
#X obj 12 130 *;
#X obj 67 32 t a a;
#X obj 12 176 int;
#X msg 27 87 255 \$1;
#X obj 12 152 +;
#X obj 12 34 * -1;
#X obj 12 56 + 1;
#X connect 0 0 9 0;
#X connect 2 0 5 0;
#X connect 3 0 4 1;
#X connect 4 0 8 0;
#X connect 5 0 7 0;
#X connect 5 1 8 1;
#X connect 6 0 1 0;
#X connect 7 0 3 0;
#X connect 8 0 6 0;
#X connect 9 0 10 0;
#X connect 10 0 4 0;
#X restore 29 104 pd blend;
#N canvas 1144 153 166 250 blend 0;
#X obj 12 12 inlet;
#X obj 12 207 outlet;
#X obj 67 11 inlet;
#X obj 27 109 -;
#X obj 12 130 *;
#X obj 67 32 t a a;
#X obj 12 176 int;
#X msg 27 87 255 \$1;
#X obj 12 152 +;
#X obj 12 34 * -1;
#X obj 12 56 + 1;
#X connect 0 0 9 0;
#X connect 2 0 5 0;
#X connect 3 0 4 1;
#X connect 4 0 8 0;
#X connect 5 0 7 0;
#X connect 5 1 8 1;
#X connect 6 0 1 0;
#X connect 7 0 3 0;
#X connect 8 0 6 0;
#X connect 9 0 10 0;
#X connect 10 0 4 0;
#X restore 86 104 pd blend;
#N canvas 1144 153 166 250 blend 0;
#X obj 12 12 inlet;
#X obj 12 207 outlet;
#X obj 67 11 inlet;
#X obj 27 109 -;
#X obj 12 130 *;
#X obj 67 32 t a a;
#X obj 12 176 int;
#X msg 27 87 255 \$1;
#X obj 12 152 +;
#X obj 12 34 * -1;
#X obj 12 56 + 1;
#X connect 0 0 9 0;
#X connect 2 0 5 0;
#X connect 3 0 4 1;
#X connect 4 0 8 0;
#X connect 5 0 7 0;
#X connect 5 1 8 1;
#X connect 6 0 1 0;
#X connect 7 0 3 0;
#X connect 8 0 6 0;
#X connect 9 0 10 0;
#X connect 10 0 4 0;
#X restore 142 104 pd blend;
#X obj 29 23 inlet;
#X obj 29 264 outlet;
#X obj 118 23 inlet;
#X obj 118 45 unpack f f f;
#X obj 29 53 t a a a;
#X obj 86 143 << 8;
#X obj 29 143 << 16;
#X obj 29 200 +;
#X obj 86 172 +;
#X obj 29 220 * -1;
#X obj 29 241 - 1;
#X connect 0 0 9 0;
#X connect 1 0 8 0;
#X connect 2 0 11 1;
#X connect 3 0 7 0;
#X connect 5 0 6 0;
#X connect 6 0 0 1;
#X connect 6 1 1 1;
#X connect 6 2 2 1;
#X connect 7 0 0 0;
#X connect 7 1 1 0;
#X connect 7 2 2 0;
#X connect 8 0 11 0;
#X connect 9 0 10 0;
#X connect 10 0 12 0;
#X connect 11 0 10 1;
#X connect 12 0 13 0;
#X connect 13 0 4 0;
#X restore 38 211 pd color.blender;
#X msg 178 136 255 140 0;
#X obj 38 255 s \$0.sl.r;
#X msg 38 233 color \$1 \$1 -1;
#X msg 162 112 0 0 220;
#X obj 131 16 r \$0.mode;
#X obj 16 14 r \$0.nb.s;
#X obj 16 36 * 0.01;
#X obj 61 35 r \$0.nb.r;
#X obj 61 57 route set;
#X obj 4 83 r \$0.toggle;
#X obj 38 189 + 0.1;
#X obj 38 167 * 0.9;
#X msg 131 64 210 0 255;
#X msg 146 89 0 200 0;
#X obj 4 379 s \$0.pull.up.r;
#X msg 35 332 30;
#X obj 4 307 sel 0 1;
#X msg 4 357 pos \$1 20 \, size 1 \, vis_size 4 1;
#X msg 4 333 25;
#X obj 4 108 list prepend;
#X obj 4 284 change;
#X obj 97 289 r \$0.mode;
#X msg 124 332 0;
#X obj 131 38 sel 0 1 3 4;
#X obj 4 130 route 0 1;
#X obj 97 311 sel 0;
#X connect 0 0 3 0;
#X connect 1 0 0 1;
#X connect 3 0 2 0;
#X connect 4 0 0 1;
#X connect 5 0 20 1;
#X connect 5 0 24 0;
#X connect 6 0 7 0;
#X connect 7 0 12 0;
#X connect 8 0 9 0;
#X connect 9 0 12 0;
#X connect 10 0 20 0;
#X connect 11 0 0 0;
#X connect 12 0 11 0;
#X connect 13 0 0 1;
#X connect 14 0 0 1;
#X connect 16 0 18 0;
#X connect 17 0 19 0;
#X connect 17 1 16 0;
#X connect 18 0 15 0;
#X connect 19 0 18 0;
#X connect 20 0 25 0;
#X connect 21 0 17 0;
#X connect 22 0 26 0;
#X connect 23 0 21 0;
#X connect 24 0 13 0;
#X connect 24 1 14 0;
#X connect 24 2 4 0;
#X connect 24 3 1 0;
#X connect 25 0 21 0;
#X connect 25 1 12 0;
#X connect 26 1 23 0;
#X restore 17 224 pd color.indicator;
#N canvas 1012 209 237 184 input.output.toggle 0;
#N canvas 1230 249 185 273 slider.click.detection 0;
#X obj 14 49 sel 0 1;
#X obj 14 28 route float;
#X msg 14 169 set 0.5;
#X obj 82 101 t a a;
#X obj 82 144 sel 0;
#X obj 82 166 outlet;
#X obj 24 190 loadbang;
#X msg 24 211 range 0 1 \, set 0.5;
#X obj 82 123 - 0.5;
#X obj 14 6 r \$0.sl.s;
#X obj 14 232 s \$0.sl.r;
#X obj 64 76 f;
#X obj 100 79 + 1;
#X connect 0 0 2 0;
#X connect 0 0 11 0;
#X connect 0 1 2 0;
#X connect 0 1 11 0;
#X connect 0 2 11 0;
#X connect 1 0 0 0;
#X connect 2 0 10 0;
#X connect 3 0 8 1;
#X connect 3 1 8 0;
#X connect 4 0 5 0;
#X connect 6 0 7 0;
#X connect 7 0 10 0;
#X connect 8 0 4 0;
#X connect 9 0 1 0;
#X connect 11 0 12 0;
#X connect 11 0 3 0;
#X connect 12 0 11 1;
#X restore 9 11 pd slider.click.detection;
#X obj 9 87 ==;
#X obj 45 87 t a;
#X obj 39 32 r \$0.mode;
#X msg 39 54 0;
#X obj 9 110 s \$0.toggle;
#X text 65 57 <- reset on mode switch;
#X connect 0 0 1 0;
#X connect 1 0 2 0;
#X connect 1 0 5 0;
#X connect 2 0 1 1;
#X connect 3 0 4 0;
#X connect 4 0 1 1;
#X restore 17 247 pd input.output.toggle;
#X obj 25 20 cnv 1 4 1 empty \$0.pull.up.r empty 20 12 0 14 -1 -66577
0;
#X obj 21 21 vsl 8 9 30 24 0 0 \$0.selector.label.s \$0.selector.label.r
O 1 5 0 10 -228856 -228856 -1 0 1;
#X text 272 51 0: INPUT;
#X text 272 64 1: OUTPUT (default);
#X text 272 77 2: ANALOG;
#X text 272 91 3: PWM;
#X text 272 104 4: SERVO;
#X text 272 22 Table Of PinModes:;
#X text 272 31 ==================;
#N canvas 1035 278 252 299 resolve.supported.modes 0;
#X obj 31 76 tabread \$1.ARDUINO.PIN.MODES;
#X obj 4 10 loadbang;
#X obj 31 54 f \$2;
#X obj 31 98 t a a a a;
#X obj 140 127 & 1;
#X obj 104 127 & 2;
#X obj 68 127 & 4;
#X obj 31 128 & 8;
#X obj 31 161 sel 8;
#X obj 68 161 sel 4;
#X obj 104 161 sel 2;
#X obj 140 161 sel 1;
#X msg 140 183 OUTPUT;
#X msg 104 183 INPUT;
#X msg 31 183 SERVO;
#X obj 31 214 list prepend;
#X obj 118 214 t a;
#X obj 4 243 list append;
#X obj 4 32 t b b;
#X obj 175 224 bng 15 250 50 0 empty empty empty 17 7 0 10 -262144
-1 -1;
#X text 48 274 <- list of supported modes;
#X obj 4 273 outlet;
#X msg 68 183 PWM;
#X connect 0 0 3 0;
#X connect 1 0 18 0;
#X connect 2 0 0 0;
#X connect 3 0 7 0;
#X connect 3 1 6 0;
#X connect 3 2 5 0;
#X connect 3 3 4 0;
#X connect 4 0 11 0;
#X connect 5 0 10 0;
#X connect 6 0 9 0;
#X connect 7 0 8 0;
#X connect 8 0 14 0;
#X connect 9 0 22 0;
#X connect 10 0 13 0;
#X connect 11 0 12 0;
#X connect 12 0 15 0;
#X connect 13 0 15 0;
#X connect 14 0 15 0;
#X connect 15 0 16 0;
#X connect 15 0 17 1;
#X connect 16 0 15 1;
#X connect 17 0 21 0;
#X connect 18 0 17 0;
#X connect 18 1 2 0;
#X connect 19 0 15 1;
#X connect 19 0 17 1;
#X connect 22 0 15 0;
#X restore 17 108 pd resolve.supported.modes;
#X connect 22 0 3 0;
#X coords 0 -1 1 1 20 14 2 21 19;
