#N canvas 581 189 531 425 10;
#X obj 20 20 cnv 5 5 5 empty \$0.led empty 20 12 0 14 -166401 -262144
0;
#X obj 397 119 << 8;
#X obj 360 143 << 16;
#X obj 361 165 +;
#X obj 397 143 +;
#X obj 361 185 * -1;
#X obj 361 206 - 1;
#X obj 326 76 list split 1;
#X obj 360 98 unpack f f f;
#X obj 326 231 list append;
#X obj 326 252 route 0 1;
#X obj 44 343 f;
#X obj 69 344 f;
#X obj 44 313 sel 0 1;
#X msg 44 372 color \$1 0;
#X obj 44 396 s \$0.led;
#X msg 326 54 0 160 160 0 \, 1 255 255 0;
#X obj 326 31 loadbang;
#X obj 44 287 change -1;
#X obj 59 5 r \$1.ARDUINO.TO;
#X obj 59 72 route 13;
#X obj 96 160 r \$1.ARDUINO.INTERN;
#X obj 96 182 route refresh ready;
#X obj 44 251 f;
#X obj 44 209 b;
#X msg 151 226 0;
#X obj 87 27 r \$1.ARDUINO.IN;
#X obj 59 47 route digital pinMode;
#X obj 120 67 route 13;
#X obj 59 132 spigot 1;
#X msg 120 111 1;
#X msg 184 112 0;
#X obj 151 205 sel 0;
#X obj 120 89 route output 1 input 0;
#X connect 1 0 4 0;
#X connect 2 0 3 0;
#X connect 3 0 5 0;
#X connect 4 0 3 1;
#X connect 5 0 6 0;
#X connect 6 0 9 1;
#X connect 7 0 9 0;
#X connect 7 1 8 0;
#X connect 8 0 2 0;
#X connect 8 1 1 0;
#X connect 8 2 4 1;
#X connect 9 0 10 0;
#X connect 10 0 11 1;
#X connect 10 1 12 1;
#X connect 11 0 14 0;
#X connect 12 0 14 0;
#X connect 13 0 11 0;
#X connect 13 1 12 0;
#X connect 14 0 15 0;
#X connect 16 0 7 0;
#X connect 17 0 16 0;
#X connect 18 0 13 0;
#X connect 19 0 27 0;
#X connect 20 0 29 0;
#X connect 21 0 22 0;
#X connect 22 0 24 0;
#X connect 22 1 32 0;
#X connect 23 0 18 0;
#X connect 24 0 23 0;
#X connect 25 0 23 0;
#X connect 26 0 27 0;
#X connect 27 0 20 0;
#X connect 27 1 28 0;
#X connect 28 0 33 0;
#X connect 29 0 23 1;
#X connect 30 0 29 1;
#X connect 31 0 29 1;
#X connect 31 0 23 1;
#X connect 32 0 25 0;
#X connect 32 1 29 1;
#X connect 33 0 30 0;
#X connect 33 1 30 0;
#X connect 33 2 31 0;
#X connect 33 3 31 0;
#X coords 0 -1 1 1 5 5 2 20 20;
