#N canvas 667 323 440 377 10;
#X obj 20 20 cnv 5 5 5 empty \$0.led empty 20 12 0 14 -166401 -262144
0;
#X obj 350 119 << 8;
#X obj 313 143 << 16;
#X obj 314 165 +;
#X obj 350 143 +;
#X obj 314 185 * -1;
#X obj 314 206 - 1;
#X obj 279 76 list split 1;
#X obj 313 98 unpack f f f;
#X obj 279 231 list append;
#X obj 279 252 route 0 1;
#X obj 44 283 f;
#X obj 69 284 f;
#X obj 44 253 sel 0 1;
#X msg 44 312 color \$1 0;
#X obj 44 336 s \$0.led;
#X msg 279 54 0 160 160 0 \, 1 255 255 0;
#X obj 279 31 loadbang;
#X obj 44 227 change -1;
#X obj 59 27 r \$1.ARDUINO.TO;
#X obj 59 49 route digital;
#X obj 59 71 route 13;
#X obj 96 93 r \$1.ARDUINO.INTERN;
#X obj 96 115 route refresh ready;
#X obj 44 184 f;
#X obj 44 137 b;
#X obj 151 138 sel 0;
#X msg 151 159 0;
#X connect 1 0 4 0;
#X connect 2 0 3 0;
#X connect 3 0 5 0;
#X connect 4 0 3 1;
#X connect 5 0 6 0;
#X connect 6 0 9 1;
#X connect 7 0 9 0;
#X connect 7 1 8 0;
#X connect 8 0 2 0;
#X connect 8 1 1 0;
#X connect 8 2 4 1;
#X connect 9 0 10 0;
#X connect 10 0 11 1;
#X connect 10 1 12 1;
#X connect 11 0 14 0;
#X connect 12 0 14 0;
#X connect 13 0 11 0;
#X connect 13 1 12 0;
#X connect 14 0 15 0;
#X connect 16 0 7 0;
#X connect 17 0 16 0;
#X connect 18 0 13 0;
#X connect 19 0 20 0;
#X connect 20 0 21 0;
#X connect 21 0 24 1;
#X connect 22 0 23 0;
#X connect 23 0 25 0;
#X connect 23 1 26 0;
#X connect 24 0 18 0;
#X connect 25 0 24 0;
#X connect 26 0 27 0;
#X connect 27 0 24 0;
#X coords 0 -1 1 1 5 5 2 20 20;
