#N canvas 751 305 426 368 10;
#X obj 17 61 namecanvas \$0.goparea;
#X obj 17 61 namecanvas \$0.goparea;
#N canvas 558 102 370 431 mode.selector 0;
#N canvas 278 280 413 391 slider.wrapper 0;
#X obj 20 285 pack f f f;
#X obj 20 263 - 1;
#X obj 20 197 change;
#X obj 20 238 t a a a;
#X obj 77 261 +;
#X msg 20 307 range \$2 \$1 \, set \$3;
#X obj 20 361 s \$0.selector.r;
#X obj 20 175 div 5;
#X obj 20 217 * 5;
#X obj 92 238 mod 5;
#X obj 48 262 + 5;
#X obj 20 78 max 0;
#X obj 20 104 min 1e+37;
#X obj 139 20 inlet;
#X obj 139 42 route range set;
#X obj 139 67 unpack;
#X obj 203 67 r \$0.sens;
#X obj 139 91 *;
#X obj 172 91 *;
#X obj 205 155 div;
#X obj 205 177 change -1e+37;
#X obj 205 270 outlet;
#X obj 182 121 *;
#X obj 20 150 t a a;
#X obj 20 126 t a a;
#X obj 20 4 r \$0.selector.s;
#X obj 250 205 r \$0.ready;
#X obj 205 247 spigot;
#X msg 259 274 range 10 -4 \, set 7;
#X obj 53 27 r \$0.ready;
#X obj 20 51 spigot;
#X obj 259 239 sel 0;
#X connect 0 0 5 0;
#X connect 1 0 0 0;
#X connect 2 0 8 0;
#X connect 3 0 1 0;
#X connect 3 1 10 0;
#X connect 3 2 4 0;
#X connect 4 0 0 2;
#X connect 5 0 6 0;
#X connect 7 0 2 0;
#X connect 8 0 3 0;
#X connect 9 0 4 1;
#X connect 10 0 0 1;
#X connect 11 0 12 0;
#X connect 12 0 24 0;
#X connect 13 0 14 0;
#X connect 14 0 15 0;
#X connect 14 1 22 0;
#X connect 15 0 17 0;
#X connect 15 1 18 0;
#X connect 16 0 18 1;
#X connect 16 0 17 1;
#X connect 16 0 19 1;
#X connect 16 0 22 1;
#X connect 17 0 11 1;
#X connect 18 0 12 1;
#X connect 19 0 20 0;
#X connect 20 0 27 0;
#X connect 22 0 23 0;
#X connect 23 0 7 0;
#X connect 23 1 9 0;
#X connect 24 0 23 0;
#X connect 24 1 19 0;
#X connect 25 0 30 0;
#X connect 26 0 27 1;
#X connect 26 0 31 0;
#X connect 27 0 21 0;
#X connect 28 0 6 0;
#X connect 29 0 30 1;
#X connect 30 0 11 0;
#X connect 31 0 28 0;
#X restore -7 111 pd slider.wrapper;
#X obj -7 40 t a a;
#X obj -7 66 list length;
#N canvas 874 200 385 462 list.selector.fields 0;
#N canvas 1158 434 142 254 counter 0;
#X obj 10 12 inlet;
#X msg 38 61 -2;
#X obj 10 83 until;
#X obj 10 105 f;
#X obj 37 106 + 1;
#X obj 10 38 t b b a;
#X obj 10 202 list prepend;
#X obj 10 224 outlet;
#X obj 10 126 t a a;
#X obj 10 181 list append;
#X obj 51 156 + 21;
#X obj 51 133 * 11;
#X msg 10 61 6;
#X connect 0 0 5 0;
#X connect 1 0 3 1;
#X connect 2 0 3 0;
#X connect 3 0 4 0;
#X connect 3 0 8 0;
#X connect 4 0 3 1;
#X connect 5 0 12 0;
#X connect 5 1 1 0;
#X connect 5 2 6 1;
#X connect 6 0 7 0;
#X connect 8 0 9 0;
#X connect 8 1 11 0;
#X connect 9 0 6 0;
#X connect 10 0 9 1;
#X connect 11 0 10 0;
#X connect 12 0 2 0;
#X restore 5 200 pd counter;
#X obj 5 224 t a a;
#X obj 5 442 s;
#X obj 5 246 list trim;
#X obj 159 49 inlet;
#X obj 32 82 del 600;
#X obj 252 89 inlet;
#X msg 5 107 1;
#X msg 32 107 0;
#X obj 5 288 route 1 0;
#N canvas 752 421 288 441 update.labels 0;
#N canvas 646 355 158 272 counter 0;
#X obj 10 12 inlet;
#X msg 10 57 5;
#X msg 38 57 -2;
#X obj 10 79 until;
#X obj 10 101 f;
#X obj 37 102 + 1;
#X obj 10 124 outlet;
#X obj 10 34 t b b;
#X connect 0 0 7 0;
#X connect 1 0 3 0;
#X connect 2 0 4 1;
#X connect 3 0 4 0;
#X connect 4 0 5 0;
#X connect 4 0 6 0;
#X connect 5 0 4 1;
#X connect 7 0 1 0;
#X connect 7 1 2 0;
#X restore -47 75 pd counter;
#X obj -47 31 t b a;
#X obj -47 97 list append;
#X obj -47 7 inlet;
#X obj 97 9 inlet;
#X obj -47 119 t a a;
#X msg 16 124 \$1 \$2;
#X obj 16 146 +;
#X obj -47 171 list append;
#X obj -47 193 t a a;
#N canvas 781 423 450 300 get.label.from.id 0;
#X obj 68 94 t b a;
#X obj 68 140 list split;
#X obj 68 118 list append;
#X obj 153 227 list split 1;
#X obj 68 66 - 1;
#X obj 29 42 moses 1;
#X msg 125 168 symbol empty;
#X obj 96 201 route bang;
#X obj 153 250 outlet;
#X obj 29 18 inlet;
#X obj 232 28 inlet;
#X connect 0 0 2 0;
#X connect 0 1 1 1;
#X connect 1 1 7 0;
#X connect 1 2 6 0;
#X connect 2 0 1 0;
#X connect 3 0 8 0;
#X connect 4 0 0 0;
#X connect 5 0 6 0;
#X connect 5 1 4 0;
#X connect 6 0 8 0;
#X connect 7 0 6 0;
#X connect 7 1 3 0;
#X connect 9 0 5 0;
#X connect 10 0 2 1;
#X restore -20 241 pd get.label.from.id;
#X obj -47 266 list append;
#X msg -20 218 \$3;
#X obj -20 310 list prepend \$0;
#X msg -20 332 \; \$1.field.\$2.r label \$5;
#X obj -47 288 t a a;
#X obj -47 365 route 0;
#X msg -47 385 symbol \$3;
#X obj -47 407 outlet;
#X connect 0 0 2 0;
#X connect 1 0 0 0;
#X connect 1 1 2 1;
#X connect 2 0 5 0;
#X connect 3 0 1 0;
#X connect 4 0 10 1;
#X connect 5 0 8 0;
#X connect 5 1 6 0;
#X connect 6 0 7 0;
#X connect 7 0 8 1;
#X connect 8 0 9 0;
#X connect 9 0 11 0;
#X connect 9 1 12 0;
#X connect 10 0 11 1;
#X connect 11 0 15 0;
#X connect 12 0 10 0;
#X connect 13 0 14 0;
#X connect 15 0 16 0;
#X connect 15 1 13 0;
#X connect 16 0 17 0;
#X connect 17 0 18 0;
#X restore 159 112 pd update.labels;
#X obj 32 398 list prepend \$0;
#X msg 32 420 symbol \$1.field.\$3.r;
#X obj 5 333 route 3;
#X obj 5 60 t b b;
#X obj 5 129 change;
#X obj 5 5 r \$0.selector.s;
#X obj 159 69 f;
#N canvas 842 395 450 300 init.cnvs 0;
#X obj 15 214 list prepend \$0;
#X msg 120 167 -187246;
#X msg 42 168 -233017;
#X obj 15 127 t a a;
#X obj 15 193 list append;
#X obj 42 147 sel 0 3;
#X msg 92 167 -1;
#X msg 15 105 3 \, -2 \, -1 \, 1 \, 2 \, 0;
#X obj 15 58 spigot 1;
#X msg 93 75 0;
#X obj 15 80 t b b;
#X obj 15 6 r \$0.selector.s;
#X obj 15 270 s \$0.goparea;
#X msg 15 235 obj 34 20 cnv 1 1 1 empty \$1.field.\$2.r empty 1 5 0
10 \$3 -1 0;
#X connect 0 0 13 0;
#X connect 1 0 4 1;
#X connect 2 0 4 1;
#X connect 3 0 4 0;
#X connect 3 1 5 0;
#X connect 4 0 0 0;
#X connect 5 0 2 0;
#X connect 5 1 6 0;
#X connect 5 2 1 0;
#X connect 6 0 4 1;
#X connect 7 0 3 0;
#X connect 8 0 10 0;
#X connect 9 0 8 1;
#X connect 10 0 7 0;
#X connect 10 1 9 0;
#X connect 11 0 8 0;
#X connect 13 0 12 0;
#X restore 277 12 pd init.cnvs;
#X obj 107 94 sel 1 0;
#X obj 5 150 t a a a;
#X obj 195 221 outlet;
#X obj 126 152 symbol;
#X obj 126 175 select dummy;
#X obj 195 199 t a a;
#X obj 5 27 spigot;
#X obj 60 28 r \$0.ready;
#X msg 39 313 pos 34 20 \, vis_size 1 1 \, label empty \, size 1;
#X msg 44 358 pos 33 \$2 \, vis_size 38 10;
#X msg 5 377 pos 31 -3 \, vis_size 42 58;
#X connect 0 0 1 0;
#X connect 1 0 3 0;
#X connect 1 1 11 0;
#X connect 3 0 9 0;
#X connect 4 0 17 0;
#X connect 5 0 8 0;
#X connect 6 0 10 1;
#X connect 7 0 15 0;
#X connect 8 0 15 0;
#X connect 9 0 13 0;
#X connect 9 1 27 0;
#X connect 10 0 22 1;
#X connect 11 0 12 0;
#X connect 12 0 2 1;
#X connect 13 0 29 0;
#X connect 13 1 28 0;
#X connect 14 0 7 0;
#X connect 14 1 5 0;
#X connect 15 0 20 0;
#X connect 16 0 25 0;
#X connect 17 0 10 0;
#X connect 19 0 17 0;
#X connect 19 1 22 0;
#X connect 20 0 19 0;
#X connect 20 1 0 0;
#X connect 22 0 23 0;
#X connect 23 1 24 0;
#X connect 24 0 21 0;
#X connect 24 1 23 1;
#X connect 25 0 14 0;
#X connect 26 0 25 1;
#X connect 27 0 2 0;
#X connect 28 0 2 0;
#X connect 29 0 2 0;
#X restore -7 146 pd list.selector.fields;
#X msg -7 88 range 1 \$1;
#N canvas 278 280 419 327 slider.wrapper 0;
#X obj 20 255 pack f f f;
#X obj 20 233 - 1;
#X obj 20 167 change;
#X obj 20 208 t a a a;
#X obj 77 231 +;
#X msg 20 277 range \$2 \$1 \, set \$3;
#X obj 20 299 s \$0.selector.r;
#X obj 20 145 div 5;
#X obj 20 187 * 5;
#X obj 92 208 mod 5;
#X obj 48 232 + 5;
#X obj 20 48 max 0;
#X obj 20 74 min 1e+37;
#X obj 139 20 inlet;
#X obj 139 42 route range set;
#X obj 139 67 unpack;
#X obj 203 67 r \$0.sens;
#X obj 139 91 *;
#X obj 172 91 *;
#X obj 172 184 div;
#X obj 172 206 change -1e+37;
#X obj 172 228 outlet;
#X obj 182 121 *;
#X obj 20 120 t a a;
#X obj 20 96 t a a;
#X obj 20 17 r \$0.selector.s;
#X connect 0 0 5 0;
#X connect 1 0 0 0;
#X connect 2 0 8 0;
#X connect 3 0 1 0;
#X connect 3 1 10 0;
#X connect 3 2 4 0;
#X connect 4 0 0 2;
#X connect 5 0 6 0;
#X connect 7 0 2 0;
#X connect 8 0 3 0;
#X connect 9 0 4 1;
#X connect 10 0 0 1;
#X connect 11 0 12 0;
#X connect 12 0 24 0;
#X connect 13 0 14 0;
#X connect 14 0 15 0;
#X connect 14 1 22 0;
#X connect 15 0 17 0;
#X connect 15 1 18 0;
#X connect 16 0 18 1;
#X connect 16 0 17 1;
#X connect 16 0 19 1;
#X connect 16 0 22 1;
#X connect 17 0 11 1;
#X connect 18 0 12 1;
#X connect 19 0 20 0;
#X connect 20 0 21 0;
#X connect 22 0 23 0;
#X connect 23 0 7 0;
#X connect 23 1 9 0;
#X connect 24 0 23 0;
#X connect 24 1 19 0;
#X connect 25 0 11 0;
#X restore -7 111 pd slider.wrapper;
#X obj -7 40 t a a;
#X obj -7 66 list length;
#X msg -7 88 range 1 \$1;
#X msg 144 368 label \$1;
#X obj 144 344 symbol;
#X obj 144 391 s \$0.selector.label.r;
#X obj -7 276 s \$0.mode;
#X obj -7 12 inlet;
#X msg -7 233 0;
#X msg 32 234 1;
#X msg 144 317 I;
#X msg 182 317 O;
#X obj 178 90 r \$0.ready;
#X obj 177 8 loadbang;
#X obj 177 30 \$0;
#X msg 177 52 \; \$1.sens 5 \;;
#X msg 72 234 2;
#X msg 178 145 symbol OFF;
#X obj -7 202 sel INPUT OUTPUT ANALOG OFF;
#X msg 220 317 A;
#X msg 265 317 empty;
#X obj 144 269 r \$0.mode;
#X msg 112 234 -1;
#X obj 144 291 sel 0 1 2 -1;
#X connect 0 0 3 0;
#X connect 1 0 2 0;
#X connect 1 1 3 1;
#X connect 2 0 4 0;
#X connect 3 0 24 0;
#X connect 4 0 0 0;
#X connect 6 0 7 0;
#X connect 7 0 8 0;
#X connect 8 0 5 0;
#X connect 9 0 11 0;
#X connect 10 0 9 0;
#X connect 13 0 1 0;
#X connect 14 0 12 0;
#X connect 15 0 12 0;
#X connect 16 0 10 0;
#X connect 17 0 10 0;
#X connect 18 0 23 0;
#X connect 19 0 20 0;
#X connect 20 0 21 0;
#X connect 22 0 12 0;
#X connect 23 0 24 0;
#X connect 24 0 14 0;
#X connect 24 1 15 0;
#X connect 24 2 22 0;
#X connect 24 3 28 0;
#X connect 25 0 10 0;
#X connect 26 0 10 0;
#X connect 27 0 29 0;
#X connect 28 0 12 0;
#X connect 29 0 16 0;
#X connect 29 1 17 0;
#X connect 29 2 25 0;
#X connect 29 3 26 0;
#X restore 17 161 pd mode.selector;
#N canvas 1121 431 212 148 pin.no.label 0;
#X obj 14 105 s \$0.sl.r;
#X obj 14 62 makefilename %2d;
#X msg 14 84 label \$1;
#X obj 14 35 r \$0.pin.no;
#X obj 119 14 r \$0.ready;
#X obj 119 36 sel 0;
#X msg 119 58 label empty;
#X obj 124 97 loadbang;
#X connect 1 0 2 0;
#X connect 2 0 0 0;
#X connect 3 0 1 0;
#X connect 4 0 5 0;
#X connect 5 0 6 0;
#X connect 6 0 0 0;
#X connect 7 0 6 0;
#X restore 17 183 pd pin.no.label;
#N canvas 472 155 520 484 show.value 0;
#X obj 128 431 s \$0.show.value;
#X obj 168 171 del 1000;
#X obj 135 146 r \$0.mode;
#X obj 214 17 r \$0.toggle;
#X obj 283 34 r \$0.mode;
#X obj 214 55 list prepend;
#X obj 267 216 sel 0 1;
#X msg 267 240 LOW;
#X msg 293 240 HIGH;
#X msg 168 200 empty;
#X obj 241 141 sel 0 1;
#X msg 241 163 PULL_UP_OFF;
#X msg 260 183 PULL_UP_ON;
#X obj 214 77 t b a;
#X obj 241 97 route 0 1;
#X msg 357 278 label_pos \$1 7;
#X obj 241 119 t a b;
#X obj 324 127 t a b;
#X msg 402 213 -31;
#X msg 373 212 -80;
#X obj 206 299 spigot 1;
#X obj 390 323 r \$0.block.send;
#X obj 390 370 sel 1;
#X obj 390 345 t a a;
#X obj 206 321 symbol;
#X obj 102 284 route refresh;
#X obj 102 262 r \$1.ARDUINO.INTERN;
#X obj 102 306 b;
#X obj 102 352 sel _;
#X obj 129 374 t a a;
#X obj 102 330 symbol empty;
#X msg 129 398 label \$1;
#X connect 1 0 9 0;
#X connect 2 0 9 0;
#X connect 3 0 5 0;
#X connect 4 0 5 1;
#X connect 5 0 13 0;
#X connect 6 0 7 0;
#X connect 6 1 8 0;
#X connect 7 0 20 0;
#X connect 8 0 20 0;
#X connect 9 0 20 0;
#X connect 10 0 11 0;
#X connect 10 1 12 0;
#X connect 11 0 20 0;
#X connect 12 0 20 0;
#X connect 13 0 1 0;
#X connect 13 1 14 0;
#X connect 14 0 16 0;
#X connect 14 1 17 0;
#X connect 15 0 0 0;
#X connect 16 0 10 0;
#X connect 16 1 19 0;
#X connect 17 0 6 0;
#X connect 17 1 18 0;
#X connect 18 0 15 0;
#X connect 19 0 15 0;
#X connect 20 0 24 0;
#X connect 21 0 23 0;
#X connect 22 0 9 0;
#X connect 23 0 22 0;
#X connect 23 1 20 1;
#X connect 24 0 30 1;
#X connect 25 0 27 0;
#X connect 26 0 25 0;
#X connect 27 0 30 0;
#X connect 28 1 29 0;
#X connect 29 0 31 0;
#X connect 29 1 28 1;
#X connect 30 0 28 0;
#X connect 31 0 0 0;
#X restore 17 205 pd show.value;
#N canvas 1136 268 336 455 color.indicator 0;
#N canvas 1083 72 231 303 color.blender 0;
#N canvas 1144 153 166 250 blend 0;
#X obj 12 12 inlet;
#X obj 12 207 outlet;
#X obj 67 11 inlet;
#X obj 27 109 -;
#X obj 12 130 *;
#X obj 67 32 t a a;
#X obj 12 176 int;
#X msg 27 87 255 \$1;
#X obj 12 152 +;
#X obj 12 34 * -1;
#X obj 12 56 + 1;
#X connect 0 0 9 0;
#X connect 2 0 5 0;
#X connect 3 0 4 1;
#X connect 4 0 8 0;
#X connect 5 0 7 0;
#X connect 5 1 8 1;
#X connect 6 0 1 0;
#X connect 7 0 3 0;
#X connect 8 0 6 0;
#X connect 9 0 10 0;
#X connect 10 0 4 0;
#X restore 29 104 pd blend;
#N canvas 1144 153 166 250 blend 0;
#X obj 12 12 inlet;
#X obj 12 207 outlet;
#X obj 67 11 inlet;
#X obj 27 109 -;
#X obj 12 130 *;
#X obj 67 32 t a a;
#X obj 12 176 int;
#X msg 27 87 255 \$1;
#X obj 12 152 +;
#X obj 12 34 * -1;
#X obj 12 56 + 1;
#X connect 0 0 9 0;
#X connect 2 0 5 0;
#X connect 3 0 4 1;
#X connect 4 0 8 0;
#X connect 5 0 7 0;
#X connect 5 1 8 1;
#X connect 6 0 1 0;
#X connect 7 0 3 0;
#X connect 8 0 6 0;
#X connect 9 0 10 0;
#X connect 10 0 4 0;
#X restore 86 104 pd blend;
#N canvas 1144 153 166 250 blend 0;
#X obj 12 12 inlet;
#X obj 12 207 outlet;
#X obj 67 11 inlet;
#X obj 27 109 -;
#X obj 12 130 *;
#X obj 67 32 t a a;
#X obj 12 176 int;
#X msg 27 87 255 \$1;
#X obj 12 152 +;
#X obj 12 34 * -1;
#X obj 12 56 + 1;
#X connect 0 0 9 0;
#X connect 2 0 5 0;
#X connect 3 0 4 1;
#X connect 4 0 8 0;
#X connect 5 0 7 0;
#X connect 5 1 8 1;
#X connect 6 0 1 0;
#X connect 7 0 3 0;
#X connect 8 0 6 0;
#X connect 9 0 10 0;
#X connect 10 0 4 0;
#X restore 142 104 pd blend;
#X obj 29 23 inlet;
#X obj 29 264 outlet;
#X obj 118 23 inlet;
#X obj 118 45 unpack f f f;
#X obj 29 53 t a a a;
#X obj 86 143 << 8;
#X obj 29 143 << 16;
#X obj 29 200 +;
#X obj 86 172 +;
#X obj 29 220 * -1;
#X obj 29 241 - 1;
#X connect 0 0 9 0;
#X connect 1 0 8 0;
#X connect 2 0 11 1;
#X connect 3 0 7 0;
#X connect 5 0 6 0;
#X connect 6 0 0 1;
#X connect 6 1 1 1;
#X connect 6 2 2 1;
#X connect 7 0 0 0;
#X connect 7 1 1 0;
#X connect 7 2 2 0;
#X connect 8 0 11 0;
#X connect 9 0 10 0;
#X connect 10 0 12 0;
#X connect 11 0 10 1;
#X connect 12 0 13 0;
#X connect 13 0 4 0;
#X restore 38 238 pd color.blender;
#X obj 38 282 s \$0.sl.r;
#X msg 38 260 color \$1 \$1 -1;
#X obj 159 15 r \$0.mode;
#X obj 2 35 r \$0.toggle;
#X obj 38 189 + 0.1;
#X obj 38 167 * 0.9;
#X msg 186 118 210 0 255;
#X msg 201 143 0 200 0;
#X obj 2 414 s \$0.pull.up.r;
#X obj 2 342 sel 0 1;
#X msg 2 392 pos \$1 20 \, size 1 \, vis_size 4 1;
#X obj 2 319 change;
#X obj 95 324 r \$0.mode;
#X msg 122 367 0;
#X obj 95 346 sel 0;
#X obj 49 115 r \$0.input;
#N canvas 542 727 176 225 rate.limit 0;
#X obj 129 52 inlet;
#X obj 19 150 outlet;
#X obj 19 47 route refresh;
#X obj 19 69 b;
#X obj 19 91 f;
#X obj 19 126 change -1;
#X obj 19 25 r \$1.ARDUINO.INTERN;
#X obj 96 119 r \$0.mode;
#X msg 96 141 set -1;
#X connect 0 0 4 1;
#X connect 2 0 3 0;
#X connect 3 0 4 0;
#X connect 4 0 5 0;
#X connect 5 0 1 0;
#X connect 6 0 2 0;
#X connect 7 0 8 0;
#X connect 8 0 5 0;
#X restore 38 216 pd rate.limit;
#X msg 233 198 224 224 224;
#X msg 129 91 1;
#X msg 156 91 0;
#X obj 159 37 t a a;
#X obj 2 87 route 0 1;
#X obj 2 62 list prepend;
#X msg 33 367 28;
#X msg 2 368 33;
#X msg 217 169 0 190 190;
#X obj 129 69 sel -1;
#X obj 186 92 sel 0 1 2 -1;
#X connect 0 0 2 0;
#X connect 2 0 1 0;
#X connect 3 0 21 0;
#X connect 4 0 23 0;
#X connect 5 0 17 0;
#X connect 6 0 5 0;
#X connect 7 0 0 1;
#X connect 8 0 0 1;
#X connect 10 0 25 0;
#X connect 10 1 24 0;
#X connect 11 0 9 0;
#X connect 12 0 10 0;
#X connect 13 0 15 0;
#X connect 14 0 12 0;
#X connect 15 1 14 0;
#X connect 16 0 6 0;
#X connect 17 0 0 0;
#X connect 18 0 0 1;
#X connect 19 0 6 0;
#X connect 20 0 6 0;
#X connect 21 0 23 1;
#X connect 21 0 27 0;
#X connect 21 1 28 0;
#X connect 22 0 12 0;
#X connect 22 1 6 0;
#X connect 23 0 22 0;
#X connect 24 0 11 0;
#X connect 25 0 11 0;
#X connect 26 0 0 1;
#X connect 27 0 19 0;
#X connect 27 1 20 0;
#X connect 28 0 7 0;
#X connect 28 1 8 0;
#X connect 28 2 26 0;
#X connect 28 3 18 0;
#X restore 17 227 pd color.indicator;
#N canvas 1012 377 271 302 input.output.toggle 0;
#N canvas 1230 249 185 273 slider.click.detection 0;
#X obj 14 49 sel 0 1;
#X obj 14 28 route float;
#X msg 14 169 set 0.5;
#X obj 82 101 t a a;
#X obj 82 144 sel 0;
#X obj 82 166 outlet;
#X obj 24 190 loadbang;
#X msg 24 211 range 0 1 \, set 0.5;
#X obj 82 123 - 0.5;
#X obj 14 6 r \$0.sl.s;
#X obj 14 232 s \$0.sl.r;
#X obj 64 76 f;
#X obj 100 79 + 1;
#X connect 0 0 2 0;
#X connect 0 0 11 0;
#X connect 0 1 2 0;
#X connect 0 1 11 0;
#X connect 0 2 11 0;
#X connect 1 0 0 0;
#X connect 2 0 10 0;
#X connect 3 0 8 1;
#X connect 3 1 8 0;
#X connect 4 0 5 0;
#X connect 6 0 7 0;
#X connect 7 0 10 0;
#X connect 8 0 4 0;
#X connect 9 0 1 0;
#X connect 11 0 12 0;
#X connect 11 0 3 0;
#X connect 12 0 11 1;
#X restore 9 11 pd slider.click.detection;
#X obj 9 234 ==;
#X obj 45 234 t a;
#X obj 73 181 r \$0.mode;
#X msg 73 203 0;
#X obj 9 257 s \$0.toggle;
#X text 99 205 <- reset on mode switch;
#X obj 9 194 spigot;
#X obj 124 96 r \$0.ready;
#X obj 42 160 &&;
#X obj 124 118 t b a;
#X obj 42 42 r \$0.mode;
#X obj 42 64 sel 0 1;
#X msg 42 94 1;
#X msg 81 92 0;
#X connect 0 0 7 0;
#X connect 1 0 2 0;
#X connect 1 0 5 0;
#X connect 2 0 1 1;
#X connect 3 0 4 0;
#X connect 4 0 1 1;
#X connect 7 0 1 0;
#X connect 8 0 10 0;
#X connect 9 0 7 1;
#X connect 10 0 9 0;
#X connect 10 1 9 1;
#X connect 11 0 12 0;
#X connect 12 0 13 0;
#X connect 12 1 13 0;
#X connect 12 2 14 0;
#X connect 13 0 9 0;
#X connect 14 0 9 0;
#X restore 17 249 pd input.output.toggle;
#X text 230 76 0: INPUT;
#X text 230 102 2: ANALOG;
#X text 230 129 4: SERVO;
#X text 230 47 Table Of PinModes:;
#X text 230 56 ==================;
#N canvas 931 384 403 367 resolve.supported.modes 0;
#X obj 23 76 tabread \$1.ARDUINO.PIN.MODES;
#X obj 4 10 loadbang;
#X obj 23 54 f \$2;
#X obj 23 214 list prepend;
#X obj 110 214 t a;
#X obj 4 243 list append;
#X text 48 274 <- list of supported modes;
#X obj 4 273 outlet;
#X msg 145 117 OFF;
#X msg 96 183 ANALOG;
#X obj 96 161 sel 16;
#X obj 96 127 & 16;
#X msg 60 183 OUTPUT;
#X msg 23 183 INPUT;
#X obj 60 127 & 1;
#X obj 23 128 & 2;
#X obj 23 161 sel 2;
#X obj 60 161 sel 1;
#X obj 23 98 t a a a;
#X obj 4 32 t b b b;
#X connect 0 0 18 0;
#X connect 1 0 19 0;
#X connect 2 0 0 0;
#X connect 3 0 4 0;
#X connect 3 0 5 1;
#X connect 4 0 3 1;
#X connect 5 0 7 0;
#X connect 8 0 3 0;
#X connect 9 0 3 0;
#X connect 10 0 9 0;
#X connect 11 0 10 0;
#X connect 12 0 3 0;
#X connect 13 0 3 0;
#X connect 14 0 17 0;
#X connect 15 0 16 0;
#X connect 16 0 13 0;
#X connect 17 0 12 0;
#X connect 18 0 15 0;
#X connect 18 1 14 0;
#X connect 18 2 11 0;
#X connect 19 0 5 0;
#X connect 19 1 2 0;
#X connect 19 2 8 0;
#X restore 17 138 pd resolve.supported.modes;
#N canvas 682 136 421 475 compose.arduino.messages 0;
#X obj 11 9 r \$0.mode;
#X text 68 91 <- don't send initial 'output' (it's the default);
#X msg 11 232 input;
#X msg 26 210 output;
#X msg 73 136 servo;
#X obj 11 315 list trim;
#X obj 256 125 r \$0.toggle;
#X msg 256 211 digital \$1 \$2;
#X obj 80 5 r \$0.ready;
#X obj 80 26 sel 0;
#X msg 42 184 analog;
#X obj 11 385 s \$1.ARDUINO.TO;
#X obj 67 332 r \$0.block.send;
#X obj 11 355 spigot 1;
#X obj 147 139 \$2;
#X msg 57 160 pwm;
#X obj 11 111 sel 0 1 2 3 4 -1;
#X msg 80 50 set -1;
#X obj 11 90 change -1;
#X obj 238 291 r \$0.pin.no;
#X obj 256 186 list prepend -1;
#X obj 147 170 - 14;
#X obj 11 263 list prepend -1;
#X obj 11 285 list prepend pinMode;
#X obj 147 192 t a b;
#X msg 174 214 analog;
#X msg 147 236 analogIns \$1 0;
#X connect 0 0 18 0;
#X connect 2 0 22 0;
#X connect 3 0 22 0;
#X connect 4 0 22 0;
#X connect 5 0 13 0;
#X connect 6 0 20 0;
#X connect 7 0 13 0;
#X connect 8 0 9 0;
#X connect 9 0 17 0;
#X connect 10 0 22 0;
#X connect 12 0 13 1;
#X connect 13 0 11 0;
#X connect 14 0 21 0;
#X connect 15 0 22 0;
#X connect 16 0 2 0;
#X connect 16 1 3 0;
#X connect 16 2 10 0;
#X connect 16 3 15 0;
#X connect 16 4 4 0;
#X connect 16 5 14 0;
#X connect 17 0 18 0;
#X connect 18 0 16 0;
#X connect 19 0 20 1;
#X connect 19 0 22 1;
#X connect 20 0 7 0;
#X connect 21 0 24 0;
#X connect 22 0 23 0;
#X connect 23 0 5 0;
#X connect 24 0 26 0;
#X connect 24 1 25 0;
#X connect 25 0 22 0;
#X connect 26 0 5 0;
#X restore 17 293 pd compose.arduino.messages;
#N canvas 699 417 205 172 ready 0;
#X obj -15 -92 r \$1.ARDUINO.INTERN;
#X obj -15 -70 route ready;
#X obj -15 7 s \$0.ready;
#X obj 19 -49 loadbang;
#X msg 19 -27 0;
#X connect 0 0 1 0;
#X connect 1 0 2 0;
#X connect 3 0 4 0;
#X connect 4 0 2 0;
#X restore 17 94 pd ready;
#X text 230 89 1: OUTPUT;
#X text 230 116 3: OFF (default);
#X obj 21 19 cnv 8 8 8 empty \$0.show.value empty -80 7 0 12 -1 -258113
0;
#X obj 21 22 cnv 1 1 8 empty \$0.bar empty -31 7 0 12 -3121 -258113
0;
#X obj 21 21 vsl 12 9 0 1 0 0 \$0.sl.s \$0.sl.r empty 1 6 0 9 -233017
-233017 -1 400 1;
#N canvas 780 237 297 413 bar.display 0;
#X obj 72 59 r \$0.analog;
#X obj 99 385 s \$0.bar;
#X obj 16 102 f;
#X obj 16 5 r \$1.ARDUINO.INTERN;
#X obj 16 27 route refresh;
#X obj 16 49 b;
#X msg 99 271 1 21;
#X obj 16 219 t a a;
#X obj 16 305 pack f f;
#X msg 99 358 vis_size \$1 8 \, pos \$2 22;
#X obj 43 264 * -1;
#X obj 43 242 - 50;
#X obj 16 187 int;
#X obj 43 283 + -33;
#X obj 16 166 * 50;
#X obj 72 81 t a b;
#X obj 99 106 del 200;
#X obj 16 144 change 0;
#X msg 128 139 set -1;
#X msg 60 116 -1;
#X connect 0 0 15 0;
#X connect 2 0 17 0;
#X connect 3 0 4 0;
#X connect 4 0 5 0;
#X connect 5 0 2 0;
#X connect 6 0 9 0;
#X connect 7 0 8 0;
#X connect 7 1 11 0;
#X connect 8 0 9 0;
#X connect 9 0 1 0;
#X connect 10 0 13 0;
#X connect 11 0 10 0;
#X connect 12 0 7 0;
#X connect 13 0 8 1;
#X connect 14 0 12 0;
#X connect 15 0 2 1;
#X connect 15 1 16 0;
#X connect 16 0 6 0;
#X connect 16 0 19 0;
#X connect 16 0 18 0;
#X connect 17 0 14 0;
#X connect 18 0 17 0;
#X connect 19 0 2 1;
#X restore 17 315 pd bar.display;
#N canvas 855 536 392 240 handle.incoming 0;
#N canvas 789 211 642 381 pinMode 0;
#N canvas 1127 211 407 276 get.supported.modes 0;
#X obj 31 76 tabread \$1.ARDUINO.PIN.MODES;
#X obj 31 54 f \$2;
#X obj 306 132 & 1;
#X obj 238 133 & 2;
#X obj 169 133 & 4;
#X obj 98 133 & 8;
#X obj 98 166 sel 8;
#X obj 169 167 sel 4;
#X obj 238 167 sel 2;
#X obj 306 166 sel 1;
#X obj 31 32 b;
#X obj 31 98 t a a a a a;
#X obj 31 133 & 16;
#X msg 31 188 2 analog;
#X msg 98 188 4 servo;
#X msg 169 189 3 pwm;
#X msg 238 189 0 input;
#X obj 31 166 sel 16;
#X msg 306 189 1 output;
#X obj 31 9 inlet;
#X obj 31 236 outlet;
#X connect 0 0 11 0;
#X connect 1 0 0 0;
#X connect 2 0 9 0;
#X connect 3 0 8 0;
#X connect 4 0 7 0;
#X connect 5 0 6 0;
#X connect 6 0 14 0;
#X connect 7 0 15 0;
#X connect 8 0 16 0;
#X connect 9 0 18 0;
#X connect 10 0 1 0;
#X connect 11 0 12 0;
#X connect 11 1 5 0;
#X connect 11 2 4 0;
#X connect 11 3 3 0;
#X connect 11 4 2 0;
#X connect 12 0 17 0;
#X connect 13 0 20 0;
#X connect 14 0 20 0;
#X connect 15 0 20 0;
#X connect 16 0 20 0;
#X connect 17 0 13 0;
#X connect 18 0 20 0;
#X connect 19 0 10 0;
#X restore 10 143 pd get.supported.modes;
#X obj 10 33 route pinMode;
#X obj 10 99 t b a;
#X obj 10 77 list;
#X obj 37 121 route float symbol;
#X obj 10 165 t a a;
#X obj 10 189 unpack f s;
#X obj 100 213 sel _;
#X obj 10 284 f;
#X msg 37 262 \$1;
#X obj 10 213 sel -1;
#X obj 10 235 t b b;
#X msg 164 225 symbol _;
#X obj 100 235 t b b;
#X msg 66 225 -1;
#X obj 10 308 s \$0.mode;
#X obj 10 11 r \$0.incoming;
#X obj 270 18 r \$0.incoming;
#X obj 270 40 route analogIns;
#X obj 270 136 route 0;
#X obj 334 68 loadbang;
#X obj 334 90 \$2;
#X obj 270 217 spigot 1;
#X obj 270 239 sel 0 1;
#X msg 297 264 2;
#X msg 270 264 -1;
#X obj 270 312 s \$0.mode;
#X obj 423 42 route pinMode;
#X obj 423 20 r \$0.incoming;
#X obj 423 247 s \$0.mode;
#X msg 423 226 -1;
#X obj 423 88 list;
#X obj 330 145 r \$0.mode;
#X obj 330 167 sel 0 1 2;
#X msg 364 198 1;
#X msg 330 199 0;
#X obj 416 156 sel pwm servo;
#X obj 504 160 sel 3 4;
#X obj 417 194 b;
#X obj 10 55 route -1;
#X obj 113 59 r \$0.pin.no;
#X obj 334 112 - 14;
#X obj 494 67 r \$0.pin.no;
#X obj 423 64 route -1;
#X connect 0 0 5 0;
#X connect 1 0 39 0;
#X connect 2 0 0 0;
#X connect 2 1 4 0;
#X connect 3 0 2 0;
#X connect 4 0 10 1;
#X connect 4 1 7 1;
#X connect 5 0 6 0;
#X connect 5 1 9 0;
#X connect 6 0 10 0;
#X connect 6 1 7 0;
#X connect 7 0 13 0;
#X connect 8 0 15 0;
#X connect 9 0 8 1;
#X connect 10 0 11 0;
#X connect 11 0 8 0;
#X connect 11 1 12 0;
#X connect 12 0 7 1;
#X connect 13 0 8 0;
#X connect 13 1 14 0;
#X connect 14 0 10 1;
#X connect 16 0 1 0;
#X connect 17 0 18 0;
#X connect 18 0 19 0;
#X connect 19 0 22 0;
#X connect 20 0 21 0;
#X connect 21 0 41 0;
#X connect 22 0 23 0;
#X connect 23 0 25 0;
#X connect 23 1 24 0;
#X connect 24 0 26 0;
#X connect 25 0 26 0;
#X connect 27 0 43 0;
#X connect 28 0 27 0;
#X connect 30 0 29 0;
#X connect 31 0 36 0;
#X connect 31 0 37 0;
#X connect 32 0 33 0;
#X connect 33 0 35 0;
#X connect 33 1 35 0;
#X connect 33 2 34 0;
#X connect 34 0 22 1;
#X connect 35 0 22 1;
#X connect 36 0 38 0;
#X connect 36 1 38 0;
#X connect 37 0 38 0;
#X connect 37 1 38 0;
#X connect 38 0 35 0;
#X connect 38 0 30 0;
#X connect 39 0 3 0;
#X connect 40 0 39 1;
#X connect 41 0 19 1;
#X connect 42 0 43 1;
#X connect 43 0 31 0;
#X restore 10 10 pd pinMode;
#X obj 252 91 s \$0.incoming;
#X obj 233 16 r \$1.ARDUINO.IN;
#X obj 233 65 t b a b;
#X msg 272 121 0;
#X msg 233 120 1;
#X obj 233 145 s \$0.block.send;
#X obj 285 38 r \$0.ready;
#X obj 233 38 spigot;
#N canvas 909 414 224 217 digital 0;
#X obj 10 11 r \$0.incoming;
#X obj 10 133 spigot 0;
#X obj 124 62 r \$0.mode;
#X obj 124 84 sel 0 1;
#X msg 124 111 1;
#X msg 163 111 0;
#X obj 10 157 s \$0.toggle;
#X obj 10 33 route digital;
#X obj 10 79 sel 0 1;
#X msg 10 100 0;
#X msg 39 100 1;
#X obj 10 55 route -1;
#X obj 119 29 r \$0.pin.no;
#X connect 0 0 7 0;
#X connect 1 0 6 0;
#X connect 2 0 3 0;
#X connect 3 0 4 0;
#X connect 3 1 4 0;
#X connect 3 2 5 0;
#X connect 4 0 1 1;
#X connect 5 0 1 1;
#X connect 7 0 11 0;
#X connect 8 0 9 0;
#X connect 8 1 10 0;
#X connect 9 0 1 0;
#X connect 10 0 1 0;
#X connect 11 0 8 0;
#X connect 12 0 11 1;
#X restore 11 36 pd digital;
#N canvas 909 498 232 267 analog 0;
#X obj 10 11 r \$0.incoming;
#X obj 10 133 spigot 0;
#X obj 111 49 r \$0.mode;
#X obj 10 33 route analog;
#X obj 10 155 clip 0 1;
#X obj 10 185 * 100;
#X obj 10 246 s \$0.nb.s;
#X msg 111 98 1;
#X msg 150 98 0;
#X obj 111 71 sel 3 4;
#X msg 78 223 set \$1;
#X obj 78 245 s \$0.nb.r;
#X obj 10 82 route -1;
#X obj 27 58 r \$0.pin.no;
#X connect 0 0 3 0;
#X connect 1 0 4 0;
#X connect 2 0 9 0;
#X connect 3 0 12 0;
#X connect 4 0 5 0;
#X connect 5 0 6 0;
#X connect 5 0 10 0;
#X connect 7 0 1 1;
#X connect 8 0 1 1;
#X connect 9 0 7 0;
#X connect 9 1 7 0;
#X connect 9 2 8 0;
#X connect 10 0 11 0;
#X connect 12 0 1 0;
#X connect 13 0 12 1;
#X restore 11 63 pd analog;
#N canvas 909 442 222 309 port 0;
#X obj 10 11 r \$0.incoming;
#X obj 10 193 spigot 0;
#X obj 104 165 r \$0.mode;
#X obj 104 187 sel 0 1;
#X msg 104 214 1;
#X msg 143 214 0;
#X obj 10 217 s \$0.toggle;
#X obj 10 33 route port;
#X obj 49 82 >> 3;
#X obj 10 103 route 0;
#X obj 112 104 & 7;
#X obj 10 128 >>;
#X obj 10 151 & 1;
#X obj 112 23 r \$0.pin.no;
#X connect 0 0 7 0;
#X connect 1 0 6 0;
#X connect 2 0 3 0;
#X connect 3 0 4 0;
#X connect 3 1 4 0;
#X connect 3 2 5 0;
#X connect 4 0 1 1;
#X connect 5 0 1 1;
#X connect 7 0 9 0;
#X connect 8 0 9 1;
#X connect 9 0 11 0;
#X connect 10 0 11 1;
#X connect 11 0 12 0;
#X connect 12 0 1 0;
#X connect 13 0 8 0;
#X connect 13 0 10 0;
#X restore 11 92 pd port;
#X connect 2 0 8 0;
#X connect 3 0 5 0;
#X connect 3 1 1 0;
#X connect 3 2 4 0;
#X connect 4 0 6 0;
#X connect 5 0 6 0;
#X connect 7 0 8 1;
#X connect 8 0 3 0;
#X restore 17 338 pd handle.incoming;
#X obj 33 20 cnv 1 4 1 empty \$0.pull.up.r empty 20 12 0 14 -1 -66577
0;
#X obj 33 21 vsl 8 9 10 -4 0 0 \$0.selector.s \$0.selector.r empty
1 5 0 10 -228856 -228856 -1 171 1;
#X obj 33 21 vsl 8 9 30 24 0 0 \$0.selector.label.s \$0.selector.label.r
empty 1 5 0 10 -228856 -228856 -1 0 1;
#X obj 34 20 cnv 1 1 1 empty 1512.field.3.r empty 1 5 0 10 -1 -1 0
;
#X obj 34 20 cnv 1 1 1 empty 1512.field.3.r empty 1 5 0 10 -1 -1 0
;
#X obj 34 20 cnv 1 1 1 empty 1512.field.-2.r empty 1 5 0 10 -187246
-1 0;
#X obj 34 20 cnv 1 1 1 empty 1512.field.-2.r empty 1 5 0 10 -187246
-1 0;
#X obj 34 20 cnv 1 1 1 empty 1512.field.-1.r empty 1 5 0 10 -187246
-1 0;
#X obj 34 20 cnv 1 1 1 empty 1512.field.-1.r empty 1 5 0 10 -187246
-1 0;
#X obj 34 20 cnv 1 1 1 empty 1512.field.1.r empty 1 5 0 10 -187246
-1 0;
#X obj 34 20 cnv 1 1 1 empty 1512.field.1.r empty 1 5 0 10 -187246
-1 0;
#X obj 34 20 cnv 1 1 1 empty 1512.field.2.r empty 1 5 0 10 -187246
-1 0;
#X obj 34 20 cnv 1 1 1 empty 1512.field.2.r empty 1 5 0 10 -187246
-1 0;
#X obj 34 20 cnv 1 1 1 empty 1512.field.0.r empty 1 5 0 10 -233017
-1 0;
#X obj 34 20 cnv 1 1 1 empty 1512.field.0.r empty 1 5 0 10 -233017
-1 0;
#N canvas 206 262 294 235 pin.number.mangling 0;
#X obj 30 41 route version;
#X obj 30 63 route 2;
#X obj 30 85 sel 2;
#X msg 30 112 2;
#X msg 57 112 0;
#X obj 30 140 + \$2;
#X obj 30 162 s \$0.pin.no;
#X obj 30 19 r \$1.ARDUINO.INFO;
#X connect 0 0 1 0;
#X connect 1 0 2 0;
#X connect 2 0 3 0;
#X connect 2 1 4 0;
#X connect 3 0 5 0;
#X connect 4 0 5 0;
#X connect 5 0 6 0;
#X connect 7 0 0 0;
#X restore 17 116 pd pin.number.mangling;
#N canvas 789 199 371 285 digital.analog.output 0;
#X obj 33 15 r \$1.ARDUINO.OUT;
#X obj 33 219 s \$0.input;
#X obj 33 37 route digital analog;
#X obj 129 87 route 0;
#X obj 168 16 loadbang;
#X obj 168 38 \$2;
#X obj 223 100 r \$0.mode;
#X obj 33 190 spigot;
#X obj 129 188 spigot;
#X obj 66 145 sel 0;
#X msg 66 167 1;
#X msg 93 167 0;
#X msg 162 163 1;
#X msg 189 163 0;
#X obj 162 141 sel 2;
#X obj 140 115 s \$0.analog;
#X obj 53 68 r \$0.pin.no;
#X obj 33 98 route -1;
#X obj 168 60 - 14;
#X connect 0 0 2 0;
#X connect 2 0 17 0;
#X connect 2 1 3 0;
#X connect 3 0 8 0;
#X connect 3 0 15 0;
#X connect 4 0 5 0;
#X connect 5 0 18 0;
#X connect 6 0 9 0;
#X connect 6 0 14 0;
#X connect 7 0 1 0;
#X connect 8 0 1 0;
#X connect 9 0 10 0;
#X connect 9 1 11 0;
#X connect 10 0 7 1;
#X connect 11 0 7 1;
#X connect 12 0 8 1;
#X connect 13 0 8 1;
#X connect 14 0 12 0;
#X connect 14 1 13 0;
#X connect 16 0 17 1;
#X connect 17 0 7 0;
#X connect 18 0 3 1;
#X restore 17 271 pd digital.analog.output;
#X connect 12 0 2 0;
#X coords 0 -1 1 1 20 14 2 21 19;
