#N canvas 542 187 313 399 10;
#X obj 166 172 loadbang;
#X msg 166 194 32;
#X obj 166 216 makefilename %c;
#X obj 103 238 list append;
#X msg 103 260 symbol \$1\$2;
#X obj 40 200 t b a;
#X obj 40 232 symbol;
#X obj 40 282 list append;
#X msg 40 304 symbol \$1\$2;
#X obj 40 157 list split 1;
#X obj 40 113 until;
#X obj 40 135 list append;
#X obj 134 121 b;
#X obj 40 89 t b a;
#X msg 171 113 symbol;
#X obj 21 52 t b a b;
#X obj 21 343 symbol;
#X obj 21 5 inlet;
#X obj 21 365 outlet;
#X obj 21 27 list;
#X connect 0 0 1 0;
#X connect 1 0 2 0;
#X connect 2 0 3 1;
#X connect 3 0 4 0;
#X connect 4 0 7 1;
#X connect 5 0 6 0;
#X connect 5 1 3 0;
#X connect 6 0 7 0;
#X connect 7 0 8 0;
#X connect 8 0 6 1;
#X connect 8 0 16 1;
#X connect 9 0 5 0;
#X connect 9 1 11 1;
#X connect 9 2 12 0;
#X connect 10 0 11 0;
#X connect 11 0 9 0;
#X connect 12 0 10 1;
#X connect 13 0 10 0;
#X connect 13 1 11 1;
#X connect 14 0 6 1;
#X connect 14 0 7 1;
#X connect 15 0 16 0;
#X connect 15 1 13 0;
#X connect 15 2 14 0;
#X connect 16 0 18 0;
#X connect 17 0 19 0;
#X connect 19 0 15 0;
