#N canvas 564 44 658 509 10;
#X obj 22 78 route serial.com;
#X obj 20 249 route firmware;
#X obj 22 126 sel 1 0;
#X obj 22 197 s \$0.label;
#X msg 41 152 label disconnected \, color 0 -1;
#X obj 22 56 r \$1.ARDUINO.INTERN;
#X msg 22 176 label waiting_for_firmware \, color 10 -1;
#X obj 20 293 unpack f f;
#X obj 20 316 sel 2;
#X msg 20 363 2;
#X obj 20 410 pack f f;
#X obj 92 388 pack f f;
#X obj 92 476 s \$0.label;
#X msg 20 432 label Firmware_OK_(v\$1.\$2) \, color 16 -1;
#X obj 20 225 r \$1.ARDUINO.INFO;
#X msg 92 410 label wrong_FW_version \, color 13 -1;
#X obj 20 20 cnv 11 105 13 empty \$0.label disconnected 3 7 1 9 -262144
-1 0;
#X msg 216 317 ready \$1;
#X obj 22 100 t a a;
#X msg 248 262 0;
#X obj 216 294 change -1;
#X obj 20 338 t b b;
#X msg 216 264 1;
#X obj 216 339 s \$1.ARDUINO.INTERN;
#X msg 396 79 stop;
#X msg 423 144 firmware;
#X obj 423 165 s \$1.ARDUINO.TO;
#X obj 396 122 t b b;
#X obj 396 229 del 500;
#X obj 396 100 del 4500;
#X msg 376 198 stop;
#X msg 396 424 label no_Firmware_found \, color 13 -1;
#X obj 20 271 t a b;
#X connect 0 0 18 0;
#X connect 1 0 32 0;
#X connect 2 0 6 0;
#X connect 2 0 29 0;
#X connect 2 1 4 0;
#X connect 2 1 24 0;
#X connect 4 0 3 0;
#X connect 5 0 0 0;
#X connect 6 0 3 0;
#X connect 7 0 8 0;
#X connect 7 1 10 1;
#X connect 7 1 11 1;
#X connect 8 0 21 0;
#X connect 8 1 11 0;
#X connect 9 0 10 0;
#X connect 10 0 13 0;
#X connect 11 0 15 0;
#X connect 13 0 12 0;
#X connect 14 0 1 0;
#X connect 15 0 12 0;
#X connect 17 0 23 0;
#X connect 18 0 2 0;
#X connect 18 1 19 0;
#X connect 19 0 20 0;
#X connect 20 0 17 0;
#X connect 21 0 22 0;
#X connect 21 1 9 0;
#X connect 22 0 20 0;
#X connect 24 0 29 0;
#X connect 25 0 26 0;
#X connect 27 0 28 0;
#X connect 27 1 25 0;
#X connect 28 0 31 0;
#X connect 29 0 27 0;
#X connect 30 0 28 0;
#X connect 31 0 12 0;
#X connect 32 0 7 0;
#X connect 32 1 24 0;
#X connect 32 1 30 0;
#X coords 0 -1 1 1 105 13 2 20 20;
