#N canvas 841 211 382 464 10;
#N canvas 1054 295 300 308 bang.to.toggle 0;
#X obj 16 55 t b b b;
#X msg 55 81 0;
#X msg 16 81 1;
#X obj 12 156 spigot 1;
#X obj 12 179 ==;
#X obj 105 178 t a;
#X obj 35 105 s \$0.bng.r;
#X obj 12 135 r \$0.bng.s;
#X obj 12 201 outlet;
#X msg 105 255 color -1 \$1 -1;
#X obj 105 277 s \$0.bng.r;
#X msg 134 225 13;
#X msg 105 225 23;
#X obj 105 200 sel 0 1;
#X obj 16 10 loadbang;
#X obj 16 33 metro 50;
#X connect 0 0 2 0;
#X connect 0 1 6 0;
#X connect 0 2 1 0;
#X connect 1 0 3 1;
#X connect 2 0 3 1;
#X connect 3 0 4 0;
#X connect 4 0 5 0;
#X connect 4 0 8 0;
#X connect 5 0 4 1;
#X connect 5 0 13 0;
#X connect 7 0 3 0;
#X connect 9 0 10 0;
#X connect 11 0 9 0;
#X connect 12 0 9 0;
#X connect 13 0 12 0;
#X connect 13 1 11 0;
#X connect 14 0 15 0;
#X connect 15 0 0 0;
#X restore 123 17 pd bang.to.toggle;
#X obj 154 214 list prepend add2;
#X obj 154 236 list trim;
#X obj 42 123 route 0 1;
#X obj 42 213 list prepend set;
#X obj 42 235 list trim;
#X obj 42 371 t a;
#X obj 42 89 list prepend 0;
#X obj 288 215 sel 1;
#X msg 288 237 set;
#X obj 154 259 t a b;
#X msg 181 280 1;
#X obj 181 302 sel 0;
#X msg 245 304 1;
#X msg 241 277 0;
#X msg 181 325 addcomma;
#X obj 42 65 r \$1.ARDUINO.TO;
#X obj 42 396 outlet;
#X obj 20 20 cnv 4 12 14 empty empty empty 20 12 0 14 -1 -66577 0;
#X obj 20 21 bng 12 50 10 0 \$0.bng.s \$0.bng.r empty 17 7 0 10 -1
-143491 -1;
#X connect 0 0 7 1;
#X connect 0 0 8 0;
#X connect 1 0 2 0;
#X connect 2 0 10 0;
#X connect 3 0 4 0;
#X connect 3 1 1 0;
#X connect 4 0 5 0;
#X connect 5 0 6 0;
#X connect 6 0 17 0;
#X connect 7 0 3 0;
#X connect 8 0 9 0;
#X connect 8 0 14 0;
#X connect 9 0 6 0;
#X connect 10 0 6 0;
#X connect 10 1 11 0;
#X connect 11 0 12 0;
#X connect 12 0 15 0;
#X connect 12 1 13 0;
#X connect 13 0 12 1;
#X connect 14 0 12 1;
#X connect 15 0 6 0;
#X connect 16 0 7 0;
#X coords 0 -1 1 1 12 14 2 20 20;
