#N canvas 955 96 378 347 10;
#X obj 17 66 namecanvas \$0.goparea;
#X obj 17 66 namecanvas \$0.goparea;
#N canvas 558 102 370 431 mode.selector 0;
#N canvas 278 280 413 391 slider.wrapper 0;
#X obj 20 285 pack f f f;
#X obj 20 263 - 1;
#X obj 20 197 change;
#X obj 20 238 t a a a;
#X obj 77 261 +;
#X msg 20 307 range \$2 \$1 \, set \$3;
#X obj 20 361 s \$0.selector.r;
#X obj 20 175 div 5;
#X obj 20 217 * 5;
#X obj 92 238 mod 5;
#X obj 48 262 + 5;
#X obj 20 78 max 0;
#X obj 20 104 min 1e+37;
#X obj 139 20 inlet;
#X obj 139 42 route range set;
#X obj 139 67 unpack;
#X obj 203 67 r \$0.sens;
#X obj 139 91 *;
#X obj 172 91 *;
#X obj 205 155 div;
#X obj 205 177 change -1e+37;
#X obj 205 270 outlet;
#X obj 182 121 *;
#X obj 20 150 t a a;
#X obj 20 126 t a a;
#X obj 20 4 r \$0.selector.s;
#X obj 250 205 r \$0.ready;
#X obj 205 247 spigot;
#X msg 259 274 range 10 -4 \, set 7;
#X obj 53 27 r \$0.ready;
#X obj 20 51 spigot;
#X obj 259 239 sel 0;
#X connect 0 0 5 0;
#X connect 1 0 0 0;
#X connect 2 0 8 0;
#X connect 3 0 1 0;
#X connect 3 1 10 0;
#X connect 3 2 4 0;
#X connect 4 0 0 2;
#X connect 5 0 6 0;
#X connect 7 0 2 0;
#X connect 8 0 3 0;
#X connect 9 0 4 1;
#X connect 10 0 0 1;
#X connect 11 0 12 0;
#X connect 12 0 24 0;
#X connect 13 0 14 0;
#X connect 14 0 15 0;
#X connect 14 1 22 0;
#X connect 15 0 17 0;
#X connect 15 1 18 0;
#X connect 16 0 18 1;
#X connect 16 0 17 1;
#X connect 16 0 19 1;
#X connect 16 0 22 1;
#X connect 17 0 11 1;
#X connect 18 0 12 1;
#X connect 19 0 20 0;
#X connect 20 0 27 0;
#X connect 22 0 23 0;
#X connect 23 0 7 0;
#X connect 23 1 9 0;
#X connect 24 0 23 0;
#X connect 24 1 19 0;
#X connect 25 0 30 0;
#X connect 26 0 27 1;
#X connect 26 0 31 0;
#X connect 27 0 21 0;
#X connect 28 0 6 0;
#X connect 29 0 30 1;
#X connect 30 0 11 0;
#X connect 31 0 28 0;
#X restore -7 111 pd slider.wrapper;
#X obj -7 40 t a a;
#X obj -7 66 list length;
#N canvas 874 200 385 462 list.selector.fields 0;
#N canvas 1158 434 142 254 counter 0;
#X obj 10 12 inlet;
#X msg 38 61 -2;
#X obj 10 83 until;
#X obj 10 105 f;
#X obj 37 106 + 1;
#X obj 10 38 t b b a;
#X obj 10 202 list prepend;
#X obj 10 224 outlet;
#X obj 10 126 t a a;
#X obj 10 181 list append;
#X obj 51 156 + 21;
#X obj 51 133 * 11;
#X msg 10 61 6;
#X connect 0 0 5 0;
#X connect 1 0 3 1;
#X connect 2 0 3 0;
#X connect 3 0 4 0;
#X connect 3 0 8 0;
#X connect 4 0 3 1;
#X connect 5 0 12 0;
#X connect 5 1 1 0;
#X connect 5 2 6 1;
#X connect 6 0 7 0;
#X connect 8 0 9 0;
#X connect 8 1 11 0;
#X connect 9 0 6 0;
#X connect 10 0 9 1;
#X connect 11 0 10 0;
#X connect 12 0 2 0;
#X restore 5 200 pd counter;
#X obj 5 224 t a a;
#X obj 5 442 s;
#X obj 5 246 list trim;
#X obj 159 49 inlet;
#X obj 32 82 del 600;
#X obj 252 89 inlet;
#X msg 5 107 1;
#X msg 32 107 0;
#X obj 5 288 route 1 0;
#N canvas 752 421 288 441 update.labels 0;
#N canvas 646 355 158 272 counter 0;
#X obj 10 12 inlet;
#X msg 10 57 5;
#X msg 38 57 -2;
#X obj 10 79 until;
#X obj 10 101 f;
#X obj 37 102 + 1;
#X obj 10 124 outlet;
#X obj 10 34 t b b;
#X connect 0 0 7 0;
#X connect 1 0 3 0;
#X connect 2 0 4 1;
#X connect 3 0 4 0;
#X connect 4 0 5 0;
#X connect 4 0 6 0;
#X connect 5 0 4 1;
#X connect 7 0 1 0;
#X connect 7 1 2 0;
#X restore -47 75 pd counter;
#X obj -47 31 t b a;
#X obj -47 97 list append;
#X obj -47 7 inlet;
#X obj 97 9 inlet;
#X obj -47 119 t a a;
#X msg 16 124 \$1 \$2;
#X obj 16 146 +;
#X obj -47 171 list append;
#X obj -47 193 t a a;
#N canvas 781 423 450 300 get.label.from.id 0;
#X obj 68 94 t b a;
#X obj 68 140 list split;
#X obj 68 118 list append;
#X obj 153 227 list split 1;
#X obj 68 66 - 1;
#X obj 29 42 moses 1;
#X msg 125 168 symbol empty;
#X obj 96 201 route bang;
#X obj 153 250 outlet;
#X obj 29 18 inlet;
#X obj 232 28 inlet;
#X connect 0 0 2 0;
#X connect 0 1 1 1;
#X connect 1 1 7 0;
#X connect 1 2 6 0;
#X connect 2 0 1 0;
#X connect 3 0 8 0;
#X connect 4 0 0 0;
#X connect 5 0 6 0;
#X connect 5 1 4 0;
#X connect 6 0 8 0;
#X connect 7 0 6 0;
#X connect 7 1 3 0;
#X connect 9 0 5 0;
#X connect 10 0 2 1;
#X restore -20 241 pd get.label.from.id;
#X obj -47 266 list append;
#X msg -20 218 \$3;
#X obj -20 310 list prepend \$0;
#X msg -20 332 \; \$1.field.\$2.r label \$5;
#X obj -47 288 t a a;
#X obj -47 365 route 0;
#X msg -47 385 symbol \$3;
#X obj -47 407 outlet;
#X connect 0 0 2 0;
#X connect 1 0 0 0;
#X connect 1 1 2 1;
#X connect 2 0 5 0;
#X connect 3 0 1 0;
#X connect 4 0 10 1;
#X connect 5 0 8 0;
#X connect 5 1 6 0;
#X connect 6 0 7 0;
#X connect 7 0 8 1;
#X connect 8 0 9 0;
#X connect 9 0 11 0;
#X connect 9 1 12 0;
#X connect 10 0 11 1;
#X connect 11 0 15 0;
#X connect 12 0 10 0;
#X connect 13 0 14 0;
#X connect 15 0 16 0;
#X connect 15 1 13 0;
#X connect 16 0 17 0;
#X connect 17 0 18 0;
#X restore 159 112 pd update.labels;
#X obj 32 398 list prepend \$0;
#X msg 32 420 symbol \$1.field.\$3.r;
#X obj 5 333 route 3;
#X obj 5 60 t b b;
#X obj 5 129 change;
#X obj 5 5 r \$0.selector.s;
#X obj 159 69 f;
#N canvas 842 395 450 300 init.cnvs 0;
#X obj 15 214 list prepend \$0;
#X msg 120 167 -187246;
#X msg 42 168 -233017;
#X obj 15 127 t a a;
#X obj 15 193 list append;
#X obj 42 147 sel 0 3;
#X msg 92 167 -1;
#X msg 15 105 3 \, -2 \, -1 \, 1 \, 2 \, 0;
#X obj 15 58 spigot 1;
#X msg 93 75 0;
#X obj 15 80 t b b;
#X obj 15 6 r \$0.selector.s;
#X obj 15 270 s \$0.goparea;
#X msg 15 235 obj 34 20 cnv 1 1 1 empty \$1.field.\$2.r empty 1 5 0
10 \$3 -1 0;
#X connect 0 0 13 0;
#X connect 1 0 4 1;
#X connect 2 0 4 1;
#X connect 3 0 4 0;
#X connect 3 1 5 0;
#X connect 4 0 0 0;
#X connect 5 0 2 0;
#X connect 5 1 6 0;
#X connect 5 2 1 0;
#X connect 6 0 4 1;
#X connect 7 0 3 0;
#X connect 8 0 10 0;
#X connect 9 0 8 1;
#X connect 10 0 7 0;
#X connect 10 1 9 0;
#X connect 11 0 8 0;
#X connect 13 0 12 0;
#X restore 277 12 pd init.cnvs;
#X obj 107 94 sel 1 0;
#X obj 5 150 t a a a;
#X obj 195 221 outlet;
#X obj 126 152 symbol;
#X obj 126 175 select dummy;
#X obj 195 199 t a a;
#X obj 5 27 spigot;
#X obj 60 28 r \$0.ready;
#X msg 39 313 pos 34 20 \, vis_size 1 1 \, label empty \, size 1;
#X msg 44 358 pos 33 \$2 \, vis_size 38 10;
#X msg 5 377 pos 31 -3 \, vis_size 42 58;
#X connect 0 0 1 0;
#X connect 1 0 3 0;
#X connect 1 1 11 0;
#X connect 3 0 9 0;
#X connect 4 0 17 0;
#X connect 5 0 8 0;
#X connect 6 0 10 1;
#X connect 7 0 15 0;
#X connect 8 0 15 0;
#X connect 9 0 13 0;
#X connect 9 1 27 0;
#X connect 10 0 22 1;
#X connect 11 0 12 0;
#X connect 12 0 2 1;
#X connect 13 0 29 0;
#X connect 13 1 28 0;
#X connect 14 0 7 0;
#X connect 14 1 5 0;
#X connect 15 0 20 0;
#X connect 16 0 25 0;
#X connect 17 0 10 0;
#X connect 19 0 17 0;
#X connect 19 1 22 0;
#X connect 20 0 19 0;
#X connect 20 1 0 0;
#X connect 22 0 23 0;
#X connect 23 1 24 0;
#X connect 24 0 21 0;
#X connect 24 1 23 1;
#X connect 25 0 14 0;
#X connect 26 0 25 1;
#X connect 27 0 2 0;
#X connect 28 0 2 0;
#X connect 29 0 2 0;
#X restore -7 146 pd list.selector.fields;
#X msg -7 88 range 1 \$1;
#N canvas 278 280 419 327 slider.wrapper 0;
#X obj 20 255 pack f f f;
#X obj 20 233 - 1;
#X obj 20 167 change;
#X obj 20 208 t a a a;
#X obj 77 231 +;
#X msg 20 277 range \$2 \$1 \, set \$3;
#X obj 20 299 s \$0.selector.r;
#X obj 20 145 div 5;
#X obj 20 187 * 5;
#X obj 92 208 mod 5;
#X obj 48 232 + 5;
#X obj 20 48 max 0;
#X obj 20 74 min 1e+37;
#X obj 139 20 inlet;
#X obj 139 42 route range set;
#X obj 139 67 unpack;
#X obj 203 67 r \$0.sens;
#X obj 139 91 *;
#X obj 172 91 *;
#X obj 172 184 div;
#X obj 172 206 change -1e+37;
#X obj 172 228 outlet;
#X obj 182 121 *;
#X obj 20 120 t a a;
#X obj 20 96 t a a;
#X obj 20 17 r \$0.selector.s;
#X connect 0 0 5 0;
#X connect 1 0 0 0;
#X connect 2 0 8 0;
#X connect 3 0 1 0;
#X connect 3 1 10 0;
#X connect 3 2 4 0;
#X connect 4 0 0 2;
#X connect 5 0 6 0;
#X connect 7 0 2 0;
#X connect 8 0 3 0;
#X connect 9 0 4 1;
#X connect 10 0 0 1;
#X connect 11 0 12 0;
#X connect 12 0 24 0;
#X connect 13 0 14 0;
#X connect 14 0 15 0;
#X connect 14 1 22 0;
#X connect 15 0 17 0;
#X connect 15 1 18 0;
#X connect 16 0 18 1;
#X connect 16 0 17 1;
#X connect 16 0 19 1;
#X connect 16 0 22 1;
#X connect 17 0 11 1;
#X connect 18 0 12 1;
#X connect 19 0 20 0;
#X connect 20 0 21 0;
#X connect 22 0 23 0;
#X connect 23 0 7 0;
#X connect 23 1 9 0;
#X connect 24 0 23 0;
#X connect 24 1 19 0;
#X connect 25 0 11 0;
#X restore -7 111 pd slider.wrapper;
#X obj -7 40 t a a;
#X obj -7 66 list length;
#X msg -7 88 range 1 \$1;
#X msg 144 338 label \$1;
#X obj 144 314 symbol;
#X obj 144 361 s \$0.selector.label.r;
#X obj -7 376 s \$0.mode;
#X obj -7 12 inlet;
#X msg -7 283 0;
#X msg 31 283 1;
#X msg 144 287 I;
#X msg 182 287 O;
#X obj 178 90 r \$0.ready;
#X obj 177 8 loadbang;
#X obj 177 30 \$0;
#X msg 177 52 \; \$1.sens 5 \;;
#X msg 69 283 2;
#X msg 107 283 3;
#X msg 178 145 symbol OFF;
#X obj -7 202 sel INPUT OUTPUT ANALOG OFF;
#X msg 220 287 A;
#X msg 265 287 empty;
#X connect 0 0 3 0;
#X connect 1 0 2 0;
#X connect 1 1 3 1;
#X connect 2 0 4 0;
#X connect 3 0 25 0;
#X connect 4 0 0 0;
#X connect 6 0 7 0;
#X connect 7 0 8 0;
#X connect 8 0 5 0;
#X connect 9 0 11 0;
#X connect 10 0 9 0;
#X connect 13 0 1 0;
#X connect 14 0 12 0;
#X connect 15 0 12 0;
#X connect 16 0 10 0;
#X connect 17 0 10 0;
#X connect 18 0 24 0;
#X connect 19 0 20 0;
#X connect 20 0 21 0;
#X connect 22 0 12 0;
#X connect 23 0 12 0;
#X connect 24 0 25 0;
#X connect 25 0 16 0;
#X connect 25 0 14 0;
#X connect 25 1 17 0;
#X connect 25 1 15 0;
#X connect 25 2 26 0;
#X connect 25 2 22 0;
#X connect 25 3 27 0;
#X connect 25 3 23 0;
#X connect 26 0 10 0;
#X connect 27 0 10 0;
#X restore 17 141 pd mode.selector;
#N canvas 1121 347 200 148 pin.no.label 0;
#X obj 14 105 s \$0.sl.r;
#X obj 14 62 makefilename %2d;
#X msg 14 84 label \$1;
#X obj 14 16 loadbang;
#X obj 14 38 f \$2;
#X connect 1 0 2 0;
#X connect 2 0 0 0;
#X connect 3 0 4 0;
#X connect 4 0 1 0;
#X restore 17 163 pd pin.no.label;
#X obj 33 21 vsl 8 9 10 -4 0 0 \$0.selector.s \$0.selector.r empty
1 5 0 10 -228856 -228856 -1 171 1;
#X obj 21 21 vsl 12 9 0 1 0 0 \$0.sl.s \$0.sl.r 16 1 6 0 9 -233017
-233017 -1 400 1;
#N canvas 916 177 400 373 show.value 0;
#X obj 92 327 s \$0.show.value;
#X obj 53 170 del 1000;
#X obj 20 145 r \$0.mode;
#X obj 99 16 r \$0.toggle;
#X obj 168 33 r \$0.mode;
#X obj 99 54 list prepend;
#X obj 152 195 sel 0 1;
#X msg 152 219 LOW;
#X msg 178 219 HIGH;
#X msg 53 199 empty;
#X obj 92 281 list prepend label;
#X obj 92 303 list trim;
#X obj 126 120 sel 0 1;
#X msg 126 142 PULL_UP_OFF;
#X msg 145 162 PULL_UP_ON;
#X obj 99 76 t b a;
#X obj 126 96 route 0 1;
#X connect 1 0 9 0;
#X connect 2 0 9 0;
#X connect 3 0 5 0;
#X connect 4 0 5 1;
#X connect 5 0 15 0;
#X connect 6 0 7 0;
#X connect 6 1 8 0;
#X connect 7 0 10 0;
#X connect 8 0 10 0;
#X connect 9 0 10 0;
#X connect 10 0 11 0;
#X connect 11 0 0 0;
#X connect 12 0 13 0;
#X connect 12 1 14 0;
#X connect 13 0 10 0;
#X connect 14 0 10 0;
#X connect 15 0 1 0;
#X connect 15 1 16 0;
#X connect 16 0 12 0;
#X connect 16 1 6 0;
#X restore 17 185 pd show.value;
#N canvas 1136 268 336 455 color.indicator 0;
#N canvas 1083 72 231 303 color.blender 0;
#N canvas 1144 153 166 250 blend 0;
#X obj 12 12 inlet;
#X obj 12 207 outlet;
#X obj 67 11 inlet;
#X obj 27 109 -;
#X obj 12 130 *;
#X obj 67 32 t a a;
#X obj 12 176 int;
#X msg 27 87 255 \$1;
#X obj 12 152 +;
#X obj 12 34 * -1;
#X obj 12 56 + 1;
#X connect 0 0 9 0;
#X connect 2 0 5 0;
#X connect 3 0 4 1;
#X connect 4 0 8 0;
#X connect 5 0 7 0;
#X connect 5 1 8 1;
#X connect 6 0 1 0;
#X connect 7 0 3 0;
#X connect 8 0 6 0;
#X connect 9 0 10 0;
#X connect 10 0 4 0;
#X restore 29 104 pd blend;
#N canvas 1144 153 166 250 blend 0;
#X obj 12 12 inlet;
#X obj 12 207 outlet;
#X obj 67 11 inlet;
#X obj 27 109 -;
#X obj 12 130 *;
#X obj 67 32 t a a;
#X obj 12 176 int;
#X msg 27 87 255 \$1;
#X obj 12 152 +;
#X obj 12 34 * -1;
#X obj 12 56 + 1;
#X connect 0 0 9 0;
#X connect 2 0 5 0;
#X connect 3 0 4 1;
#X connect 4 0 8 0;
#X connect 5 0 7 0;
#X connect 5 1 8 1;
#X connect 6 0 1 0;
#X connect 7 0 3 0;
#X connect 8 0 6 0;
#X connect 9 0 10 0;
#X connect 10 0 4 0;
#X restore 86 104 pd blend;
#N canvas 1144 153 166 250 blend 0;
#X obj 12 12 inlet;
#X obj 12 207 outlet;
#X obj 67 11 inlet;
#X obj 27 109 -;
#X obj 12 130 *;
#X obj 67 32 t a a;
#X obj 12 176 int;
#X msg 27 87 255 \$1;
#X obj 12 152 +;
#X obj 12 34 * -1;
#X obj 12 56 + 1;
#X connect 0 0 9 0;
#X connect 2 0 5 0;
#X connect 3 0 4 1;
#X connect 4 0 8 0;
#X connect 5 0 7 0;
#X connect 5 1 8 1;
#X connect 6 0 1 0;
#X connect 7 0 3 0;
#X connect 8 0 6 0;
#X connect 9 0 10 0;
#X connect 10 0 4 0;
#X restore 142 104 pd blend;
#X obj 29 23 inlet;
#X obj 29 264 outlet;
#X obj 118 23 inlet;
#X obj 118 45 unpack f f f;
#X obj 29 53 t a a a;
#X obj 86 143 << 8;
#X obj 29 143 << 16;
#X obj 29 200 +;
#X obj 86 172 +;
#X obj 29 220 * -1;
#X obj 29 241 - 1;
#X connect 0 0 9 0;
#X connect 1 0 8 0;
#X connect 2 0 11 1;
#X connect 3 0 7 0;
#X connect 5 0 6 0;
#X connect 6 0 0 1;
#X connect 6 1 1 1;
#X connect 6 2 2 1;
#X connect 7 0 0 0;
#X connect 7 1 1 0;
#X connect 7 2 2 0;
#X connect 8 0 11 0;
#X connect 9 0 10 0;
#X connect 10 0 12 0;
#X connect 11 0 10 1;
#X connect 12 0 13 0;
#X connect 13 0 4 0;
#X restore 38 238 pd color.blender;
#X obj 38 282 s \$0.sl.r;
#X msg 38 260 color \$1 \$1 -1;
#X obj 159 15 r \$0.mode;
#X obj 2 35 r \$0.toggle;
#X obj 38 189 + 0.1;
#X obj 38 167 * 0.9;
#X msg 186 118 210 0 255;
#X msg 201 143 0 200 0;
#X obj 2 414 s \$0.pull.up.r;
#X obj 2 342 sel 0 1;
#X msg 2 392 pos \$1 20 \, size 1 \, vis_size 4 1;
#X obj 2 319 change;
#X obj 95 324 r \$0.mode;
#X msg 122 367 0;
#X obj 95 346 sel 0;
#X obj 49 115 r \$0.input;
#N canvas 542 699 176 225 rate.limit 0;
#X obj 129 52 inlet;
#X obj 19 150 outlet;
#X obj 19 47 route refresh;
#X obj 19 69 b;
#X obj 19 91 f;
#X obj 19 126 change -1;
#X obj 19 25 r \$1.ARDUINO.INTERN;
#X obj 96 119 r \$0.mode;
#X msg 96 141 set -1;
#X connect 0 0 4 1;
#X connect 2 0 3 0;
#X connect 3 0 4 0;
#X connect 4 0 5 0;
#X connect 5 0 1 0;
#X connect 6 0 2 0;
#X connect 7 0 8 0;
#X connect 8 0 5 0;
#X restore 38 216 pd rate.limit;
#X obj 186 92 sel 0 1 2 3;
#X msg 233 198 224 224 224;
#X obj 129 69 sel 3;
#X msg 129 91 1;
#X msg 156 91 0;
#X obj 159 37 t a a;
#X obj 2 87 route 0 1;
#X obj 2 62 list prepend;
#X msg 33 367 28;
#X msg 2 368 33;
#X msg 217 169 0 190 190;
#X connect 0 0 2 0;
#X connect 2 0 1 0;
#X connect 3 0 23 0;
#X connect 4 0 25 0;
#X connect 5 0 17 0;
#X connect 6 0 5 0;
#X connect 7 0 0 1;
#X connect 8 0 0 1;
#X connect 10 0 27 0;
#X connect 10 1 26 0;
#X connect 11 0 9 0;
#X connect 12 0 10 0;
#X connect 13 0 15 0;
#X connect 14 0 12 0;
#X connect 15 1 14 0;
#X connect 16 0 6 0;
#X connect 17 0 0 0;
#X connect 18 0 7 0;
#X connect 18 1 8 0;
#X connect 18 2 28 0;
#X connect 18 3 19 0;
#X connect 19 0 0 1;
#X connect 20 0 21 0;
#X connect 20 1 22 0;
#X connect 21 0 6 0;
#X connect 22 0 6 0;
#X connect 23 0 20 0;
#X connect 23 0 25 1;
#X connect 23 1 18 0;
#X connect 24 0 12 0;
#X connect 24 1 6 0;
#X connect 25 0 24 0;
#X connect 26 0 11 0;
#X connect 27 0 11 0;
#X connect 28 0 0 1;
#X restore 17 207 pd color.indicator;
#N canvas 1012 349 271 302 input.output.toggle 0;
#N canvas 1230 249 185 273 slider.click.detection 0;
#X obj 14 49 sel 0 1;
#X obj 14 28 route float;
#X msg 14 169 set 0.5;
#X obj 82 101 t a a;
#X obj 82 144 sel 0;
#X obj 82 166 outlet;
#X obj 24 190 loadbang;
#X msg 24 211 range 0 1 \, set 0.5;
#X obj 82 123 - 0.5;
#X obj 14 6 r \$0.sl.s;
#X obj 14 232 s \$0.sl.r;
#X obj 64 76 f;
#X obj 100 79 + 1;
#X connect 0 0 2 0;
#X connect 0 0 11 0;
#X connect 0 1 2 0;
#X connect 0 1 11 0;
#X connect 0 2 11 0;
#X connect 1 0 0 0;
#X connect 2 0 10 0;
#X connect 3 0 8 1;
#X connect 3 1 8 0;
#X connect 4 0 5 0;
#X connect 6 0 7 0;
#X connect 7 0 10 0;
#X connect 8 0 4 0;
#X connect 9 0 1 0;
#X connect 11 0 12 0;
#X connect 11 0 3 0;
#X connect 12 0 11 1;
#X restore 9 11 pd slider.click.detection;
#X obj 9 234 ==;
#X obj 45 234 t a;
#X obj 73 181 r \$0.mode;
#X msg 73 203 0;
#X obj 9 257 s \$0.toggle;
#X text 99 205 <- reset on mode switch;
#X obj 9 194 spigot;
#X obj 124 96 r \$0.ready;
#X obj 42 160 &&;
#X obj 124 118 t b a;
#X obj 42 42 r \$0.mode;
#X obj 42 64 sel 0 1;
#X msg 42 94 1;
#X msg 81 92 0;
#X connect 0 0 7 0;
#X connect 1 0 2 0;
#X connect 1 0 5 0;
#X connect 2 0 1 1;
#X connect 3 0 4 0;
#X connect 4 0 1 1;
#X connect 7 0 1 0;
#X connect 8 0 10 0;
#X connect 9 0 7 1;
#X connect 10 0 9 0;
#X connect 10 1 9 1;
#X connect 11 0 12 0;
#X connect 12 0 13 0;
#X connect 12 1 13 0;
#X connect 12 2 14 0;
#X connect 13 0 9 0;
#X connect 14 0 9 0;
#X restore 17 229 pd input.output.toggle;
#X obj 33 20 cnv 1 4 1 empty \$0.pull.up.r empty 20 12 0 14 -1 -66577
0;
#X obj 33 21 vsl 8 9 30 24 0 0 \$0.selector.label.s \$0.selector.label.r
empty 1 5 0 10 -228856 -228856 -1 0 1;
#X text 230 76 0: INPUT;
#X text 230 102 2: ANALOG;
#X text 230 129 4: SERVO;
#X text 230 47 Table Of PinModes:;
#X text 230 56 ==================;
#N canvas 1035 390 403 367 resolve.supported.modes 0;
#X obj 31 76 tabread \$1.ARDUINO.PIN.MODES;
#X obj 4 10 loadbang;
#X obj 31 54 f \$2;
#X obj 31 98 t a a a a;
#X obj 31 214 list prepend;
#X obj 118 214 t a;
#X obj 4 243 list append;
#X obj 4 32 t b b;
#X text 48 274 <- list of supported modes;
#X obj 4 273 outlet;
#X obj 140 127 & 4;
#X obj 140 161 sel 4;
#X msg 140 183 OFF;
#X msg 104 183 ANALOG;
#X obj 104 161 sel 16;
#X obj 104 127 & 16;
#X msg 68 183 OUTPUT;
#X msg 31 183 INPUT;
#X obj 68 127 & 1;
#X obj 31 128 & 2;
#X obj 31 161 sel 2;
#X obj 68 161 sel 1;
#X connect 0 0 3 0;
#X connect 1 0 7 0;
#X connect 2 0 0 0;
#X connect 3 0 19 0;
#X connect 3 1 18 0;
#X connect 3 2 15 0;
#X connect 3 3 10 0;
#X connect 4 0 5 0;
#X connect 4 0 6 1;
#X connect 5 0 4 1;
#X connect 6 0 9 0;
#X connect 7 0 6 0;
#X connect 7 1 2 0;
#X connect 10 0 11 0;
#X connect 11 0 12 0;
#X connect 12 0 4 0;
#X connect 13 0 4 0;
#X connect 14 0 13 0;
#X connect 15 0 14 0;
#X connect 16 0 4 0;
#X connect 17 0 4 0;
#X connect 18 0 21 0;
#X connect 19 0 20 0;
#X connect 20 0 17 0;
#X connect 21 0 16 0;
#X restore 17 118 pd resolve.supported.modes;
#N canvas 682 136 464 388 compose.arduino.messages 0;
#X obj 11 9 r \$0.mode;
#X text 68 91 <- don't send initial 'output' (it's the default);
#X obj 11 111 sel 0 1 2 3 4;
#X msg 11 232 input;
#X msg 26 210 output;
#X msg 71 136 servo;
#X obj 11 263 list prepend pinMode \$2;
#X obj 11 285 list trim;
#X obj 11 356 s \$1.ARDUINO.TO;
#X obj 182 137 r \$0.toggle;
#X obj 182 198 list prepend \$2;
#X msg 182 223 digital \$1 \$2;
#X obj 80 5 r \$0.ready;
#X obj 80 26 sel 0;
#X msg 41 184 analog;
#X msg 56 158 pwm;
#X msg 80 50 set 3;
#X obj 11 90 change 3;
#X connect 0 0 17 0;
#X connect 2 0 3 0;
#X connect 2 1 4 0;
#X connect 2 2 14 0;
#X connect 2 3 15 0;
#X connect 2 4 5 0;
#X connect 3 0 6 0;
#X connect 4 0 6 0;
#X connect 5 0 6 0;
#X connect 6 0 7 0;
#X connect 7 0 8 0;
#X connect 9 0 10 0;
#X connect 10 0 11 0;
#X connect 11 0 8 0;
#X connect 12 0 13 0;
#X connect 13 0 16 0;
#X connect 14 0 6 0;
#X connect 15 0 6 0;
#X connect 16 0 17 0;
#X connect 17 0 2 0;
#X restore 17 273 pd compose.arduino.messages;
#N canvas 789 199 371 285 digital.input 0;
#X obj 33 15 r \$1.ARDUINO.OUT;
#X obj 33 59 route \$2;
#X obj 33 219 s \$0.input;
#X obj 33 37 route digital analog;
#X obj 129 87 route 0;
#X obj 168 16 loadbang;
#X obj 168 38 \$2;
#X obj 168 60 - 16;
#X obj 223 100 r \$0.mode;
#X obj 33 190 spigot;
#X obj 129 188 spigot;
#X obj 66 145 sel 0;
#X msg 66 167 1;
#X msg 93 167 0;
#X msg 162 163 1;
#X msg 189 163 0;
#X obj 162 141 sel 2;
#X connect 0 0 3 0;
#X connect 1 0 9 0;
#X connect 3 0 1 0;
#X connect 3 1 4 0;
#X connect 4 0 10 0;
#X connect 5 0 6 0;
#X connect 6 0 7 0;
#X connect 7 0 4 1;
#X connect 8 0 11 0;
#X connect 8 0 16 0;
#X connect 9 0 2 0;
#X connect 10 0 2 0;
#X connect 11 0 12 0;
#X connect 11 1 13 0;
#X connect 12 0 9 1;
#X connect 13 0 9 1;
#X connect 14 0 10 1;
#X connect 15 0 10 1;
#X connect 16 0 14 0;
#X connect 16 1 15 0;
#X restore 17 251 pd digital.input;
#N canvas 699 389 205 172 ready 0;
#X obj -15 -92 r \$1.ARDUINO.INTERN;
#X obj -15 -70 route ready;
#X obj -15 7 s \$0.ready;
#X obj 19 -49 loadbang;
#X msg 19 -27 0;
#X connect 0 0 1 0;
#X connect 1 0 2 0;
#X connect 3 0 4 0;
#X connect 4 0 2 0;
#X restore 17 96 pd ready;
#X text 230 89 1: OUTPUT;
#X text 230 116 3: OFF (default);
#X connect 16 0 2 0;
#X coords 0 -1 1 1 20 14 2 21 19;
