#N canvas 564 44 618 616 10;
#X obj 22 108 route serial.com;
#X obj 22 156 sel 1 0;
#X obj 22 86 r \$1.ARDUINO.INTERN;
#X obj 20 364 sel 2;
#X obj 20 295 r \$1.ARDUINO.INFO;
#X msg 202 413 ready \$1;
#X obj 22 130 t a a;
#X msg 234 358 0;
#X obj 202 390 change -1;
#X obj 20 399 t b b;
#X msg 202 360 1;
#X obj 202 435 s \$1.ARDUINO.INTERN;
#X msg 326 109 stop;
#X msg 353 174 firmware;
#X obj 353 195 s \$1.ARDUINO.TO;
#X obj 326 152 t b b;
#X obj 326 339 del 500;
#X obj 326 130 del 4500;
#X msg 306 308 stop;
#X obj 20 341 t a b;
#X obj 20 319 route version;
#X obj 20 42 cnv 11 275 22 empty \$0.label.bottom empty 7 6 0 10 -262144
-1 0;
#X obj 20 20 cnv 11 275 21 empty \$0.label.top disconnected  7 12 0
10 -262144 -1 0;
#X msg 166 130 0;
#X msg 196 129 10;
#X obj 22 227 agop.symbol2list;
#X msg 41 182 disconnected;
#X msg 22 206 Waiting for firmware ...;
#X msg 22 249 label \$1;
#X obj 22 270 s \$0.label.top;
#X obj 421 36 r \$0.color;
#X msg 421 60 color \$1 -1;
#X obj 432 83 s \$0.label.top;
#X obj 166 153 s \$0.color;
#X obj 421 105 s \$0.label.bottom;
#X obj 20 529 agop.symbol2list;
#X msg 20 551 label \$1;
#X obj 20 572 s \$0.label.top;
#X msg 20 474 Firmware OK;
#X msg 105 416 6;
#X msg 99 474 Wrong firmware version;
#X obj 105 445 s \$0.color;
#X msg 132 417 3;
#X msg 326 478 No firmware found;
#X obj 346 390 s \$0.color;
#X msg 346 364 3;
#X obj 430 248 r \$1.ARDUINO.INFO;
#X obj 430 272 route firmware;
#X obj 430 327 agop.symbol2list;
#X msg 430 349 label \$1;
#X msg 397 298 symbol empty;
#X obj 430 370 s \$0.label.bottom;
#X obj 485 299 r \$1.ARDUINO.TO;
#X text 163 551 ... trying to win the spaghetti contest ... sorry;
#X connect 0 0 6 0;
#X connect 1 0 27 0;
#X connect 1 0 17 0;
#X connect 1 0 24 0;
#X connect 1 1 26 0;
#X connect 1 1 12 0;
#X connect 1 1 23 0;
#X connect 1 1 50 0;
#X connect 2 0 0 0;
#X connect 3 0 9 0;
#X connect 3 0 39 0;
#X connect 3 1 40 0;
#X connect 3 1 42 0;
#X connect 4 0 20 0;
#X connect 5 0 11 0;
#X connect 6 0 1 0;
#X connect 6 1 7 0;
#X connect 7 0 8 0;
#X connect 8 0 5 0;
#X connect 9 0 10 0;
#X connect 9 1 38 0;
#X connect 10 0 8 0;
#X connect 12 0 17 0;
#X connect 13 0 14 0;
#X connect 15 0 16 0;
#X connect 15 1 13 0;
#X connect 16 0 43 0;
#X connect 16 0 45 0;
#X connect 17 0 15 0;
#X connect 18 0 16 0;
#X connect 19 0 3 0;
#X connect 19 1 12 0;
#X connect 19 1 18 0;
#X connect 20 0 19 0;
#X connect 23 0 33 0;
#X connect 24 0 33 0;
#X connect 25 0 28 0;
#X connect 26 0 25 0;
#X connect 27 0 25 0;
#X connect 28 0 29 0;
#X connect 30 0 31 0;
#X connect 31 0 32 0;
#X connect 31 0 34 0;
#X connect 35 0 36 0;
#X connect 36 0 37 0;
#X connect 38 0 35 0;
#X connect 39 0 41 0;
#X connect 40 0 35 0;
#X connect 42 0 41 0;
#X connect 43 0 35 0;
#X connect 45 0 44 0;
#X connect 46 0 47 0;
#X connect 47 0 48 0;
#X connect 48 0 49 0;
#X connect 49 0 51 0;
#X connect 50 0 49 0;
#X connect 52 0 48 0;
#X coords 0 -1 1 1 275 44 2 20 20;
