#N canvas 806 309 555 462 10;
#X obj 20 20 nbx 5 12 1 100 0 0 \$0.sr.s \$0.sr.r empty 0 -8 0 10 -262144
-1 -1 50 256;
#X obj 23 20 hsl 48 12 0 127 0 0 \$0.NULL.s \$0.label.r empty 3 6 0
10 -228856 -228856 -1 0 1;
#X obj 184 218 s \$0.sr.r;
#X msg 184 196 set 50;
#X obj 16 56 r \$1.ARDUINO.IN;
#X obj 16 82 route samplingInterval;
#X obj 16 104 clip 10 16384;
#X msg 16 126 1000 \$1;
#X obj 16 148 /;
#X obj 16 191 s \$0.sr.r;
#X msg 16 169 set \$1;
#X obj 189 30 r \$1.ARDUINO.INTERN;
#X obj 189 52 route ready;
#X obj 16 234 r \$0.sr.s;
#X msg 16 255 1000 \$1;
#X obj 16 277 /;
#X obj 16 299 int;
#X msg 16 321 samplingInterval \$1;
#X obj 16 367 s \$1.ARDUINO.TO;
#X obj 16 344 spigot;
#X obj 184 148 sel 1 0;
#X obj 326 244 s \$0.label.r;
#X obj 326 146 makefilename %3d;
#X obj 430 210 makefilename %c;
#X msg 430 187 32;
#X obj 326 184 pack s s;
#X msg 236 195 label empty;
#X obj 326 58 r \$0.sr.s;
#X msg 326 209 label \$1\$2sr;
#X obj 387 59 r \$0.sr.r;
#X obj 387 81 route set;
#X obj 430 166 loadbang;
#X obj 326 125 spigot;
#X obj 189 74 t a a a;
#X connect 3 0 2 0;
#X connect 4 0 5 0;
#X connect 5 0 6 0;
#X connect 6 0 7 0;
#X connect 7 0 8 0;
#X connect 8 0 10 0;
#X connect 10 0 9 0;
#X connect 11 0 12 0;
#X connect 12 0 33 0;
#X connect 13 0 14 0;
#X connect 14 0 15 0;
#X connect 15 0 16 0;
#X connect 16 0 17 0;
#X connect 17 0 19 0;
#X connect 19 0 18 0;
#X connect 20 0 3 0;
#X connect 20 1 26 0;
#X connect 22 0 25 0;
#X connect 23 0 25 1;
#X connect 24 0 23 0;
#X connect 25 0 28 0;
#X connect 26 0 21 0;
#X connect 27 0 32 0;
#X connect 28 0 21 0;
#X connect 29 0 30 0;
#X connect 30 0 32 0;
#X connect 31 0 24 0;
#X connect 32 0 22 0;
#X connect 33 0 19 1;
#X connect 33 1 20 0;
#X connect 33 2 32 1;
#X coords 0 -1 1 1 53 12 2 20 20;
