#N canvas 718 312 193 283 10;
#X obj 21 21 cnv 1 1 6 empty \$0.bar empty 20 12 0 14 -203904 -66577
0;
#X obj 35 101 inlet;
#X msg 20 212 vis_size \$1 6;
#X obj 20 233 s \$0.bar;
#X obj 20 146 change;
#X obj 20 169 clip 0 1;
#X obj 20 191 * 100;
#X obj 20 57 loadbang;
#X obj 20 79 metro 50;
#X obj 20 123 f;
#X connect 1 0 9 1;
#X connect 2 0 3 0;
#X connect 4 0 5 0;
#X connect 5 0 6 0;
#X connect 6 0 2 0;
#X connect 7 0 8 0;
#X connect 8 0 9 0;
#X connect 9 0 4 0;
#X coords 0 -1 1 1 102 8 2 20 20;
