#N canvas 156 219 364 244 10;
#X obj 20 52 vsl 80 9 0 2 0 0 \$0.inst.id.s \$0.inst.id.r empty 7 5
0 10 -228856 -228856 -33289 400 1;
#N canvas 657 18 580 773 selector.code 0;
#X obj 14 10 loadbang;
#X obj 15 143 t b b;
#X obj 59 143 t b b;
#X obj 15 178 f;
#X obj 15 199 - 1;
#X obj 59 179 f;
#X obj 59 200 + 1;
#X obj 15 540 s \$0.MTX;
#X msg 15 513 setinstid \$1;
#X obj 135 215 s \$0.inst.id.r;
#X obj 14 54 s \$0.inst.id.r;
#X obj 15 81 r \$0.inst.id.s;
#X obj 103 172 t b b;
#X obj 103 358 list length;
#X msg 15 449 \$1;
#X msg 38 422 set \, adddollar \$1;
#X obj 15 470 list;
#X obj 15 397 list append;
#X obj 15 492 t a a;
#X obj 16 570 r \$0.MTX;
#X obj 16 592 route setinstid;
#X msg 14 32 set 1;
#X msg 135 193 set 1;
#X msg 16 682 label \$1;
#X obj 16 704 s \$0.inst.id.r;
#X obj 16 660 makefilename %d;
#X obj 16 638 route float;
#X obj 16 616 list;
#X obj 15 228 min;
#X obj 15 250 max 1;
#N canvas 392 0 338 489 side.labels 0;
#X obj 13 15 inlet;
#X obj 225 18 inlet;
#X msg 13 57 pos \$1;
#X msg 13 118 1;
#X obj 13 93 t b b a;
#X obj 36 144 del 600;
#X msg 36 166 0;
#X obj 13 198 change;
#X obj 13 220 sel 0 1;
#X msg 13 262 off;
#X msg 36 241 on;
#X obj 128 372 list.selector.field \$0 -2;
#X obj 58 292 t a a a a a a;
#N canvas 0 0 649 274 background 0;
#X obj 22 12 inlet;
#X obj 170 86 f \$0;
#X obj 22 223 s \$0.bg.r;
#X obj 170 64 t b b;
#X obj 170 43 spigot 1;
#X msg 261 54 0;
#X msg 62 176 pos 18 18 \, vis_size 84 78;
#X obj 22 41 route off on;
#X obj 62 66 t b b;
#X obj 170 128 s \$0.list.sel;
#X msg 22 152 pos 20 50 \, vis_size 1 1;
#X msg 170 107 obj 20 50 cnv 1 84 78 empty \$1.bg.r empty 7 7 0 10
-1 -1 0 \;;
#X connect 0 0 7 0;
#X connect 1 0 11 0;
#X connect 3 0 1 0;
#X connect 3 1 5 0;
#X connect 4 0 3 0;
#X connect 5 0 4 1;
#X connect 6 0 2 0;
#X connect 7 0 10 0;
#X connect 7 1 8 0;
#X connect 8 0 6 0;
#X connect 8 1 4 0;
#X connect 10 0 2 0;
#X connect 11 0 9 0;
#X restore 146 348 pd background;
#X obj 58 451 list.selector.field \$0 2;
#X obj 93 411 list.selector.field \$0 0;
#X obj 75 431 list.selector.field \$0 1;
#X obj 110 392 list.selector.field \$0 -1;
#X connect 0 0 2 0;
#X connect 1 0 12 0;
#X connect 2 0 4 0;
#X connect 3 0 7 0;
#X connect 4 0 3 0;
#X connect 4 1 5 0;
#X connect 4 2 12 0;
#X connect 5 0 6 0;
#X connect 6 0 7 0;
#X connect 7 0 8 0;
#X connect 8 0 9 0;
#X connect 8 1 10 0;
#X connect 9 0 12 0;
#X connect 10 0 12 0;
#X connect 12 0 14 0;
#X connect 12 1 16 0;
#X connect 12 2 15 0;
#X connect 12 3 17 0;
#X connect 12 4 11 0;
#X connect 12 5 13 0;
#X restore 181 488 pd side.labels;
#X obj 15 296 t a a;
#X obj 103 331 t a a a;
#X obj 15 116 sel 2 0;
#X obj 219 238 r \$1;
#X obj 219 260 route set.list;
#X obj 219 282 list;
#X obj 257 328 r \$1;
#X obj 257 350 route set.default;
#X msg 257 370 1;
#X obj 257 393 t a b;
#X obj 196 555 r \$0.MTX;
#X obj 196 577 route setinstid;
#X obj 196 626 list;
#X msg 196 650 return \$1;
#X obj 196 672 s \$1;
#X obj 318 556 r \$1;
#X obj 318 578 route get.current;
#X obj 318 600 b;
#X obj 15 274 change;
#X obj 103 306 list append empty;
#X obj 347 422 r \$1;
#X obj 347 444 route set.current;
#X obj 347 466 list;
#X obj 347 507 s \$0.MTX;
#X msg 347 487 setinstid \$1;
#X obj 196 599 t b a;
#X obj 15 351 t b a a;
#X connect 0 0 21 0;
#X connect 1 0 3 0;
#X connect 1 1 12 0;
#X connect 2 0 5 0;
#X connect 2 1 12 0;
#X connect 3 0 4 0;
#X connect 4 0 28 0;
#X connect 5 0 6 0;
#X connect 6 0 28 0;
#X connect 8 0 7 0;
#X connect 11 0 33 0;
#X connect 12 0 50 0;
#X connect 12 1 22 0;
#X connect 13 0 28 1;
#X connect 14 0 16 0;
#X connect 15 0 14 0;
#X connect 16 0 18 0;
#X connect 17 0 14 0;
#X connect 18 0 8 0;
#X connect 19 0 20 0;
#X connect 20 0 27 0;
#X connect 21 0 10 0;
#X connect 22 0 9 0;
#X connect 23 0 24 0;
#X connect 25 0 23 0;
#X connect 26 0 25 0;
#X connect 26 1 23 0;
#X connect 27 0 26 0;
#X connect 28 0 29 0;
#X connect 29 0 49 0;
#X connect 31 0 57 0;
#X connect 31 1 30 0;
#X connect 32 0 13 0;
#X connect 32 1 17 1;
#X connect 32 2 30 1;
#X connect 33 0 1 0;
#X connect 33 1 2 0;
#X connect 34 0 35 0;
#X connect 35 0 36 0;
#X connect 36 0 50 1;
#X connect 37 0 38 0;
#X connect 38 0 39 0;
#X connect 39 0 40 0;
#X connect 40 0 57 0;
#X connect 40 1 50 0;
#X connect 41 0 42 0;
#X connect 42 0 56 0;
#X connect 43 0 44 0;
#X connect 44 0 45 0;
#X connect 46 0 47 0;
#X connect 47 0 48 0;
#X connect 48 0 43 0;
#X connect 49 0 31 0;
#X connect 50 0 32 0;
#X connect 51 0 52 0;
#X connect 52 0 53 0;
#X connect 53 0 55 0;
#X connect 55 0 54 0;
#X connect 56 0 43 0;
#X connect 56 1 43 1;
#X connect 57 0 17 0;
#X connect 57 1 15 0;
#X connect 57 2 3 1;
#X connect 57 2 5 1;
#X restore 25 119 pd selector.code;
#X text 167 212 Roman Haefeli \, 2010-04-11;
#X obj 24 141 namecanvas \$0.list.sel;
#X coords 0 -1 1 1 80 14 2 20 50;
